<?xml version="1.0" standalone="no"?>
<!DOCTYPE svg PUBLIC "-//W3C//DTD SVG 20010904//EN"
 "http://www.w3.org/TR/2001/REC-SVG-20010904/DTD/svg10.dtd">
<svg version="1.0" xmlns="http://www.w3.org/2000/svg"
 width="1000.000000pt" height="1000.000000pt" viewBox="0 0 1000.000000 1000.000000"
 preserveAspectRatio="xMidYMid meet">
<metadata>
Created by potrace 1.11, written by Peter Selinger 2001-2013
</metadata>
<g transform="translate(0.000000,1000.000000) scale(0.100000,-0.100000)"
fill="#000000" stroke="none">
<path d="M2040 7530 c-58 -4 -116 -10 -130 -13 -14 -3 -139 -34 -277 -68 -213
-51 -253 -64 -253 -79 0 -10 -20 -239 -45 -510 -25 -271 -45 -507 -45 -526 l0
-34 131 0 c120 0 131 -1 126 -17 -2 -10 -258 -637 -567 -1393 -309 -756 -573
-1406 -587 -1445 -81 -238 -57 -497 65 -676 161 -240 437 -344 784 -295 98 14
467 111 483 128 3 2 54 107 115 231 60 125 112 227 116 227 3 0 32 -20 63 -45
32 -24 93 -58 135 -75 347 -138 754 22 1081 424 l70 86 2 -43 c9 -147 39 -287
85 -392 187 -428 693 -636 1251 -515 174 38 356 111 514 206 l106 64 35 -31
c52 -46 166 -117 248 -154 166 -76 339 -113 569 -121 393 -15 783 83 1082 273
149 93 339 268 445 408 146 193 293 470 397 750 32 88 143 374 246 635 191
484 330 848 550 1435 68 182 131 347 139 367 l16 38 170 2 170 3 289 583 290
582 -1356 -2 -1356 -3 -277 -585 -278 -585 323 -5 323 -5 -50 -125 c-27 -69
-141 -348 -253 -620 -111 -272 -227 -553 -256 -624 l-52 -128 -45 46 c-210
220 -612 269 -949 116 -36 -17 -68 -29 -69 -27 -2 2 95 250 217 552 121 302
236 600 255 663 92 304 99 576 20 785 -104 276 -328 453 -661 523 -126 27
-478 27 -610 1 -101 -21 -416 -94 -420 -99 -2 -2 -118 -250 -258 -553 l-254
-550 74 -5 73 -5 -307 -392 c-170 -215 -309 -390 -310 -389 -2 2 2 155 9 341
12 370 5 541 -31 716 -101 486 -390 799 -840 910 -100 25 -337 52 -406 47 -11
0 -67 -4 -125 -8z m3260 -135 c237 -16 442 -109 567 -258 55 -65 118 -193 139
-282 24 -104 22 -293 -6 -425 -36 -176 -87 -315 -420 -1139 -176 -437 -318
-796 -317 -798 2 -1 21 21 42 50 143 190 337 328 551 393 79 24 106 27 239 28
162 1 200 -7 315 -64 111 -56 219 -179 256 -293 9 -29 20 -55 23 -60 4 -4 61
125 126 285 65 161 195 478 288 703 93 226 217 529 274 675 58 146 107 271
110 278 4 9 -62 12 -312 12 -174 0 -315 4 -313 8 2 5 97 207 212 449 l209 440
1201 6 c661 3 1202 4 1203 3 1 -1 -99 -205 -222 -454 l-224 -452 -175 0 -174
0 -32 -82 c-18 -46 -135 -355 -260 -688 -126 -333 -317 -830 -425 -1105 -108
-275 -223 -570 -255 -655 -111 -295 -180 -438 -305 -625 -262 -393 -608 -624
-1070 -715 -157 -31 -449 -39 -601 -16 -250 37 -423 114 -610 273 -47 40 -70
54 -80 47 -222 -154 -352 -218 -563 -280 -508 -148 -999 24 -1171 410 -55 125
-65 177 -64 361 1 193 19 290 92 489 22 58 38 106 37 106 -2 0 -86 -105 -187
-232 -348 -442 -413 -513 -566 -617 -320 -216 -661 -184 -858 83 -27 36 -49
64 -50 63 -2 -1 -68 -137 -148 -302 l-146 -300 -122 -38 c-162 -49 -193 -56
-323 -71 -173 -20 -310 2 -430 69 -119 68 -212 182 -251 310 -27 89 -25 265 5
367 12 43 297 749 632 1570 336 821 613 1499 616 1506 4 9 -32 12 -159 12
l-164 0 38 417 c21 229 40 418 42 421 7 6 217 59 348 87 217 46 467 44 669 -5
439 -107 693 -414 763 -919 20 -141 20 -329 1 -885 -9 -241 -14 -440 -12 -442
3 -4 1040 1312 1046 1328 2 6 -36 7 -103 2 -67 -4 -106 -3 -106 3 0 16 380
837 393 849 10 10 157 46 337 85 61 13 263 27 325 22 22 -1 78 -5 125 -8z"/>
<path d="M4955 7119 c-44 -5 -125 -19 -179 -32 l-99 -22 -79 -169 c-43 -93
-78 -171 -78 -172 0 -1 42 -4 93 -6 93 -4 155 -25 186 -62 11 -13 -128 -194
-916 -1197 -829 -1055 -928 -1178 -931 -1151 -2 16 11 449 28 960 32 972 32
1066 -4 1239 -66 313 -242 507 -531 585 -68 18 -109 21 -275 22 -170 1 -208
-2 -301 -22 -58 -13 -111 -27 -118 -31 -9 -6 -41 -260 -41 -327 0 -7 35 -14
92 -19 106 -8 185 -34 234 -77 31 -27 34 -34 28 -67 -13 -78 -67 -216 -674
-1701 -345 -844 -632 -1551 -639 -1570 -22 -64 -25 -181 -7 -237 50 -150 190
-212 409 -179 57 8 137 25 178 37 l75 22 72 150 c40 83 70 152 68 155 -3 2
-28 -1 -56 -7 -119 -26 -235 -7 -262 43 -46 85 -26 178 104 502 262 649 772
1903 774 1901 2 -1 -7 -297 -18 -657 -25 -826 -28 -1333 -9 -1410 19 -76 63
-171 101 -218 36 -45 107 -87 163 -95 147 -22 357 96 524 296 95 113 668 837
1212 1530 249 318 455 576 457 574 2 -2 -163 -415 -367 -918 -400 -988 -430
-1067 -454 -1190 -18 -95 -20 -246 -4 -321 38 -182 166 -310 374 -374 84 -26
339 -27 442 -2 252 62 512 211 719 414 l82 79 32 -73 c18 -40 55 -102 82 -137
176 -228 485 -336 868 -306 378 31 658 151 888 380 192 192 318 405 457 771
34 91 153 395 263 675 192 488 332 856 557 1455 57 151 124 329 150 395 26 66
56 144 67 173 l19 52 185 0 184 0 60 121 c34 66 72 145 85 175 l24 54 -890 -2
-890 -3 -80 -167 c-43 -93 -79 -170 -79 -173 0 -3 135 -5 300 -5 174 0 300 -4
300 -9 0 -5 -23 -63 -51 -128 -28 -65 -111 -269 -184 -453 -73 -184 -202 -504
-288 -710 -85 -206 -188 -458 -230 -560 -238 -585 -406 -1002 -454 -1129 -65
-171 -87 -218 -160 -331 -66 -101 -161 -198 -224 -228 -153 -74 -374 -59 -495
33 -36 27 -95 114 -112 162 -12 35 -12 35 58 48 201 37 429 233 557 480 74
143 105 246 110 365 4 90 2 114 -17 170 -53 157 -170 218 -382 198 -194 -18
-402 -156 -534 -356 -96 -143 -173 -328 -198 -475 -12 -69 -19 -84 -53 -119
-80 -84 -240 -179 -346 -208 -75 -20 -179 -9 -222 24 -19 15 -40 37 -47 49
-15 28 -14 103 2 153 7 22 230 579 495 1239 266 660 499 1250 519 1312 78 243
86 431 25 563 -76 166 -238 246 -514 255 -71 2 -166 0 -210 -6z"/>
</g>
</svg>
