<?xml version="1.0" encoding="UTF-8" standalone="no"?>
<svg
   xmlns:dc="http://purl.org/dc/elements/1.1/"
   xmlns:cc="http://creativecommons.org/ns#"
   xmlns:rdf="http://www.w3.org/1999/02/22-rdf-syntax-ns#"
   xmlns:svg="http://www.w3.org/2000/svg"
   xmlns="http://www.w3.org/2000/svg"
   xmlns:sodipodi="http://sodipodi.sourceforge.net/DTD/sodipodi-0.dtd"
   xmlns:inkscape="http://www.inkscape.org/namespaces/inkscape"
   version="1.0"
   width="1647.614"
   height="2171.25"
   viewBox="0 0 1318.0912 1737"
   preserveAspectRatio="xMidYMid meet"
   id="svg2"
   inkscape:version="0.48.5 r10040"
   sodipodi:docname="kan_completo.svg">
  <metadata
     id="metadata162">
    <rdf:RDF>
      <cc:Work
         rdf:about="">
        <dc:format>image/svg+xml</dc:format>
        <dc:type
           rdf:resource="http://purl.org/dc/dcmitype/StillImage" />
      </cc:Work>
    </rdf:RDF>
  </metadata>
  <defs
     id="defs160" />
  <sodipodi:namedview
     pagecolor="#ffffff"
     bordercolor="#666666"
     borderopacity="1"
     objecttolerance="10"
     gridtolerance="10"
     guidetolerance="10"
     inkscape:pageopacity="0"
     inkscape:pageshadow="2"
     inkscape:window-width="1440"
     inkscape:window-height="834"
     id="namedview158"
     showgrid="false"
     fit-margin-top="0"
     fit-margin-left="0"
     fit-margin-right="0"
     fit-margin-bottom="0"
     inkscape:zoom="0.30743065"
     inkscape:cx="401.718"
     inkscape:cy="969.01497"
     inkscape:window-x="0"
     inkscape:window-y="27"
     inkscape:window-maximized="1"
     inkscape:current-layer="svg2" />
  <g
     transform="matrix(0.1,0,0,-0.1,-91.908746,1737)"
     id="g4"
     style="fill:#000000;stroke:none">
    <path
       d="m 9304,17283 c -140,-178 -287,-309 -649,-581 -296,-223 -512,-394 -602,-479 -78,-74 -440,-473 -520,-575 -34,-43 -88,-124 -119,-180 -32,-56 -89,-147 -129,-203 -39,-55 -94,-141 -122,-191 l -51,-90 9,-115 c 5,-63 13,-141 19,-174 17,-100 12,-184 -15,-276 -30,-102 -31,-177 -5,-253 15,-44 18,-67 11,-96 -16,-73 19,-247 96,-468 l 46,-132 -48,-115 c -61,-147 -95,-187 -190,-220 -103,-36 -199,-30 -240,15 -20,23 -56,25 -120,9 -38,-10 -53,-8 -124,16 -62,20 -84,24 -100,16 -11,-6 -43,-11 -71,-11 -58,0 -92,-15 -135,-59 -18,-19 -50,-38 -81,-47 -63,-18 -91,-47 -143,-151 -58,-117 -96,-140 -303,-184 l -140,-30 -37,24 c -50,33 -151,160 -202,253 -39,71 -78,114 -104,114 -20,0 -73,64 -178,216 -151,219 -187,254 -331,326 -67,33 -220,122 -342,198 -121,76 -256,157 -300,181 -43,24 -100,58 -126,77 -57,40 -271,139 -468,215 -113,44 -221,74 -490,138 -209,49 -408,103 -505,136 -182,63 -293,111 -257,112 12,1 22,4 22,9 0,19 -287,162 -495,247 -137,56 -213,99 -290,165 -204,176 -256,209 -322,210 -70,0 -83,-73 -33,-191 16,-38 27,-69 25,-69 -2,0 -41,18 -86,40 -119,57 -179,51 -112,-12 56,-52 266,-167 391,-214 63,-24 152,-32 152,-15 0,12 -53,53 -97,75 -78,39 -233,220 -221,256 2,6 46,-25 98,-70 189,-161 246,-198 475,-310 166,-80 262,-135 390,-221 217,-147 286,-176 543,-230 510,-106 842,-212 1015,-322 80,-51 136,-79 147,-72 16,10 196,-89 318,-174 61,-42 166,-118 233,-169 67,-51 183,-127 257,-169 150,-85 220,-146 316,-277 118,-161 181,-281 169,-327 -11,-40 20,-16 51,40 34,64 33,65 111,-79 69,-126 96,-165 174,-253 58,-65 71,-87 53,-87 -29,0 -111,79 -240,230 -17,19 -34,32 -38,28 -21,-22 53,-160 145,-268 l 46,-54 -47,32 c -51,35 -88,77 -88,99 0,8 -7,13 -17,11 -57,-11 8,-144 110,-228 53,-43 73,-68 63,-77 -2,-3 -36,12 -76,32 -39,21 -74,35 -77,32 -12,-12 26,-53 81,-87 55,-34 67,-55 45,-77 -6,-6 -10,-16 -8,-22 7,-20 77,48 126,122 27,40 75,131 107,202 32,72 63,136 69,143 14,17 67,11 80,-10 8,-11 7,-50 -3,-128 -9,-82 -10,-114 -2,-122 17,-17 22,-8 47,89 l 24,88 -6,-61 c -4,-43 -2,-64 7,-69 18,-11 26,7 56,130 15,60 32,121 39,134 l 12,25 8,-23 c 4,-13 4,-57 0,-97 -7,-74 3,-96 23,-56 11,20 54,150 78,235 18,65 35,78 65,51 24,-22 32,-15 63,61 23,57 26,60 55,57 28,-3 33,1 58,53 15,30 32,54 38,52 14,-5 34,-65 34,-107 1,-19 -8,-80 -18,-135 -11,-55 -16,-104 -12,-108 11,-11 44,36 84,120 29,63 32,76 31,166 l 0,97 38,-37 c 37,-36 39,-37 71,-24 62,25 97,34 104,28 3,-4 -9,-39 -27,-78 -26,-58 -31,-79 -27,-114 8,-53 26,-95 42,-95 14,0 22,18 55,123 22,69 70,137 96,137 8,0 14,-2 14,-4 0,-2 -19,-50 -41,-107 -38,-94 -41,-108 -36,-172 3,-43 10,-74 20,-84 14,-14 16,-11 21,33 16,125 79,247 157,304 35,25 89,41 89,26 0,-3 -27,-60 -61,-128 -76,-156 -88,-228 -43,-273 21,-20 39,-6 55,43 24,76 57,119 129,167 39,25 75,56 79,68 10,25 -5,51 -25,43 -7,-3 8,27 34,67 26,40 72,130 102,200 30,70 56,123 58,118 2,-5 -17,-74 -42,-154 -25,-79 -46,-153 -46,-165 0,-54 37,-8 115,141 22,42 43,77 47,77 13,0 37,-147 43,-264 3,-66 7,-122 9,-124 24,-23 77,143 83,263 9,150 -20,232 -166,472 -113,188 -157,279 -176,368 -8,38 -12,71 -10,73 2,2 18,-23 34,-57 55,-109 87,-64 53,73 -11,45 -42,129 -68,187 l -49,104 17,65 c 15,55 18,105 16,315 -1,294 -1,305 11,305 5,0 12,-17 16,-37 10,-53 32,-103 45,-103 9,0 10,26 5,93 l -6,92 39,80 c 49,98 95,163 126,174 16,7 29,28 45,73 45,126 164,323 210,348 14,7 16,2 12,-36 -6,-82 18,-57 120,122 154,271 334,448 799,787 96,70 225,170 285,222 61,53 148,126 195,163 172,136 229,222 238,357 3,45 1,75 -5,75 -5,0 -41,-39 -79,-87 z M 5887,12568 c -3,-8 -6,-5 -6,6 -1,11 2,17 5,13 3,-3 4,-12 1,-19 z m -10,-40 c -3,-8 -6,-5 -6,6 -1,11 2,17 5,13 3,-3 4,-12 1,-19 z"
       id="path6"
       inkscape:connector-curvature="0" />
    <path
       d="m 9411,17217 c -18,-50 -54,-127 -79,-171 -48,-82 -49,-107 -5,-114 32,-5 68,42 104,136 l 34,87 5,-149 c 3,-95 9,-151 16,-153 6,-2 28,24 49,58 28,46 40,58 46,47 15,-26 -10,-141 -46,-213 -39,-77 -43,-97 -20,-88 12,4 10,-7 -10,-52 -14,-32 -25,-59 -25,-61 0,-1 17,-4 38,-6 35,-3 37,-5 36,-35 -1,-17 -14,-57 -28,-88 -14,-32 -26,-69 -26,-82 0,-22 4,-25 26,-20 36,6 39,-10 13,-74 -39,-99 -40,-106 -24,-318 15,-204 21,-234 89,-483 20,-74 38,-164 41,-215 4,-48 15,-149 25,-223 11,-74 22,-173 26,-220 7,-99 -3,-136 -92,-338 -71,-161 -73,-207 -5,-117 40,54 57,58 37,10 -14,-32 -304,-495 -311,-495 -1,0 19,43 46,95 51,99 60,132 34,118 -8,-5 -61,-71 -118,-149 -58,-77 -132,-165 -166,-196 -33,-31 -61,-61 -61,-65 0,-4 -41,-52 -90,-106 -113,-123 -121,-148 -25,-83 113,77 260,219 338,326 38,52 0,-9 -60,-97 -64,-94 -79,-139 -70,-198 5,-32 1,-38 -69,-100 -41,-37 -77,-78 -80,-91 -7,-27 18,-64 43,-64 32,0 6,-22 -84,-70 -232,-124 -348,-235 -400,-382 -9,-25 -19,-102 -23,-183 l -7,-140 -51,-86 c -37,-61 -57,-110 -71,-168 -25,-109 -61,-166 -138,-218 -67,-44 -135,-68 -225,-79 -67,-8 -88,-18 -71,-35 19,-19 141,-23 213,-6 64,15 64,15 40,-4 -61,-46 -126,-55 -242,-33 -36,6 -38,5 -38,-20 0,-37 16,-63 48,-80 67,-34 176,-26 280,20 30,13 58,24 63,24 15,0 10,-42 -11,-85 -23,-47 -54,-73 -122,-101 -82,-33 -61,-53 55,-55 40,-1 86,-4 102,-8 l 30,-7 -44,-23 c -51,-27 -45,-39 24,-43 l 50,-3 -38,-23 c -45,-26 -41,-40 14,-48 32,-5 37,-9 28,-20 -16,-19 -5,-42 22,-46 24,-3 67,-68 129,-193 21,-44 59,-90 141,-170 126,-124 175,-205 125,-205 -7,0 -41,12 -76,26 -65,26 -90,26 -90,-1 0,-8 42,-60 94,-114 108,-112 176,-210 176,-253 0,-15 -5,-28 -10,-28 -6,0 -42,16 -80,35 -38,19 -74,35 -80,35 -24,0 -6,-53 49,-139 63,-98 97,-179 82,-194 -5,-5 -33,10 -67,37 -54,42 -94,58 -94,38 0,-4 16,-47 36,-95 43,-105 64,-202 62,-282 l -1,-60 -8,80 c -10,93 -39,196 -71,245 -31,49 -34,21 -8,-76 21,-82 38,-214 27,-214 -4,0 -18,23 -32,50 -25,48 -94,135 -102,127 -2,-2 3,-55 12,-117 8,-63 13,-115 11,-117 -2,-2 -16,26 -31,62 -26,61 -50,94 -60,83 -3,-2 2,-40 11,-84 16,-82 25,-337 12,-350 -13,-13 -17,0 -24,77 -7,92 -40,208 -60,216 -24,9 -34,-15 -35,-92 -1,-50 -3,-63 -9,-45 -4,14 -8,42 -9,62 -2,84 -25,90 -40,11 -25,-130 -55,-242 -82,-302 -16,-35 -31,-62 -34,-59 -3,3 0,29 6,59 20,92 0,269 -30,269 -11,0 -34,-53 -81,-190 -22,-63 -38,-104 -35,-90 11,48 18,168 11,186 -10,27 -25,5 -53,-78 -31,-93 -105,-249 -126,-266 -11,-9 -7,7 13,55 29,67 39,133 20,133 -5,0 -28,-28 -52,-62 -59,-87 -115,-146 -163,-170 -22,-11 -59,-36 -82,-55 -24,-19 -43,-32 -43,-28 0,3 5,26 11,51 23,92 -29,71 -77,-31 -13,-27 -24,-55 -24,-62 0,-6 -5,-15 -11,-19 -15,-9 -2,51 22,98 37,74 21,87 -40,33 -71,-65 -87,-27 -20,49 31,35 39,50 31,58 -17,17 -83,-6 -138,-48 l -47,-36 -86,41 c -109,51 -171,67 -200,51 -12,-6 -19,-15 -16,-20 3,-5 47,-32 98,-61 161,-92 279,-230 333,-389 37,-110 20,-279 -36,-356 -70,-97 -470,-266 -470,-200 0,45 107,123 220,161 146,49 190,103 191,233 1,77 -16,132 -74,252 -82,166 -188,240 -358,248 -101,5 -170,-18 -191,-62 -14,-32 -5,-44 18,-25 10,8 -17,-37 -59,-99 -42,-62 -86,-139 -98,-170 -40,-105 -36,-209 12,-260 26,-29 45,-28 53,3 18,72 107,-30 141,-162 39,-150 -3,-344 -105,-479 -55,-73 -221,-180 -220,-142 0,7 7,22 15,32 17,22 19,36 6,36 -5,0 -42,-24 -82,-54 -142,-103 -321,-172 -521,-202 -199,-29 -329,-2 -396,84 -45,56 -62,102 -62,167 0,87 38,141 115,165 62,19 98,52 189,173 46,61 117,150 157,197 39,46 78,99 85,117 33,79 2,296 -57,402 l -31,54 26,86 c 14,47 28,110 32,139 6,44 4,52 -10,52 -9,0 -21,-12 -27,-27 -6,-16 -20,-47 -32,-71 -16,-34 -23,-39 -30,-27 -11,20 -27,10 -27,-18 0,-19 -3,-17 -22,13 l -23,35 -3,-32 c -4,-36 -16,-43 -26,-16 -6,14 -9,14 -27,-5 -17,-19 -31,-22 -90,-22 -39,0 -80,-5 -92,-11 -16,-9 -22,-9 -25,0 -2,6 -9,11 -15,11 -6,0 -18,7 -28,16 -26,23 -46,12 -71,-40 l -22,-46 -21,38 c -25,45 -48,48 -55,7 -4,-24 -7,-26 -12,-12 -4,9 -14,17 -23,17 -8,0 -15,5 -15,10 0,24 -31,7 -49,-27 l -19,-38 -9,35 c -6,22 -15,35 -26,34 -12,-1 -17,12 -22,57 -10,86 -36,74 -50,-23 -4,-28 -11,-45 -17,-42 -6,4 -21,-6 -34,-22 -13,-16 -23,-23 -24,-16 0,6 -9,12 -20,12 -10,0 -35,14 -55,31 -20,18 -38,29 -42,26 -7,-7 2,-21 71,-109 32,-40 39,-53 20,-37 -43,40 -82,56 -152,63 -88,10 -116,21 -109,46 3,12 0,20 -7,20 -38,0 -98,-82 -150,-207 -34,-79 -91,-270 -102,-341 -9,-54 17,-144 71,-253 31,-61 46,-102 44,-123 -1,-17 -2,-83 -2,-146 1,-94 6,-131 28,-205 35,-120 74,-189 109,-193 36,-5 33,12 -13,64 -48,55 -72,135 -79,264 -4,93 9,180 28,180 5,0 30,-13 57,-29 83,-51 183,-78 264,-71 9,1 67,-28 128,-65 123,-73 157,-112 186,-209 26,-86 20,-144 -20,-204 -20,-29 -54,-64 -75,-78 -47,-31 -85,-30 -241,10 -152,38 -246,82 -304,140 -50,50 -51,53 -88,196 -42,162 -44,202 -18,310 18,75 14,93 -15,69 -19,-16 -22,-12 -79,99 -36,68 -48,104 -48,135 0,23 23,114 51,202 28,88 63,199 77,248 20,68 35,98 70,140 24,28 57,72 72,96 47,77 41,177 -12,221 -15,12 -13,15 17,29 36,18 50,57 24,67 -12,5 -5,13 27,34 60,38 74,80 26,80 -10,0 -19,4 -19,9 0,13 31,36 49,36 8,0 17,8 19,18 2,9 -1,17 -7,17 -6,0 -11,16 -11,35 0,19 -4,35 -10,35 -17,0 -11,32 15,80 l 24,45 1,-32 c 0,-43 29,-115 44,-110 6,3 9,11 7,18 -1,8 -6,38 -10,67 -5,30 -14,58 -21,62 -11,7 -10,14 5,37 10,15 26,53 36,83 15,50 20,56 53,64 20,5 36,15 36,23 0,16 -42,17 -58,1 -9,-9 -12,-9 -12,3 0,24 16,40 32,34 24,-9 32,13 14,40 -10,15 -12,26 -6,30 6,3 10,0 10,-8 0,-20 27,-29 40,-14 6,7 23,37 38,67 54,106 114,211 119,207 2,-3 0,-22 -6,-43 -17,-65 -25,-171 -13,-178 14,-9 20,4 82,169 42,112 106,258 86,195 -57,-179 -78,-251 -95,-330 -25,-121 -37,-245 -23,-254 13,-8 24,23 63,164 17,63 51,174 76,246 40,118 47,131 65,126 19,-5 20,-2 13,37 -6,34 -4,41 9,41 20,0 21,12 -14,-159 -38,-189 -54,-316 -41,-339 8,-15 11,-13 21,13 20,52 98,332 111,395 7,39 16,60 26,60 20,0 28,28 13,45 -13,15 -6,35 7,21 4,-4 10,-65 14,-135 7,-133 14,-171 29,-171 24,0 34,59 50,299 1,18 21,-24 35,-74 21,-74 43,-117 55,-110 13,8 12,107 0,160 -5,22 -8,41 -6,42 2,2 33,-11 70,-27 37,-17 71,-28 76,-25 6,4 10,-3 10,-14 0,-22 22,-41 27,-24 7,20 52,-32 47,-53 -4,-14 2,-24 18,-32 21,-11 21,-12 -9,-6 -25,4 -33,2 -33,-9 0,-39 82,-74 145,-63 56,11 43,38 -25,53 -50,10 -52,11 -18,12 30,1 42,8 65,37 15,20 40,51 55,68 26,29 27,30 28,8 l 0,-22 40,20 c 39,20 42,20 137,4 319,-55 659,53 847,268 76,87 136,229 136,321 0,63 -24,105 -131,232 -38,45 -69,87 -69,92 0,5 -12,15 -26,22 -25,11 -26,13 -10,30 11,12 15,27 11,43 -6,22 -17,27 -83,42 -42,10 -124,20 -181,23 -94,5 -102,7 -85,21 10,7 31,18 47,24 38,14 34,36 -8,44 -58,10 -103,-4 -144,-45 -46,-46 -67,-98 -126,-317 -54,-199 -94,-304 -144,-380 -72,-111 -115,-134 -252,-134 l -91,0 4,-25 c 4,-20 2,-23 -12,-15 -9,5 -22,16 -30,24 -22,28 -40,19 -40,-19 0,-32 -3,-35 -29,-35 -19,0 -44,13 -71,35 -45,38 -67,44 -72,20 -2,-11 -14,-5 -45,24 -49,45 -53,66 -23,136 24,56 25,75 5,75 -8,0 -15,3 -15,8 0,20 49,94 101,153 33,37 59,72 59,78 0,17 -60,13 -66,-4 -4,-8 -10,-15 -15,-15 -6,0 -5,9 1,20 6,11 10,26 9,33 -1,6 4,24 11,40 26,52 -8,47 -41,-7 -10,-17 -19,-26 -19,-20 0,6 15,30 33,54 17,24 37,50 44,59 18,23 1,45 -29,38 -14,-4 -42,-20 -63,-37 -20,-16 -41,-28 -45,-25 -4,3 -11,-7 -15,-22 -3,-14 -13,-36 -22,-47 -15,-20 -15,-20 -9,-1 17,49 30,175 19,186 -17,17 -28,5 -48,-48 -25,-68 -35,-74 -19,-12 17,65 19,142 3,137 -6,-2 -22,-28 -35,-58 l -24,-55 7,65 c 9,93 9,103 -3,107 -15,5 -34,-36 -58,-126 -12,-43 -25,-79 -31,-80 -5,-1 -15,21 -20,50 -11,58 -28,72 -46,38 -11,-22 -8,-103 7,-159 5,-22 3,-21 -15,8 -25,39 -65,44 -75,10 -13,-49 -6,-100 21,-146 24,-43 25,-45 5,-28 -20,18 -47,35 -80,52 -7,3 -15,4 -19,1 -13,-13 10,-59 72,-145 102,-143 127,-231 85,-299 -26,-43 -32,-42 -25,5 l 7,37 -27,-32 -26,-32 -46,89 c -47,92 -106,170 -118,158 -4,-4 2,-39 15,-77 27,-85 25,-187 -4,-220 -34,-37 -74,-4 -185,154 -125,176 -205,237 -313,239 -33,1 -57,-3 -56,-9 0,-5 24,-19 52,-29 84,-31 187,-144 259,-283 32,-62 56,-113 53,-113 -2,0 -52,58 -110,129 -130,159 -150,173 -272,181 -82,5 -100,10 -179,51 -58,29 -94,54 -104,72 -9,15 -27,30 -41,33 -52,12 -55,14 -33,29 11,8 47,24 79,36 33,12 63,25 68,30 6,5 -16,32 -53,65 -34,31 -59,59 -56,62 11,11 368,3 404,-9 73,-24 169,-79 252,-144 88,-70 125,-92 135,-82 4,3 -11,28 -33,54 -38,46 -73,103 -73,120 0,4 12,-10 27,-32 44,-64 41,-11 -5,114 -3,8 7,5 26,-9 30,-23 32,-23 51,-6 11,10 23,32 27,50 4,17 9,25 11,19 8,-22 22,-14 39,19 9,18 30,45 45,59 23,22 29,36 29,70 0,38 1,41 13,24 9,-11 16,-14 20,-8 7,10 30,151 41,250 8,65 -9,79 -24,21 -6,-24 -15,-59 -21,-78 -5,-19 -9,-50 -9,-67 0,-18 -4,-33 -10,-33 -5,0 -10,11 -10,24 0,29 -19,44 -30,25 -5,-7 -12,-34 -15,-59 -7,-49 -25,-90 -25,-57 0,33 -19,17 -30,-25 -17,-65 -18,-67 -19,-18 -2,97 -36,83 -51,-20 -10,-72 -15,-81 -24,-45 -4,14 -10,25 -14,25 -9,-1 -62,-84 -62,-99 0,-15 -17,-14 -23,2 -6,18 -37,-10 -37,-34 0,-34 -91,-38 -135,-5 -16,12 -13,16 41,46 73,41 332,297 392,389 37,55 55,111 36,111 -3,0 -27,-17 -53,-39 -66,-55 -162,-121 -176,-121 -7,0 -15,21 -19,50 -13,101 -102,164 -250,176 l -86,7 -75,78 c -73,77 -76,79 -123,79 -90,0 -274,21 -348,40 -120,31 -201,75 -274,149 -59,60 -139,175 -129,186 3,2 26,-9 52,-26 46,-28 77,-37 77,-21 0,19 -71,90 -142,143 -119,88 -207,132 -393,195 -273,92 -683,250 -737,283 -36,23 -61,31 -94,31 -89,0 -162,86 -292,345 -49,99 -138,261 -196,359 -58,99 -106,185 -106,192 0,25 -90,132 -151,180 -124,98 -289,179 -289,144 0,-6 57,-68 127,-138 141,-141 131,-125 325,-497 286,-546 247,-483 366,-595 93,-87 122,-108 217,-155 61,-30 202,-86 315,-125 421,-148 597,-223 701,-299 41,-31 68,-63 103,-121 141,-238 349,-365 704,-430 86,-16 134,-30 158,-47 19,-12 50,-34 69,-47 19,-13 70,-32 112,-41 219,-49 276,-159 144,-278 -86,-77 -205,-118 -412,-142 -206,-23 -246,-50 -212,-141 21,-57 27,-84 16,-84 -21,0 -53,-42 -53,-71 0,-62 47,-116 181,-207 101,-67 105,-74 113,-162 4,-41 18,-148 32,-238 33,-221 32,-228 -11,-253 -19,-12 -38,-32 -41,-45 -3,-13 -16,-26 -27,-30 -30,-9 -37,-22 -37,-69 0,-60 44,-133 142,-235 101,-105 144,-163 170,-232 24,-65 23,-113 -6,-162 -45,-76 -57,-203 -29,-292 l 16,-53 -28,-38 c -16,-21 -43,-55 -61,-75 -51,-58 -84,-131 -116,-262 -16,-67 -47,-184 -70,-261 -52,-182 -50,-221 20,-390 49,-118 50,-122 50,-225 0,-129 41,-303 99,-419 43,-86 82,-118 228,-191 65,-32 111,-45 245,-71 190,-35 246,-58 332,-135 72,-64 128,-92 213,-107 78,-13 189,0 316,38 77,23 94,25 199,19 73,-4 144,-2 194,6 67,10 81,10 93,-3 26,-26 53,-146 53,-235 0,-90 6,-75 -87,-229 -7,-13 -20,-23 -28,-23 -8,0 -74,56 -146,125 -237,228 -284,246 -679,264 l -202,9 -77,49 c -115,72 -214,119 -339,159 -88,28 -115,41 -121,58 -11,28 -103,113 -138,128 -102,42 -216,96 -263,124 -119,71 -282,88 -433,45 -72,-20 -90,-22 -231,-15 -140,6 -159,5 -225,-15 -124,-38 -236,-115 -370,-256 -205,-217 -413,-542 -486,-759 -48,-142 -58,-212 -59,-376 0,-238 34,-370 189,-745 46,-110 92,-227 104,-260 38,-116 60,-262 81,-535 31,-423 53,-561 109,-685 36,-78 77,-124 157,-175 l 64,-40 0,-105 c 0,-201 22,-250 186,-411 74,-73 115,-121 119,-140 33,-142 43,-154 276,-309 374,-248 462,-298 587,-330 l 69,-18 43,-111 c 23,-61 58,-145 77,-186 19,-41 36,-91 37,-110 7,-102 182,-325 276,-350 30,-8 45,-21 70,-60 70,-109 212,-206 315,-217 56,-6 51,-9 114,66 l 28,35 67,-18 c 77,-21 100,-18 197,24 l 70,31 55,-21 c 125,-46 114,-28 180,-294 78,-315 161,-573 285,-888 39,-98 73,-178 77,-178 4,-1 70,-9 147,-19 77,-10 141,-18 142,-17 1,1 -16,42 -39,91 -204,452 -417,1121 -394,1239 10,52 90,270 94,258 9,-28 48,-2 96,63 8,11 -3,-31 -24,-93 -22,-62 -40,-117 -40,-123 0,-22 29,-4 93,58 73,71 73,68 1,-58 -44,-76 -55,-119 -31,-119 7,0 48,25 91,55 44,30 81,53 83,51 2,-2 -23,-52 -56,-112 -63,-113 -95,-184 -85,-184 13,0 54,27 142,93 51,38 95,67 98,64 6,-6 -26,-72 -70,-142 -45,-71 -61,-114 -48,-127 19,-19 51,3 138,95 l 87,92 -27,-53 c -37,-73 -100,-175 -147,-237 -34,-45 -50,-85 -34,-85 3,0 22,9 43,19 135,70 287,241 382,430 44,89 130,331 130,369 0,37 -13,25 -47,-41 -33,-63 -142,-221 -149,-215 -2,2 11,46 27,98 17,52 46,151 65,219 55,203 47,202 -70,-5 -48,-85 -90,-153 -93,-151 -2,3 14,76 36,162 46,176 44,165 32,165 -5,0 -23,-21 -40,-48 -40,-60 -115,-144 -106,-117 40,120 77,281 78,342 1,39 -1,75 -5,79 -4,4 -17,-4 -28,-17 -20,-25 -31,-46 -101,-194 -23,-50 -44,-83 -46,-74 -2,9 10,79 26,155 53,242 44,266 -43,119 -32,-52 -59,-95 -61,-95 -1,0 8,35 21,78 54,172 84,370 58,379 -7,2 -42,-41 -80,-96 -37,-56 -69,-99 -72,-97 -2,3 26,77 62,164 36,88 66,167 66,176 0,8 -8,20 -19,25 -27,15 -51,72 -51,121 0,39 -2,42 -24,36 -40,-10 -51,15 -32,71 27,78 19,105 -19,63 -21,-24 -45,-26 -45,-5 0,9 11,38 25,65 14,27 25,54 25,60 0,18 -30,11 -64,-15 -61,-47 -74,-21 -31,62 14,26 28,63 31,81 6,28 4,32 -15,32 -35,0 -47,40 -33,109 7,31 12,63 12,69 0,19 -27,14 -70,-13 -35,-22 -41,-23 -47,-10 -3,10 4,30 18,48 39,53 89,131 89,139 0,5 -11,8 -25,8 -17,0 -40,-15 -70,-45 l -44,-46 10,33 c 5,18 15,38 22,43 7,6 21,31 31,57 9,26 31,62 47,79 16,17 29,36 29,43 0,6 9,22 20,36 28,36 25,50 -12,50 -26,0 -43,-11 -90,-60 -55,-56 -75,-68 -43,-26 8,11 15,27 15,37 0,9 7,22 15,29 8,7 15,20 15,29 0,24 43,79 58,74 8,-3 12,9 12,41 0,25 -3,46 -7,46 -5,0 -34,-16 -66,-35 -32,-19 -60,-35 -62,-35 -13,0 29,98 64,151 49,74 51,89 12,89 -17,0 -33,5 -36,10 -3,5 3,10 14,10 12,0 21,6 21,13 0,20 52,65 57,49 6,-15 23,-6 23,13 0,22 -29,45 -58,45 -15,0 -60,-16 -100,-35 -40,-19 -72,-33 -72,-31 0,3 29,22 64,45 63,39 134,113 189,193 49,74 32,76 -94,12 -50,-25 -95,-44 -101,-42 -6,2 16,17 48,32 33,16 69,39 81,52 12,13 30,24 40,24 11,0 19,8 20,19 1,11 27,57 58,103 64,97 65,121 7,116 -19,-2 -37,-9 -40,-16 -3,-11 0,-12 18,-2 15,8 20,8 16,1 -10,-16 -127,-94 -132,-88 -3,3 35,52 83,109 94,109 133,165 133,192 0,22 -5,21 -69,-15 -31,-17 -50,-25 -43,-18 6,7 12,21 12,31 0,10 7,18 15,18 10,0 15,10 15,30 0,20 5,30 15,30 8,0 15,9 15,19 0,10 8,29 19,42 17,21 21,22 37,9 16,-14 17,-13 11,3 -4,11 1,38 13,64 11,26 18,49 14,52 -3,3 -32,-9 -64,-27 -32,-17 -64,-32 -70,-32 -7,0 -21,-11 -32,-25 -19,-25 -116,-81 -124,-72 -3,2 15,17 38,32 24,16 89,72 146,124 57,53 112,100 122,105 11,5 20,16 20,25 0,9 9,30 20,46 22,33 27,95 8,95 -6,0 -23,-10 -36,-22 -17,-15 -12,-4 14,32 58,79 84,125 84,144 0,16 -4,15 -35,-4 -19,-12 -39,-19 -44,-16 -5,3 -11,-1 -14,-9 -3,-7 -20,-21 -38,-30 l -32,-17 41,48 c 73,89 182,273 182,309 0,27 -17,16 -107,-67 -84,-78 -137,-118 -157,-118 -17,0 47,61 106,101 110,75 150,163 198,434 11,66 23,130 27,142 3,13 1,23 -4,23 -6,0 -29,-45 -53,-100 -43,-99 -63,-129 -36,-54 7,21 23,86 35,144 12,58 34,151 48,208 14,57 23,106 19,109 -11,12 -44,-29 -81,-99 -20,-38 -38,-68 -40,-66 -7,7 25,137 48,199 29,75 86,191 133,270 60,100 40,122 -30,33 -59,-76 -142,-217 -270,-462 -108,-207 -179,-326 -210,-351 -33,-28 -25,-3 23,72 90,138 230,401 259,487 47,139 119,267 222,394 94,117 110,139 110,153 0,47 -85,-31 -245,-223 -81,-99 -152,-183 -157,-189 -5,-5 3,17 17,50 50,112 111,191 324,419 106,114 138,161 91,136 -26,-14 -119,-94 -290,-250 -196,-179 -194,-176 -184,-159 10,17 163,162 281,267 83,74 146,159 141,191 -3,20 -10,16 -83,-40 -44,-33 -89,-65 -100,-71 -39,-19 102,104 231,201 72,55 134,107 138,116 12,32 7,38 -29,32 -19,-3 -35,-4 -35,-2 0,2 29,20 65,40 36,20 65,41 65,47 0,11 -100,6 -135,-7 -11,-4 -4,3 15,15 19,11 49,36 65,54 20,23 55,43 105,61 277,102 396,267 360,500 -7,45 -10,95 -6,109 17,67 147,170 269,213 39,14 91,32 114,40 23,8 58,27 78,43 23,18 54,31 83,35 75,10 129,34 195,86 67,55 73,57 169,62 89,4 143,40 173,112 11,28 23,52 28,53 4,2 7,20 7,41 0,40 23,81 46,81 40,0 -2,-138 -57,-184 -29,-25 -38,-46 -19,-46 6,0 10,-18 10,-40 0,-22 5,-40 10,-40 6,0 25,20 43,46 17,25 33,40 35,34 9,-27 -23,-135 -48,-164 -29,-33 -60,-88 -60,-106 0,-19 18,-10 76,37 32,26 55,41 52,33 -3,-8 -35,-62 -72,-119 -60,-94 -79,-141 -58,-141 4,0 27,16 51,35 24,19 46,35 48,35 6,0 -28,-61 -94,-169 -110,-177 -105,-194 19,-73 89,86 89,87 0,-86 -61,-120 -65,-156 -11,-102 19,19 61,64 93,100 47,53 53,58 34,25 -37,-61 -138,-283 -145,-319 l -6,-31 23,20 c 26,23 193,245 269,358 53,79 121,211 121,234 0,33 -54,-7 -131,-97 l -21,-25 20,35 c 11,19 31,56 46,81 26,46 76,165 76,181 0,23 -30,1 -75,-53 -27,-33 -56,-65 -63,-71 -15,-13 -10,2 38,107 47,102 79,196 86,249 7,46 -1,57 -24,34 -18,-18 -16,10 3,46 8,15 15,52 15,82 0,29 5,56 10,59 13,8 13,45 1,45 -13,0 -44,-47 -61,-90 -18,-48 -35,-64 -26,-25 18,77 28,105 36,105 6,0 10,12 10,26 0,14 5,34 10,45 8,15 6,26 -12,50 l -23,31 -43,-89 c -23,-48 -40,-79 -38,-68 3,11 7,56 11,99 4,44 13,100 21,125 8,25 14,71 14,101 0,30 5,71 10,90 14,49 14,137 0,202 -10,45 -10,60 1,83 8,16 20,30 26,33 23,7 224,-208 283,-303 63,-102 109,-228 110,-299 l 0,-49 -70,6 c -38,3 -70,3 -70,-1 0,-4 54,-61 121,-127 120,-119 158,-174 159,-227 0,-16 -2,-28 -5,-28 -2,0 -28,9 -56,21 -29,11 -64,19 -78,17 -39,-5 -30,-35 39,-138 123,-183 179,-334 136,-369 -14,-12 -25,-10 -77,13 -60,26 -89,32 -89,19 0,-4 18,-43 39,-88 48,-96 67,-170 120,-460 65,-352 132,-558 229,-700 56,-81 103,-119 249,-201 127,-71 161,-97 214,-163 23,-28 48,-51 57,-51 32,0 -33,-51 -123,-96 -80,-40 -95,-45 -134,-39 l -44,7 22,-28 c 12,-15 20,-28 19,-30 -2,-1 -31,7 -65,18 -70,23 -104,19 -82,-9 10,-13 5,-11 -22,5 -47,28 -69,28 -69,0 -1,-21 -4,-19 -33,15 -37,43 -43,45 -51,15 -8,-34 29,-102 72,-131 82,-55 109,-39 50,30 -22,25 -24,31 -7,16 13,-12 56,-35 94,-51 66,-26 70,-30 68,-57 -4,-47 -21,-71 -85,-115 -136,-96 -163,-177 -40,-124 20,9 68,27 106,40 38,13 75,29 83,35 7,7 34,51 58,98 66,129 123,181 213,196 36,6 61,22 140,94 103,92 153,127 201,141 46,13 67,2 84,-41 l 15,-39 59,6 c 84,7 104,-6 119,-81 16,-76 39,-97 152,-131 227,-67 267,-88 300,-154 9,-19 74,-87 144,-150 210,-192 418,-302 928,-495 238,-90 373,-177 491,-316 78,-91 151,-220 135,-236 -11,-11 -85,67 -172,184 -150,199 -286,287 -554,358 -165,44 -339,115 -506,207 -259,142 -252,139 -240,101 3,-11 46,-41 94,-68 48,-26 125,-74 172,-105 120,-80 237,-145 295,-165 28,-9 102,-44 165,-77 63,-34 144,-72 180,-84 97,-34 55,-29 -57,7 -198,63 -510,205 -560,255 -40,40 -95,25 -57,-17 10,-11 73,-60 141,-110 168,-123 355,-206 608,-270 234,-59 279,-95 347,-272 43,-115 41,-107 28,-107 -6,0 -15,11 -20,25 -5,14 -31,46 -57,72 -27,25 -40,40 -30,33 29,-21 30,-5 3,48 -60,119 -124,155 -355,201 -163,33 -211,37 -211,21 0,-18 54,-44 185,-90 112,-40 123,-45 91,-48 -66,-6 -41,-32 97,-101 70,-35 127,-65 125,-66 -2,-2 -25,2 -52,8 -43,10 -50,9 -62,-8 -19,-25 -18,-35 4,-35 23,0 140,-56 227,-110 161,-99 279,-142 287,-105 2,12 27,4 117,-34 115,-50 140,-65 128,-77 -4,-4 -55,-17 -113,-30 -104,-23 -166,-49 -168,-69 -2,-18 61,-16 180,5 64,11 118,19 121,17 2,-2 -28,-21 -66,-41 -94,-49 -128,-80 -142,-126 -18,-58 8,-115 92,-205 38,-41 69,-77 69,-79 0,-3 -33,10 -73,29 -89,41 -123,50 -132,35 -11,-18 10,-35 113,-89 53,-28 108,-60 122,-71 l 25,-20 -30,11 c -75,27 -155,39 -195,30 -81,-18 -69,-29 76,-65 163,-40 259,-96 167,-96 -45,0 -139,-26 -148,-40 -3,-5 10,-58 29,-117 34,-107 62,-254 54,-289 -3,-13 -14,0 -37,46 -19,36 -51,91 -72,122 -22,31 -39,64 -39,72 0,9 -7,16 -15,16 -8,0 -44,27 -81,60 -100,88 -154,109 -154,58 0,-17 -7,-13 -39,23 -31,35 -42,41 -52,32 -12,-12 -8,-36 18,-112 3,-9 -17,6 -45,33 -34,33 -56,47 -67,42 -12,-4 -14,-12 -9,-28 4,-16 -11,-4 -49,35 -79,81 -112,75 -66,-14 18,-37 18,-39 2,-30 -10,5 -43,30 -73,55 -59,49 -100,68 -120,56 -18,-11 -6,-51 27,-92 24,-29 22,-29 -18,8 -98,91 -224,175 -282,188 -54,13 -26,-26 71,-98 99,-73 116,-97 35,-47 -54,33 -100,44 -96,24 5,-24 -16,-13 -74,38 -72,64 -112,89 -140,89 -30,0 -30,-24 2,-75 42,-69 28,-62 -63,28 -123,123 -132,117 -48,-36 29,-53 51,-97 47,-97 -19,0 -118,124 -150,187 -12,24 -28,43 -36,43 -29,0 -15,-59 35,-157 66,-129 27,-86 -70,76 -68,114 -72,124 -90,231 -24,141 -29,157 -97,308 -44,96 -53,125 -44,136 7,8 47,22 89,31 42,9 145,40 227,67 120,41 167,52 238,56 114,6 162,-4 435,-92 230,-75 289,-90 375,-100 42,-5 47,-4 47,14 0,15 -25,31 -107,71 -169,80 -238,116 -383,197 -280,158 -379,167 -708,62 -109,-35 -118,-36 -125,-10 -3,12 -14,20 -26,20 -15,0 -22,-9 -27,-35 -8,-44 -18,-38 -34,20 -20,73 -59,85 -60,18 0,-12 -5,-34 -11,-50 -10,-26 -13,-21 -33,70 -25,110 -40,135 -55,94 -6,-14 -13,-49 -17,-76 -7,-57 -29,-97 -38,-71 -3,8 -12,52 -20,97 -16,88 -48,173 -65,173 -6,0 -11,-20 -11,-44 0,-60 -11,-136 -20,-136 -4,0 -17,26 -29,58 -33,87 -66,147 -84,150 -23,5 -22,-13 8,-105 13,-42 23,-79 21,-80 -4,-5 -46,59 -96,145 -39,69 -63,93 -77,78 -4,-4 -2,-21 5,-39 l 12,-32 -33,36 c -17,20 -54,62 -80,93 -27,31 -55,56 -63,56 -19,0 -19,0 22,-83 l 35,-72 -33,36 c -18,20 -46,58 -63,85 -30,48 -65,70 -65,41 0,-9 9,-36 20,-62 23,-53 26,-87 8,-80 -7,3 -35,39 -63,80 -51,77 -83,106 -71,63 4,-13 10,-47 13,-77 8,-67 -7,-66 -54,2 -34,51 -37,51 -47,-4 -3,-20 -15,-44 -25,-53 -17,-15 -18,-14 -29,23 -12,38 -34,57 -53,45 -5,-3 -9,-25 -9,-50 0,-42 -2,-46 -47,-74 -26,-17 -52,-29 -58,-27 -5,2 -30,32 -55,68 -60,86 -200,223 -265,260 -59,33 -60,39 -18,95 21,28 32,74 17,74 -4,0 -21,-9 -40,-20 -53,-33 -49,-5 6,35 60,44 65,65 14,65 l -36,0 24,28 c 13,16 44,46 71,67 64,52 64,77 0,55 -24,-8 -25,-8 -9,3 148,95 171,117 121,117 -55,0 -213,-48 -294,-90 -21,-10 -50,-33 -65,-50 -26,-32 -35,-80 -15,-80 6,0 -16,-29 -50,-65 -33,-36 -61,-70 -61,-75 0,-6 -8,-10 -18,-10 -26,0 -431,115 -644,183 -218,70 -339,91 -463,83 -142,-10 -236,-39 -535,-166 -80,-34 -271,-104 -425,-156 -515,-173 -582,-225 -755,-588 -90,-188 -120,-276 -127,-365 -6,-70 -4,-78 28,-142 33,-66 35,-69 68,-66 78,5 61,-66 -50,-213 -39,-51 -75,-105 -81,-119 -46,-116 -170,-768 -184,-971 -17,-251 53,-496 262,-910 281,-558 569,-994 829,-1256 102,-103 131,-127 195,-157 90,-43 405,-153 547,-192 60,-17 113,-38 129,-52 34,-29 39,-29 76,2 44,37 64,32 33,-9 -8,-11 -15,-32 -15,-48 0,-23 4,-28 24,-28 14,0 39,12 57,28 32,26 33,26 16,2 -49,-70 13,-68 107,4 39,29 82,59 95,66 l 24,13 -22,-29 c -18,-24 -20,-30 -8,-42 12,-11 20,-11 51,2 20,8 56,31 79,49 67,54 71,55 64,18 -10,-46 15,-51 69,-12 52,36 58,38 44,12 -7,-14 -7,-22 0,-26 22,-14 69,8 136,61 71,58 124,90 124,77 -1,-5 -7,-19 -15,-33 -41,-72 -4,-65 86,17 41,37 85,76 98,87 l 24,21 -17,-33 c -18,-36 -18,-73 0,-79 19,-6 80,66 129,155 26,46 48,82 51,80 2,-2 -12,-45 -31,-96 -36,-95 -45,-157 -22,-150 32,11 101,130 258,443 93,187 179,351 190,365 l 20,25 -15,-40 c -9,-22 -22,-69 -30,-106 -25,-112 -149,-392 -241,-544 -104,-173 -112,-192 -97,-207 10,-10 25,1 69,47 66,70 158,191 175,232 7,15 20,40 30,55 11,15 27,51 37,80 22,61 97,231 142,320 35,69 120,200 126,194 6,-6 -117,-346 -149,-409 -27,-54 -89,-156 -232,-381 -60,-95 -69,-126 -36,-126 94,0 384,463 531,847 23,62 45,111 47,109 6,-7 -38,-175 -75,-279 -47,-137 -101,-251 -188,-398 -76,-127 -93,-179 -57,-179 72,0 275,360 438,772 31,82 59,146 61,144 8,-8 -40,-213 -68,-290 -16,-44 -67,-150 -115,-237 -47,-87 -83,-163 -79,-169 14,-23 51,-8 97,40 40,41 73,101 186,333 76,155 148,302 160,327 22,44 22,45 16,10 -12,-70 -68,-240 -145,-437 -44,-111 -79,-209 -79,-217 0,-18 23,-21 51,-6 31,17 61,73 179,336 104,230 170,367 155,319 -4,-11 -11,-45 -17,-75 -12,-69 -64,-207 -139,-377 -63,-140 -72,-183 -40,-183 38,0 154,165 182,259 22,73 180,362 187,341 5,-15 -52,-183 -105,-310 -92,-219 -104,-252 -101,-278 2,-18 10,-28 23,-30 24,-3 64,47 131,165 23,39 61,96 86,125 25,29 57,73 72,98 17,28 25,35 21,20 -15,-54 -46,-112 -113,-211 -94,-139 -99,-151 -78,-184 34,-52 65,-32 166,109 44,62 95,126 112,142 l 31,29 -20,-35 c -98,-166 -193,-352 -193,-375 0,-28 36,-15 77,28 67,68 202,255 286,394 56,93 100,185 157,328 43,110 77,202 74,204 -5,6 -70,-59 -207,-207 -55,-59 -65,-67 -53,-40 8,18 48,111 91,207 86,197 88,233 8,140 -68,-77 -153,-161 -191,-187 l -32,-23 11,28 c 6,15 24,63 40,106 29,78 149,369 190,462 l 22,49 34,-69 35,-69 -26,-86 c -14,-48 -26,-92 -26,-98 0,-19 24,-14 71,13 75,43 79,39 79,-70 0,-111 12,-126 59,-80 l 29,27 24,-34 c 130,-178 269,-357 367,-470 7,-8 181,147 181,161 0,3 -32,45 -70,91 -155,187 -381,516 -505,735 -138,245 -195,362 -195,400 0,25 20,78 59,161 67,140 84,155 185,173 159,29 335,43 461,38 109,-5 161,-13 320,-52 309,-75 349,-78 398,-29 14,14 36,55 47,90 12,35 27,64 35,64 7,0 45,-29 85,-65 40,-36 81,-65 92,-65 31,0 75,37 104,86 39,66 64,155 80,289 8,66 21,131 27,144 9,18 32,31 92,51 153,51 245,118 245,178 0,41 -22,66 -231,254 -99,88 -179,161 -179,163 0,2 40,49 89,105 104,119 151,199 151,259 0,64 -19,77 -210,136 -69,22 -295,110 -309,121 -2,2 6,15 18,30 27,34 27,92 2,167 -21,59 -76,152 -105,176 -9,8 -36,46 -58,85 -96,163 -264,276 -683,456 -292,126 -491,231 -614,324 -29,23 -72,54 -95,70 -90,64 -126,99 -170,166 -25,38 -58,76 -74,84 -15,8 -63,19 -107,26 -194,29 -267,75 -298,187 -10,34 -24,64 -33,67 -9,3 -39,6 -67,7 -68,0 -120,19 -127,44 -10,39 -27,56 -69,71 -49,17 -79,13 -200,-24 l -84,-25 -36,40 c -32,37 -49,45 -161,81 -145,46 -214,83 -288,155 -139,136 -227,347 -347,824 -25,100 -45,191 -45,201 0,11 12,46 27,78 36,77 36,174 3,289 -19,63 -24,106 -25,205 -1,121 -3,130 -48,270 -28,85 -54,188 -62,248 -18,125 -43,201 -99,308 -73,137 -215,311 -335,409 -72,59 -82,81 -147,301 -58,200 -87,258 -191,390 -101,126 -146,199 -200,319 -58,129 -129,321 -144,387 -12,58 -12,59 26,139 35,74 38,90 46,207 8,119 11,132 48,207 53,110 61,143 61,271 0,147 15,192 90,264 40,38 102,79 204,135 218,119 259,169 206,250 -11,17 -20,33 -20,38 0,4 28,34 61,67 54,51 61,62 55,86 -20,79 -23,72 85,209 250,317 393,595 387,752 -2,60 2,77 35,150 l 38,82 -5,203 c -4,229 -19,315 -101,594 -46,155 -123,518 -126,589 -2,68 11,315 23,421 8,74 8,110 -1,135 -9,29 -7,44 14,104 19,54 25,90 25,159 0,122 -21,194 -75,254 -23,26 -54,70 -68,98 -33,65 -74,114 -95,114 -12,0 -27,-27 -51,-93 z M 7028,11411 c 74,-39 181,-173 245,-309 60,-125 39,-233 -66,-348 -131,-143 -390,-222 -692,-211 -228,8 -243,27 -107,135 48,39 97,83 108,99 36,48 83,149 124,263 71,198 135,305 216,358 57,38 115,42 172,13 z m -2262,-593 c 57,-50 74,-83 63,-123 -18,-65 25,-182 88,-242 38,-36 34,-38 -53,-22 -113,21 -148,60 -184,211 -44,182 -6,257 86,176 z m -187,-112 c 26,-59 48,-175 62,-328 9,-97 15,-128 26,-128 16,0 33,40 33,80 0,37 15,46 45,26 19,-13 23,-22 19,-44 -3,-16 1,-45 10,-67 16,-37 16,-38 -2,-22 -24,22 -52,22 -52,1 0,-9 -25,-40 -55,-69 -78,-75 -75,-100 33,-272 l 51,-82 -92,93 c -50,51 -105,103 -121,114 -23,18 -26,25 -17,36 16,19 1,49 -35,72 l -25,17 23,24 c 13,14 40,34 60,44 21,10 43,29 49,42 20,36 13,207 -16,352 -14,72 -25,136 -25,143 0,23 11,12 29,-32 z m 1031,15 c 17,-5 21,-9 12,-15 -24,-15 -11,-26 30,-26 38,0 40,-1 23,-14 -17,-12 -18,-17 -7,-40 19,-41 14,-55 -7,-20 -23,37 -76,62 -100,47 -9,-5 -20,-23 -26,-39 -9,-27 -25,-47 -32,-40 -2,2 4,20 12,41 23,54 14,70 -26,50 -32,-17 -59,-14 -59,7 0,9 3,9 12,0 17,-17 28,-15 28,6 0,12 14,23 43,34 46,18 60,19 97,9 z m 110,-67 c 0,-8 -4,-12 -10,-9 -5,3 -10,10 -10,16 0,5 5,9 10,9 6,0 10,-7 10,-16 z m -270,-41 c 0,-10 -20,-40 -20,-31 0,3 -3,13 -6,22 -4,11 -1,16 10,16 9,0 16,-3 16,-7 z m 149,-55 c -17,-31 -23,-9 -8,28 9,22 13,25 16,12 2,-9 -1,-27 -8,-40 z m -99,-28 c 0,-16 -4,-30 -8,-30 -5,0 -7,14 -4,30 2,17 6,30 8,30 2,0 4,-13 4,-30 z m -160,7 c 0,-2 -15,-18 -34,-36 -20,-19 -36,-28 -40,-22 -4,5 10,21 31,35 37,26 43,29 43,23 z m -378,-173 c 53,-6 59,-8 38,-16 -63,-24 -276,31 -293,75 -4,11 22,5 94,-19 54,-18 127,-36 161,-40 z m 157,-87 c -6,-22 -16,-37 -25,-37 -17,0 -17,1 11,47 24,39 27,37 14,-10 z m -49,-62 c 0,-8 -4,-15 -10,-15 -5,0 -7,7 -4,15 4,8 8,15 10,15 2,0 4,-7 4,-15 z m 20,-34 c 0,-5 -7,-26 -16,-47 -15,-34 -18,-37 -25,-19 -11,30 -11,35 6,35 8,0 15,9 15,20 0,11 5,20 10,20 6,0 10,-4 10,-9 z m -64,-30 c 0,-10 -13,-25 -28,-34 l -29,-16 27,34 c 14,19 27,35 28,35 1,0 2,-8 2,-19 z M 7097,9002 c 12,-18 30,-54 39,-79 l 18,-45 -25,-19 c -13,-10 -43,-29 -66,-41 -42,-22 -42,-22 -63,-3 -31,28 -60,89 -60,125 0,21 9,39 28,57 56,52 96,54 129,5 z m -175,-162 c 10,-14 21,-42 25,-63 5,-33 2,-41 -31,-72 -21,-19 -43,-35 -51,-35 -15,0 -55,63 -55,89 0,9 14,39 30,65 34,52 52,56 82,16 z m -1022,-30 c 8,-5 12,-11 10,-13 -7,-6 -140,-35 -140,-30 0,4 101,53 110,53 3,0 12,-4 20,-10 z m 1322,-67 c 48,-46 80,-99 76,-129 -6,-55 -116,-97 -158,-59 -24,22 -83,162 -76,180 3,8 22,23 43,33 43,23 71,17 115,-25 z m -1452,-78 c -6,-8 -9,-22 -6,-33 8,-23 -57,-135 -89,-156 -13,-9 -28,-31 -35,-51 -6,-19 -18,-35 -26,-35 -8,0 -14,-7 -14,-15 0,-8 -9,-15 -19,-15 -11,0 -27,-3 -37,-7 -14,-5 -11,2 9,29 15,19 27,40 27,46 0,18 -29,14 -63,-9 -19,-12 -10,-1 21,28 28,26 52,51 52,56 0,4 -12,7 -27,7 -24,0 -21,4 33,46 58,46 173,124 182,124 2,0 -1,-7 -8,-15 z m 1273,-54 c 36,-72 35,-118 -2,-165 l -30,-37 -24,43 c -49,85 -77,143 -77,159 0,17 25,42 50,52 36,14 55,1 83,-52 z m -2240,-97 c 72,-37 207,-114 207,-119 0,-10 -91,21 -146,50 -49,26 -78,35 -115,35 -63,0 -67,-23 -7,-49 l 42,-17 -32,-24 c -42,-31 -40,-40 6,-40 51,0 72,-14 44,-29 -11,-6 -28,-18 -37,-27 -19,-20 -16,-23 -62,61 -21,37 -42,69 -48,69 -5,1 -11,-15 -13,-35 -2,-26 8,-57 37,-113 22,-43 34,-73 27,-66 -8,6 -37,56 -65,111 -57,112 -57,108 6,187 43,53 61,53 156,6 z m 2408,-32 c 22,2 39,2 39,1 0,-2 -36,-21 -79,-43 -44,-22 -82,-44 -86,-50 -3,-5 -13,-10 -21,-10 -11,0 -9,8 9,33 14,17 28,47 32,64 l 7,33 30,-16 c 18,-9 47,-14 69,-12 z M 5030,8370 c 0,-5 -8,-10 -17,-10 -15,0 -16,2 -3,10 19,12 20,12 20,0 z m -240,-120 c 0,-5 -2,-10 -4,-10 -3,0 -8,5 -11,10 -3,6 -1,10 4,10 6,0 11,-4 11,-10 z m 60,0 c 13,-9 13,-10 0,-10 -8,0 -22,5 -30,10 -13,9 -13,10 0,10 8,0 22,-5 30,-10 z m 2290,-335 c 0,-2 -10,-9 -22,-15 -22,-11 -22,-10 -4,4 21,17 26,19 26,11 z m -538,-376 c -7,-81 -81,-182 -167,-226 -28,-15 -27,-14 8,19 20,20 37,40 37,47 0,17 -26,13 -41,-6 -16,-18 -149,-83 -173,-83 -8,0 -27,-5 -42,-10 -38,-15 -16,-35 33,-32 57,4 35,-6 -53,-24 -120,-25 -246,-16 -353,26 -92,36 -150,37 -225,6 -54,-23 -36,-36 47,-34 74,1 121,-13 115,-35 -7,-22 -83,-51 -145,-55 -88,-6 -155,19 -215,79 -26,26 -48,56 -48,66 0,23 24,58 79,118 l 44,48 81,-13 c 262,-41 492,-23 662,51 52,23 332,98 349,94 6,-1 9,-17 7,-36 z M 4280,7324 c 7,-7 -2,-44 -31,-125 -42,-115 -60,-242 -45,-302 6,-26 42,-45 56,-30 5,4 20,66 35,137 42,205 62,236 150,236 114,0 179,-91 205,-285 5,-38 10,-98 10,-132 0,-65 15,-89 34,-57 6,10 27,62 48,115 20,54 41,107 48,118 l 11,22 29,-21 c 46,-32 72,-89 140,-292 62,-188 80,-222 103,-199 18,18 11,77 -22,183 -35,114 -45,163 -38,182 5,12 14,12 64,-3 115,-35 207,-95 309,-203 117,-122 191,-255 330,-588 42,-102 85,-203 96,-224 31,-60 87,-220 114,-326 39,-152 65,-342 71,-525 16,-474 -101,-880 -311,-1073 -98,-90 -284,-191 -354,-192 -29,0 -33,3 -27,21 10,30 11,132 2,147 -13,20 -25,6 -62,-73 -36,-75 -73,-115 -106,-115 -29,0 -58,39 -65,89 -11,80 -29,144 -41,149 -9,2 -13,-9 -13,-36 0,-94 -65,-208 -132,-231 -30,-11 -33,-9 -72,32 -23,23 -70,98 -106,166 -73,140 -133,216 -150,191 -11,-16 -6,-57 17,-139 21,-75 20,-160 -1,-194 -54,-81 -161,-24 -281,151 -72,105 -91,123 -102,96 -10,-27 145,-302 197,-349 11,-10 20,-22 20,-27 0,-14 -118,-9 -183,8 -80,21 -121,43 -194,103 -67,56 -83,62 -83,31 0,-76 144,-199 284,-242 79,-24 73,-38 -15,-38 -103,0 -247,57 -405,160 -42,27 -93,54 -113,59 -20,6 -90,23 -156,39 -66,16 -141,39 -167,52 -90,42 -147,130 -202,310 -42,139 -56,251 -66,512 -15,392 -35,483 -190,843 -133,308 -180,473 -180,626 0,112 9,165 52,299 125,394 298,670 505,804 70,45 216,110 233,104 5,-2 -27,-50 -71,-108 -43,-57 -88,-124 -99,-148 -22,-47 -40,-126 -40,-176 l 1,-31 41,45 c 269,296 325,344 472,416 90,44 133,55 123,32 -3,-7 -21,-50 -41,-95 -37,-86 -56,-168 -56,-240 0,-24 5,-43 11,-43 10,0 18,16 63,136 36,97 113,222 150,246 25,15 46,18 108,16 42,-2 82,-8 88,-14 z m 2106,-39 c -11,-8 -25,-15 -30,-15 -6,1 0,7 14,15 32,19 40,18 16,0 z m -666,-502 c 107,-21 160,-46 160,-75 0,-44 -20,-264 -30,-332 -10,-64 -35,-126 -51,-126 -17,0 -17,52 -1,92 17,40 18,52 6,160 -18,164 -25,175 -133,189 -39,4 -88,17 -110,28 -43,22 -84,68 -75,83 7,12 130,2 234,-19 z m 352,-230 c 28,-28 48,-56 48,-69 0,-14 -20,-38 -55,-69 -70,-60 -105,-125 -105,-198 0,-106 53,-105 226,4 34,22 64,39 68,39 29,0 -149,-188 -226,-240 -68,-45 -87,-49 -95,-20 -3,11 -9,20 -13,20 -5,0 -25,15 -44,34 -41,38 -46,69 -16,101 28,30 64,133 100,286 18,74 34,140 36,147 6,22 28,13 76,-35 z m 538,-270 c -96,-164 -110,-179 -110,-116 0,31 9,45 58,95 33,32 62,58 66,58 5,0 -2,-17 -14,-37 z m 171,0 c -12,-20 -14,-14 -5,12 4,9 9,14 11,11 3,-2 0,-13 -6,-23 z m 2146,-121 c 8,-34 10,-139 1,-147 -3,-3 -25,6 -49,21 -24,15 -62,29 -85,32 -37,4 -44,1 -60,-23 -16,-24 -16,-34 -6,-84 11,-50 10,-57 -5,-69 -24,-17 -35,-11 -47,26 -18,53 -48,75 -109,80 -66,5 -116,-10 -157,-48 -42,-39 -40,-72 10,-131 58,-69 68,-94 45,-119 -43,-47 -121,-14 -217,93 -84,93 -138,123 -195,108 -47,-13 -75,-42 -138,-144 -61,-100 -118,-151 -160,-142 -88,18 -97,18 -127,-5 -27,-20 -31,-20 -53,-6 -36,24 -49,20 -112,-32 -81,-67 -79,-67 -103,-27 -32,52 -41,93 -29,137 12,45 36,59 131,77 62,12 73,11 137,-8 105,-32 150,-35 191,-14 40,21 60,54 60,100 0,40 7,43 135,77 55,14 134,38 175,54 l 75,29 25,-33 c 14,-18 27,-33 31,-34 3,0 15,20 27,45 26,54 86,100 160,121 63,19 95,13 128,-23 35,-37 54,-25 54,36 0,55 0,55 83,67 45,6 51,4 82,-26 37,-36 55,-33 55,9 0,15 3,30 6,34 12,11 34,-6 41,-31 z m 145,-29 c 2,-32 -3,-68 -12,-77 -10,-10 -25,58 -16,79 7,21 26,19 28,-2 z m 816,-42 c -26,-34 -36,-37 -44,-16 -9,22 14,45 43,45 l 25,0 -24,-29 z m -3635,-43 c -46,-85 -139,-168 -190,-168 -33,0 -38,19 -12,47 40,42 211,173 226,173 2,0 -8,-24 -24,-52 z m 3065,-4 c 38,-15 39,-24 10,-75 l -21,-38 -31,16 c -55,27 -96,63 -96,84 0,39 61,45 138,13 z M 6440,5870 c 0,-124 -30,-208 -95,-270 -43,-40 -43,-42 13,70 48,96 62,169 56,295 l -4,80 15,-50 c 8,-27 15,-84 15,-125 z m 3090,125 c 0,-11 -65,-63 -72,-59 -12,8 -9,39 4,52 12,12 68,17 68,7 z m 228,-46 c 123,-32 265,-114 371,-213 64,-61 280,-299 340,-376 24,-30 83,-100 132,-155 49,-55 116,-136 149,-180 142,-189 288,-559 346,-875 22,-121 30,-377 14,-467 -11,-66 -23,-93 -36,-80 -11,11 -35,181 -35,257 -1,58 -8,103 -21,140 -12,34 -17,66 -13,86 4,25 -1,43 -25,82 -17,27 -49,108 -70,180 -49,167 -103,289 -190,432 -68,112 -70,117 -70,181 0,59 -3,69 -27,94 -16,15 -58,41 -96,58 -47,21 -69,36 -72,51 -2,12 -8,49 -14,84 -16,101 -58,149 -144,167 -36,7 -111,76 -142,129 -13,23 -26,60 -30,83 -10,62 -43,105 -93,123 -39,13 -47,13 -90,-3 -78,-30 -76,-31 -82,56 -3,53 -10,81 -19,87 -16,9 -64,-7 -103,-35 -46,-31 -108,-6 -108,45 0,8 -7,28 -15,44 -8,15 -15,30 -15,32 0,7 82,-7 158,-27 z M 6308,5847 c 5,-37 -33,-103 -92,-163 -57,-56 -133,-101 -147,-87 -17,17 46,116 127,201 83,87 106,97 112,49 z m 2984,-31 c 519,-148 786,-344 806,-592 4,-51 2,-64 -9,-64 -17,0 -75,47 -202,163 -177,162 -344,268 -477,302 -46,12 -91,16 -155,13 -102,-5 -165,-27 -255,-90 -30,-21 -79,-52 -107,-69 -53,-31 -65,-53 -41,-77 8,-8 4,-14 -18,-23 -24,-9 -54,-7 -164,11 -219,38 -310,49 -405,49 -180,1 -313,-47 -419,-153 -79,-77 -101,-111 -217,-324 -124,-228 -170,-284 -331,-392 -174,-118 -204,-143 -249,-213 -52,-80 -71,-148 -115,-407 -32,-184 -38,-238 -38,-375 -1,-142 2,-172 26,-267 33,-131 83,-266 153,-414 94,-201 291,-539 396,-681 37,-50 77,-109 88,-131 48,-95 392,-394 605,-527 129,-80 292,-125 455,-125 98,0 146,12 162,42 13,24 8,29 -116,100 -140,80 -175,114 -175,171 0,44 34,51 153,32 109,-17 152,-13 167,15 22,40 -13,81 -141,169 -42,29 -85,61 -95,72 -18,20 -18,21 15,51 31,28 39,30 86,25 30,-3 97,-25 157,-51 58,-25 119,-46 135,-46 74,0 90,66 31,128 -68,70 -107,184 -73,212 14,12 29,10 103,-9 48,-13 123,-25 167,-28 121,-8 171,15 291,130 127,121 133,134 143,308 7,116 12,145 28,167 25,34 72,51 148,51 92,1 133,16 150,54 7,18 25,57 38,89 38,86 45,88 223,79 179,-9 215,-22 283,-106 47,-57 91,-85 136,-85 97,0 184,124 232,328 29,124 25,368 -9,553 -45,243 -90,357 -167,422 -32,26 -74,36 -85,19 -6,-10 30,-102 61,-154 41,-69 65,-167 70,-283 l 6,-110 -21,19 c -29,26 -48,15 -56,-33 -8,-51 -31,-55 -51,-8 -7,17 -17,35 -21,39 -15,16 -34,-16 -34,-56 l 0,-41 -20,33 c -30,48 -62,41 -74,-15 -11,-47 -23,-55 -30,-20 -20,98 -22,102 -42,105 -12,2 -27,-4 -34,-13 -19,-23 -27,-18 -34,19 -12,61 -67,58 -81,-5 -8,-37 -19,-37 -42,1 -26,45 -55,37 -67,-17 -10,-51 -19,-54 -36,-13 -26,63 -50,21 -50,-89 0,-44 -4,-82 -8,-85 -5,-3 -19,12 -31,34 -28,49 -76,90 -107,90 -33,0 -31,-26 7,-124 48,-124 22,-118 -86,21 -110,141 -143,178 -151,170 -4,-4 16,-82 44,-175 29,-92 52,-171 52,-176 0,-5 -13,9 -28,30 -39,53 -57,66 -84,62 -21,-3 -23,-8 -21,-53 1,-30 13,-79 32,-122 32,-78 29,-89 -10,-47 -31,35 -108,84 -130,84 -32,0 -32,-37 -1,-95 l 30,-54 -27,15 c -14,8 -51,31 -81,50 -114,72 -162,28 -73,-67 25,-27 44,-52 41,-54 -10,-11 -125,84 -177,146 -56,65 -90,98 -103,99 -20,0 -4,-69 38,-165 25,-58 43,-112 40,-121 -5,-12 -19,-15 -68,-13 -81,3 -85,-11 -28,-87 24,-32 38,-60 33,-65 -5,-5 -31,2 -62,16 -61,29 -101,32 -101,10 0,-9 9,-34 21,-56 33,-66 10,-88 -53,-49 -70,42 -87,16 -42,-64 15,-26 24,-50 20,-53 -3,-3 -28,4 -55,16 -59,25 -94,27 -115,5 -24,-24 -20,-41 27,-91 23,-25 33,-41 22,-35 -42,22 -107,86 -182,180 -43,53 -116,140 -163,192 -317,355 -607,769 -720,1029 -24,56 -70,245 -70,288 0,15 24,-16 45,-57 53,-104 71,-78 51,76 -9,65 -16,126 -16,136 0,27 15,22 29,-9 36,-82 103,-140 87,-77 -22,85 -37,178 -34,206 3,32 5,30 51,-49 78,-132 91,-126 59,25 -12,59 -22,113 -22,121 0,21 24,-2 60,-60 41,-63 65,-66 57,-6 -3,23 -9,53 -13,67 -7,24 -6,24 17,-4 13,-17 67,-93 119,-170 104,-154 138,-182 126,-104 -4,25 -27,119 -52,209 -56,204 -81,346 -65,362 13,13 29,-6 82,-103 61,-111 89,-87 49,42 -11,34 -23,86 -26,113 -7,47 -6,49 11,35 10,-8 45,-51 78,-95 99,-133 167,-195 167,-152 0,6 -18,51 -39,98 -21,48 -46,117 -56,153 -16,60 -17,69 -3,82 14,14 17,13 35,-13 11,-15 59,-98 106,-183 101,-180 130,-220 147,-204 14,14 -4,84 -64,252 -21,57 -35,106 -32,109 3,4 32,-23 65,-58 73,-79 88,-74 64,24 -14,56 -14,70 -4,77 17,10 62,-3 108,-30 19,-11 36,-20 38,-20 2,0 5,21 7,47 4,60 23,66 80,24 22,-17 45,-28 50,-25 14,9 9,61 -7,74 -11,10 -12,16 -4,26 9,11 16,11 43,-3 17,-9 42,-24 55,-34 40,-32 51,-25 51,33 l 0,52 43,-42 c 45,-45 67,-51 87,-27 17,21 27,19 62,-10 16,-14 39,-25 50,-25 20,0 21,5 7,60 -5,19 26,15 55,-8 62,-48 405,-480 501,-632 38,-60 73,-110 78,-110 4,0 4,19 1,43 -13,84 -55,195 -104,276 -28,45 -55,91 -60,102 -20,37 9,19 70,-43 67,-68 161,-200 285,-398 44,-69 84,-128 89,-132 25,-17 29,14 12,93 -17,78 -17,81 1,95 10,7 21,14 25,14 4,0 23,-25 43,-56 48,-75 70,-72 69,11 -1,54 -16,108 -55,202 -24,57 1,49 69,-22 121,-127 193,-247 285,-470 247,-603 163,-1256 -196,-1522 -26,-19 -53,-33 -61,-30 -8,3 -16,30 -20,66 -14,122 -69,295 -107,336 -33,34 -41,7 -22,-75 22,-104 23,-307 0,-380 -9,-31 -27,-66 -40,-79 l -25,-22 -7,58 c -23,189 -86,391 -140,448 -34,37 -55,45 -55,21 0,-8 9,-56 20,-109 25,-125 44,-340 36,-408 -8,-61 -54,-152 -86,-169 -15,-8 -20,-8 -20,3 0,32 -107,229 -171,314 -68,92 -93,115 -137,128 -40,12 -38,-21 7,-85 47,-67 91,-159 145,-303 44,-117 45,-147 9,-178 -49,-44 -108,-105 -125,-131 -32,-48 -81,-62 -208,-63 -175,0 -333,49 -522,162 -88,52 -73,-9 19,-82 52,-41 319,-185 368,-198 11,-3 40,-11 64,-17 53,-14 45,-24 -34,-44 -136,-36 -281,-15 -597,85 -121,38 -223,67 -227,64 -3,-3 1,-18 10,-33 10,-19 50,-44 129,-84 276,-137 377,-168 552,-168 128,0 140,-6 95,-48 -83,-78 -499,-93 -745,-27 -114,30 -155,32 -150,8 5,-30 142,-90 263,-117 166,-38 355,-59 468,-54 70,4 97,2 97,-7 0,-16 -257,-185 -358,-235 -127,-63 -223,-84 -352,-77 -173,10 -358,58 -527,137 -313,147 -597,437 -915,937 -236,371 -386,674 -444,893 -67,257 -59,389 51,792 41,152 84,298 96,324 12,27 32,80 45,117 13,38 33,85 46,105 47,78 187,251 272,337 82,81 91,88 94,66 6,-38 -45,-163 -88,-215 -53,-64 -54,-94 -1,-75 68,26 130,116 218,319 113,258 325,526 473,594 37,17 64,21 155,20 91,0 142,-7 296,-42 103,-23 203,-42 222,-42 81,0 121,43 50,53 -21,2 -65,17 -98,31 l -59,27 49,29 c 28,16 82,56 120,89 174,150 303,172 567,97 z M 7250,5554 c 5,-21 10,-65 10,-96 0,-67 -3,-66 105,-43 82,17 88,18 81,6 -3,-4 -23,-11 -44,-15 -80,-12 -230,-133 -327,-261 -65,-87 -68,-89 -95,-75 -69,37 -35,141 61,191 32,16 39,25 39,48 0,16 -6,34 -14,40 -21,18 -29,61 -15,93 19,47 30,37 45,-45 8,-49 41,-72 89,-63 19,4 37,12 41,17 3,6 -7,30 -24,54 -61,86 -65,143 -16,192 23,23 27,24 41,11 8,-8 19,-33 23,-54 z m 3533,32 c 74,-14 227,-71 227,-84 0,-4 -24,-28 -53,-53 -28,-25 -70,-77 -92,-115 -32,-55 -41,-64 -43,-45 -2,12 13,56 32,98 49,102 48,115 -9,93 -23,-9 -26,-7 -31,19 -8,39 -41,68 -95,85 -59,19 -28,19 64,2 z m -263,-62 c -8,-8 -23,-20 -34,-25 -13,-7 -9,-1 9,15 34,29 43,33 25,10 z m 560,-135 c -100,-45 -150,-110 -150,-192 0,-45 19,-75 39,-63 6,4 22,29 37,55 35,66 72,85 151,79 92,-6 99,-17 62,-90 -42,-83 -36,-133 22,-180 23,-18 53,-43 67,-55 l 27,-21 -30,-11 c -65,-23 -72,-36 -60,-98 4,-25 23,-52 59,-89 44,-44 65,-56 125,-74 39,-12 71,-26 71,-30 0,-4 -54,-32 -121,-61 -119,-53 -199,-107 -199,-135 0,-22 47,-17 144,16 48,16 120,34 159,39 63,9 74,8 85,-6 18,-24 16,-29 -25,-60 -65,-48 -65,-58 1,-68 l 44,-7 -34,-45 c -26,-34 -34,-54 -34,-85 0,-39 6,-47 94,-132 111,-108 137,-159 117,-227 -15,-51 -73,-94 -149,-110 -117,-25 -312,30 -312,87 0,9 17,8 70,-6 120,-31 221,-4 255,66 19,40 15,79 -11,119 -24,37 -59,52 -154,65 -47,6 -99,17 -116,25 -34,14 -84,72 -84,97 0,9 27,40 59,70 33,29 61,62 63,73 5,31 -57,32 -129,1 -69,-29 -71,-27 -72,72 -1,59 1,66 30,93 31,29 31,30 27,116 -3,94 -24,151 -75,205 l -25,26 23,31 c 33,45 34,137 2,158 -14,9 -23,26 -23,40 0,71 -47,82 -101,23 -42,-46 -73,-51 -108,-19 -33,31 -44,67 -28,93 8,11 19,38 26,58 20,60 159,178 211,178 8,0 -5,-10 -30,-21 z m 408,-258 c 40,-69 102,-219 102,-243 -1,-7 -11,14 -24,47 -13,33 -46,106 -75,163 -28,56 -49,102 -47,102 2,0 22,-31 44,-69 z m 109,-283 c -3,-8 -6,-5 -6,6 -1,11 2,17 5,13 3,-3 4,-12 1,-19 z m -1267,-124 43,-77 -23,-19 -23,-19 -34,88 c -18,48 -37,104 -43,123 l -9,35 23,-27 c 13,-15 43,-61 66,-104 z m 1304,6 c 30,-111 67,-283 62,-288 -14,-13 -69,199 -90,348 -10,66 -1,47 28,-60 z M 6289,4174 c -7,-8 -19,-13 -28,-12 -10,2 -26,-12 -42,-37 -29,-45 -137,-168 -152,-174 -6,-2 -1,9 11,24 12,15 22,32 22,37 0,17 54,81 84,99 15,9 33,28 40,41 6,12 21,24 33,26 11,2 24,13 28,25 6,19 8,20 12,4 3,-10 -1,-25 -8,-33 z m 6451,21 c 13,-14 21,-25 18,-25 -2,0 -15,11 -28,25 -13,14 -21,25 -18,25 2,0 15,-11 28,-25 z m -667,-129 c 71,-55 149,-89 186,-79 31,8 25,29 -16,58 -47,32 -36,32 25,1 104,-53 171,-53 122,-1 -30,32 -16,32 35,0 79,-48 88,-22 18,49 l -48,47 39,-16 c 21,-9 73,-38 115,-64 118,-73 128,-73 96,2 -8,20 -15,39 -15,42 0,3 42,-28 93,-70 116,-94 145,-97 123,-9 l -7,27 36,-31 c 20,-18 37,-32 40,-32 17,0 35,16 35,31 0,10 3,19 8,19 16,0 65,-39 76,-60 6,-13 16,-23 21,-24 19,-2 16,53 -5,96 l -22,43 32,-37 c 21,-25 40,-38 56,-38 26,0 26,5 6,59 -4,10 1,9 20,-3 29,-19 54,-13 63,15 4,10 14,19 22,19 19,0 139,-117 130,-126 -3,-4 -31,4 -61,16 -30,13 -61,20 -69,17 -10,-4 -18,-35 -27,-103 -19,-157 -34,-176 -97,-126 -104,83 -382,130 -832,141 l -264,6 -17,51 -18,51 39,-21 c 26,-15 41,-18 48,-11 8,8 -7,32 -49,78 -89,100 -85,99 63,-17 z m -268,-38 c 47,-99 65,-177 65,-276 0,-105 -19,-172 -72,-254 -50,-76 -84,-149 -133,-288 -39,-108 -93,-225 -101,-218 -2,3 10,38 26,79 17,40 46,123 65,184 34,107 53,147 128,268 44,72 57,130 57,250 0,103 -17,187 -54,271 -36,82 -21,69 19,-16 z M 7599,3909 c 102,-68 143,-119 446,-554 173,-250 343,-459 524,-649 67,-70 71,-76 36,-55 -182,108 -262,142 -293,122 -26,-16 -24,-28 12,-82 37,-55 36,-55 -34,-5 -63,45 -134,74 -181,74 -101,0 -47,-82 170,-256 55,-43 98,-81 96,-82 -8,-9 -148,74 -152,89 -3,9 -17,19 -31,22 -15,3 -79,38 -142,77 -140,87 -339,190 -369,190 -25,0 -27,-19 -6,-59 23,-46 156,-163 348,-306 99,-74 176,-135 170,-135 -26,0 -194,54 -248,80 -92,44 -264,208 -378,360 -101,134 -120,155 -137,145 -32,-20 18,-128 128,-278 37,-51 81,-111 97,-134 118,-166 259,-313 352,-365 30,-17 52,-32 50,-35 -3,-2 -28,6 -57,17 -168,66 -399,293 -545,536 -97,160 -278,525 -313,630 -54,161 -77,313 -50,330 6,4 13,3 16,-4 5,-15 101,-76 109,-69 3,4 -3,38 -13,76 -10,39 -15,73 -12,77 4,3 28,-10 54,-30 48,-37 94,-48 94,-21 0,8 -11,49 -25,92 -14,43 -25,83 -25,90 0,7 27,-15 59,-49 89,-91 115,-65 62,64 -56,136 -39,164 38,64 58,-74 77,-83 68,-32 -4,20 -10,52 -13,71 -6,31 -4,35 14,35 11,0 47,-18 81,-41 z M 5955,3715 c -1,-94 -4,-119 -25,-169 -23,-54 -51,-88 -64,-75 -2,2 9,49 26,104 20,67 32,131 35,194 8,133 28,93 28,-54 z m 5375,-51 c 54,-23 84,-28 175,-32 93,-3 118,-1 163,16 l 53,20 -7,-21 c -31,-103 -195,-114 -411,-26 -72,29 -42,-34 39,-80 28,-16 106,-45 172,-63 l 121,-33 -90,-3 c -97,-3 -153,8 -228,45 -68,34 -87,56 -87,101 0,61 12,114 24,108 6,-3 40,-17 76,-32 z m -5650,-63 c 13,-48 1,-83 -39,-117 -35,-29 -61,-81 -61,-122 0,-16 14,-75 31,-131 37,-120 33,-155 -11,-101 -39,47 -66,76 -127,132 -53,50 -71,94 -53,129 6,10 17,19 25,19 8,0 19,17 25,40 13,48 63,108 105,126 16,7 41,24 54,38 14,14 28,26 32,26 5,0 13,-18 19,-39 z m -2241,-26 c 14,-51 -21,-185 -49,-185 -30,0 -39,191 -9,226 17,21 46,0 58,-41 z m 1534,-85 c 14,-12 28,-35 32,-57 4,-20 15,-54 26,-75 16,-31 17,-38 5,-38 -28,0 -74,50 -96,105 -32,78 -18,105 33,65 z m -116,-100 c 18,-30 33,-57 33,-62 0,-4 -28,-8 -62,-10 -62,-3 -63,-3 -66,-34 -2,-17 7,-55 18,-85 l 21,-54 -34,33 c -42,41 -93,142 -102,204 l -7,47 38,6 c 22,4 44,8 49,10 6,2 26,3 45,2 31,-2 39,-8 67,-57 z m -271,-30 c 15,-92 23,-114 80,-211 51,-87 55,-107 20,-84 -32,21 -92,109 -110,163 -22,62 -47,192 -40,203 3,6 13,9 22,7 12,-2 19,-23 28,-78 z m 6719,7 c 28,-19 70,-46 93,-61 24,-15 41,-30 38,-33 -10,-10 -133,66 -182,113 -49,46 -42,44 51,-19 z m -7752,-8 c -4,-64 -27,-168 -35,-157 -12,20 -10,134 4,163 14,31 34,27 31,-6 z m 1006,-242 c 28,-64 27,-82 -6,-96 -93,-36 -289,-47 -355,-18 -21,9 -38,18 -38,21 0,3 52,5 115,5 132,-1 156,8 182,69 12,29 14,60 9,152 l -7,115 40,-100 c 21,-55 48,-122 60,-148 z m 1521,140 c 46,-25 91,-67 74,-67 -6,0 -15,5 -22,12 -6,6 -14,10 -16,7 -3,-2 61,-135 140,-294 l 145,-290 -10,-100 c -6,-55 -14,-139 -17,-187 -4,-49 -12,-96 -19,-105 -15,-20 -23,-12 -132,120 -71,85 -98,106 -116,88 -8,-8 0,-60 27,-185 21,-95 37,-179 34,-186 -2,-7 -23,31 -47,84 -24,53 -47,96 -52,96 -17,0 -18,-22 -3,-129 8,-62 13,-117 11,-124 -2,-7 -14,8 -27,33 -37,73 -84,140 -97,140 -16,0 -16,-3 1,-67 8,-29 42,-105 76,-170 l 61,-118 -46,45 c -26,25 -58,67 -72,94 -38,74 -93,222 -93,249 0,17 -7,26 -22,30 -12,4 -24,4 -27,1 -8,-8 19,-151 39,-210 33,-94 78,-176 140,-254 61,-76 69,-97 48,-118 -18,-18 -115,-15 -247,7 -227,38 -280,35 -289,-14 -2,-11 -8,-24 -12,-29 -5,-4 -64,21 -133,58 -69,36 -132,66 -141,66 -26,0 -19,-34 14,-65 38,-37 69,-113 50,-125 -43,-27 -216,85 -258,167 -10,18 -44,54 -77,80 -48,39 -69,66 -107,138 -44,84 -118,283 -118,318 0,28 104,117 137,117 7,0 17,-19 23,-42 13,-47 36,-88 49,-88 5,0 9,27 10,60 0,33 7,73 15,88 15,26 15,24 15,-44 -1,-60 3,-81 33,-145 36,-77 62,-109 78,-93 5,5 0,52 -12,114 -14,70 -19,116 -13,135 l 8,30 7,-25 c 5,-14 8,-44 9,-68 2,-87 90,-297 153,-364 23,-25 31,-28 43,-18 19,16 19,40 0,40 -21,0 -19,30 3,30 13,1 10,6 -13,25 -25,20 -29,31 -28,66 2,30 -3,46 -15,55 -13,10 -17,28 -17,83 0,45 -4,71 -11,71 -6,0 -14,27 -17,63 -4,48 -2,64 9,70 9,5 14,25 14,58 0,47 2,50 23,47 14,-2 22,-10 22,-23 0,-14 -6,-19 -19,-17 -16,3 -17,0 -11,-20 4,-13 11,-72 14,-133 9,-127 49,-261 115,-379 87,-156 169,-198 130,-66 -8,27 -19,50 -24,50 -6,0 -10,7 -10,15 0,8 -6,15 -14,15 -43,0 -95,339 -70,456 8,39 8,39 15,-26 4,-36 7,-118 8,-182 1,-72 5,-118 11,-118 6,0 18,-19 27,-41 9,-23 33,-75 54,-117 21,-41 36,-78 33,-83 -2,-4 6,-13 18,-20 12,-7 45,-30 72,-51 80,-63 92,-36 27,61 -90,133 -138,325 -147,581 -6,170 -1,186 64,208 41,13 45,13 68,-9 l 24,-22 0,24 c 0,14 -5,30 -10,35 -8,8 8,28 50,67 65,61 75,65 84,42 6,-15 36,-21 36,-7 0,5 -7,17 -15,28 -23,30 -19,49 39,183 29,69 63,160 75,201 12,41 29,94 37,117 l 15,42 37,-23 c 20,-13 57,-35 82,-49 z m -299,-69 c -22,-84 -104,-268 -121,-268 -5,0 -24,-22 -42,-48 -41,-60 -164,-177 -198,-187 -14,-4 -41,-19 -60,-32 -50,-34 -483,-173 -497,-160 -2,3 9,8 24,12 87,21 510,215 608,277 69,45 165,161 165,200 0,10 6,18 14,18 22,0 62,92 93,210 16,58 29,95 31,82 2,-12 -6,-59 -17,-104 z m -2056,-5 c 0,-73 3,-85 53,-196 29,-66 51,-121 48,-124 -3,-3 -20,7 -37,22 -84,70 -143,178 -143,263 -1,48 2,57 32,83 18,16 36,29 40,29 4,0 8,-35 7,-77 z m 7582,25 c 31,-19 56,-23 147,-27 121,-4 124,-16 7,-27 -39,-4 -74,-10 -76,-14 -7,-12 35,-61 61,-70 33,-13 30,-36 -10,-76 -28,-28 -42,-34 -75,-34 -59,0 -139,34 -191,80 l -45,40 63,-39 c 76,-48 140,-61 177,-37 37,24 31,50 -29,121 -52,61 -82,105 -72,105 3,0 22,-10 43,-22 z m -5887,-64 55,-57 -72,59 c -39,32 -72,63 -72,67 -2,16 35,-13 89,-69 z m -121,-70 c 30,-25 84,-124 96,-174 10,-43 -27,-77 -143,-131 -58,-27 -118,-49 -134,-49 -60,0 -93,47 -113,162 l -7,36 40,-19 c 30,-15 45,-17 66,-10 34,14 62,61 70,120 12,91 63,118 125,65 z m 5886,-145 c 4,-6 5,-12 2,-15 -7,-7 -37,7 -37,17 0,13 27,11 35,-2 z m -6363,-21 c 7,-13 29,-70 49,-128 20,-58 39,-113 44,-122 12,-29 -14,-21 -48,15 -50,53 -108,204 -93,242 8,22 33,18 48,-7 z m -137,-65 c 11,-61 33,-124 68,-189 l 33,-61 -30,-11 c -114,-40 -299,-39 -414,2 -82,29 -311,155 -326,178 -6,9 -7,20 -3,25 13,12 112,-14 195,-50 103,-47 412,-108 461,-92 19,6 18,8 -5,65 -27,66 -29,92 -13,139 15,41 27,39 34,-6 z m 6206,-81 c -29,-56 -152,-167 -270,-242 -56,-36 -145,-93 -198,-127 -53,-35 -98,-61 -100,-59 -7,6 236,174 314,217 97,54 179,131 228,215 42,71 63,68 26,-4 z m 124,-55 c -11,-8 -40,-21 -65,-31 -40,-16 -43,-16 -29,-1 15,15 81,44 104,45 5,0 1,-6 -10,-13 z M 8473,2571 c 20,-22 20,-23 2,-13 -11,7 -36,25 -55,43 l -35,31 33,-19 c 18,-10 43,-29 55,-42 z m -3063,-45 c 0,-15 -18,-31 -26,-23 -7,7 7,37 17,37 5,0 9,-6 9,-14 z m 4816,-238 c -16,-37 -66,-102 -73,-94 -7,6 69,126 79,126 4,0 1,-14 -6,-32 z m -191,-184 c -8,-53 -64,-128 -136,-181 -42,-32 -58,-53 -94,-128 -76,-158 -209,-307 -334,-374 -72,-38 -90,-40 -36,-4 120,80 259,234 317,351 26,53 29,66 20,87 -16,35 -7,49 41,62 81,22 108,49 167,168 57,114 70,119 55,19 z"
       id="path8"
       inkscape:connector-curvature="0" />
    <path
       d="m 6769,11101 c -63,-40 -90,-74 -104,-127 -34,-134 67,-255 201,-241 151,16 218,145 148,286 -53,105 -156,139 -245,82 z m 131,-33 c 22,-13 40,-29 40,-37 0,-8 8,-20 18,-27 28,-20 23,-116 -9,-150 -29,-32 -78,-54 -119,-54 -23,0 -33,6 -40,25 -5,14 -17,25 -27,26 -10,0 -13,3 -6,5 7,3 25,-4 41,-16 28,-20 31,-21 59,-6 51,26 95,83 91,119 -3,27 -9,33 -40,42 -20,5 -48,21 -61,33 -21,20 -28,22 -47,12 -24,-13 -50,-66 -50,-103 0,-23 -29,-73 -30,-50 0,6 5,15 10,18 15,10 12,35 -5,35 -37,0 5,109 53,134 39,22 77,19 122,-6 z"
       id="path10"
       inkscape:connector-curvature="0" />
    <path
       d="m 3712,7193 c -48,-23 -123,-110 -261,-303 -68,-94 -139,-183 -158,-198 -76,-57 -134,-116 -210,-215 -150,-193 -173,-245 -173,-386 0,-148 50,-313 176,-577 115,-242 128,-321 139,-809 9,-357 26,-534 61,-623 61,-153 107,-212 199,-254 40,-18 68,-22 140,-23 78,0 98,4 149,27 32,16 85,53 118,83 95,88 134,86 186,-13 36,-68 75,-104 106,-100 32,5 31,48 -2,115 -41,81 -48,118 -27,149 29,44 52,28 129,-86 80,-119 123,-152 173,-134 25,8 28,15 27,49 0,22 -10,87 -23,145 -24,113 -22,157 9,185 21,19 31,18 125,-14 33,-12 77,-23 98,-26 66,-10 96,-48 121,-151 18,-74 26,-90 43,-92 29,-4 59,48 77,133 14,65 33,95 61,95 19,0 52,-43 70,-90 20,-53 57,-90 88,-90 12,0 49,12 82,25 33,14 65,25 70,25 6,0 37,-14 69,-30 198,-101 355,63 462,483 120,470 93,815 -105,1369 -116,323 -136,356 -300,501 -78,70 -126,121 -148,158 -43,75 -82,119 -103,119 -29,0 -32,-15 -15,-79 18,-69 10,-101 -30,-127 -73,-48 -200,57 -225,186 -18,90 -25,100 -65,100 -66,0 -109,-35 -168,-135 l -28,-48 -23,22 c -13,12 -42,71 -65,130 -55,143 -76,175 -122,179 -29,2 -46,-5 -94,-43 -33,-25 -70,-48 -83,-52 -71,-17 -109,55 -122,237 -6,71 -15,141 -20,155 -12,31 -35,42 -54,26 -20,-17 -80,-163 -100,-246 -20,-79 -45,-112 -92,-121 -40,-7 -69,1 -94,29 -26,27 -25,46 5,147 30,101 33,170 7,193 -23,21 -38,21 -80,0 z m 705,-672 c 64,-40 109,-158 137,-366 8,-60 26,-292 40,-515 27,-423 42,-609 53,-636 5,-15 7,-14 16,1 12,22 26,371 27,705 1,140 5,324 8,408 6,136 10,155 27,168 42,31 155,5 200,-46 19,-22 20,-35 18,-434 -1,-226 -7,-531 -13,-678 -14,-355 -27,-396 -150,-458 -30,-15 -64,-38 -75,-50 -53,-58 -137,-74 -213,-40 -54,25 -85,58 -128,141 -40,75 -67,104 -106,114 -36,9 -52,-18 -72,-123 -17,-95 -43,-144 -86,-162 -73,-30 -144,33 -233,209 -34,69 -67,126 -74,128 -19,7 -24,-67 -13,-205 9,-117 30,-258 47,-317 3,-13 2,-16 -4,-10 -14,14 -118,280 -131,335 -6,25 -27,167 -47,315 -46,350 -66,429 -97,396 -10,-9 -13,-93 -12,-354 0,-349 10,-507 43,-674 l 18,-92 -26,19 c -66,46 -67,50 -90,270 -25,238 -46,479 -60,671 -6,74 -22,190 -36,256 l -26,121 27,79 c 15,43 44,116 64,163 71,159 172,375 180,383 10,11 46,-85 67,-175 28,-126 39,-88 53,192 5,107 10,196 10,198 0,2 30,17 67,34 84,38 164,40 277,8 86,-24 108,-22 162,15 45,31 106,33 151,6 z m 720,-655 c 23,-140 22,-582 -1,-794 -30,-275 -72,-460 -111,-492 -13,-11 -15,-4 -15,46 0,33 7,91 14,129 21,99 35,411 43,910 l 6,429 24,-64 c 13,-35 31,-109 40,-164 z m 155,138 c 24,-90 48,-1107 30,-1254 -10,-81 -40,-195 -49,-186 -3,2 4,55 14,118 15,93 18,167 17,423 -2,337 -18,688 -39,830 -8,49 -11,93 -8,98 9,15 27,1 35,-29 z m 341,-212 c 90,-269 123,-484 114,-737 -9,-226 -50,-441 -93,-476 -32,-26 -38,8 -54,286 -6,94 -14,231 -20,305 -12,171 -13,773 -1,766 5,-3 29,-68 54,-144 z"
       id="path12"
       inkscape:connector-curvature="0" />
    <path
       d="m 5537,2589 c -23,-14 -40,-58 -28,-73 5,-6 11,-60 14,-121 5,-116 55,-355 81,-385 7,-8 33,-49 57,-90 24,-41 64,-95 89,-120 40,-41 44,-43 48,-23 2,11 -18,63 -44,115 -60,119 -81,182 -99,292 -8,48 -19,93 -24,100 -5,6 -13,62 -17,124 -4,61 -10,112 -15,112 -4,0 -9,17 -11,37 -3,40 -20,51 -51,32 z"
       id="path14"
       inkscape:connector-curvature="0" />
    <path
       d="m 5702,2300 c -9,-25 15,-190 42,-279 23,-78 75,-177 117,-224 54,-60 51,-33 -20,161 -33,89 -69,201 -81,250 -25,99 -44,130 -58,92 z"
       id="path16"
       inkscape:connector-curvature="0" />
    <path
       d="m 9277,16818 c -13,-13 -69,-75 -124,-138 -55,-63 -162,-183 -239,-266 -582,-629 -799,-886 -1075,-1266 l -107,-148 -1,-82 c 0,-46 -7,-220 -16,-388 -8,-168 -15,-309 -15,-315 -1,-23 -19,26 -44,118 -15,54 -32,110 -37,125 -10,26 -11,26 -25,8 -23,-32 -16,-123 21,-275 37,-151 40,-192 8,-94 -26,77 -49,79 -45,3 3,-64 23,-134 63,-234 17,-39 24,-65 17,-58 -17,17 -28,15 -28,-4 0,-25 77,-173 158,-304 120,-195 159,-318 148,-470 -6,-96 -26,-169 -86,-311 -23,-54 -40,-106 -38,-116 6,-27 67,40 109,120 18,36 35,64 37,63 1,-2 -7,-30 -19,-62 -55,-148 -182,-259 -371,-323 -76,-26 -80,-29 -55,-36 16,-4 58,-5 93,-2 121,9 229,83 341,231 65,86 69,89 35,21 -36,-72 -71,-121 -140,-196 -29,-31 -52,-62 -52,-68 0,-16 62,12 124,56 45,32 48,34 26,9 -66,-74 -177,-139 -312,-181 -49,-15 -88,-31 -88,-36 0,-14 49,-22 98,-15 69,9 162,42 216,76 63,40 67,38 15,-9 -84,-75 -188,-110 -331,-111 -56,0 -64,-9 -38,-43 66,-83 229,-75 395,20 104,59 167,111 163,132 -2,9 13,49 34,89 21,40 38,79 38,87 0,8 6,12 13,10 9,-4 12,11 13,52 1,39 16,103 48,198 25,77 50,172 56,210 13,93 13,255 0,255 -17,0 -31,49 -20,68 8,14 9,12 10,-10 0,-44 25,-33 66,30 105,161 128,191 180,242 l 56,55 -27,-42 c -27,-42 -30,-83 -7,-91 15,-5 359,339 509,510 55,62 116,138 135,168 89,140 197,391 263,611 l 26,86 -20,100 c -11,54 -59,217 -106,362 -62,193 -88,289 -97,359 -7,58 -12,237 -13,442 0,290 3,356 17,415 9,39 19,106 22,149 5,66 12,90 41,142 19,34 35,69 35,78 0,23 -25,20 -53,-6 z m -188,-808 c 6,-36 17,-155 26,-265 23,-300 31,-343 100,-555 70,-219 90,-316 82,-405 -8,-79 -65,-254 -126,-382 -55,-114 -211,-352 -211,-321 0,2 9,27 20,56 11,29 20,75 20,105 l -1,52 -22,-39 c -12,-21 -77,-116 -144,-211 -68,-95 -123,-175 -123,-179 0,-15 29,-3 80,35 l 55,40 -55,-53 c -35,-33 -100,-77 -175,-117 -169,-91 -221,-128 -298,-214 -76,-86 -165,-140 -192,-117 -8,7 -15,16 -15,20 0,5 -36,90 -81,189 -44,100 -85,205 -91,234 -9,44 -7,90 15,273 15,120 34,293 43,384 22,243 18,229 67,250 37,16 157,38 157,29 0,-2 -7,-26 -15,-53 -25,-82 -19,-282 15,-553 17,-131 33,-246 36,-255 7,-22 20,-23 28,-2 11,29 6,278 -9,461 -9,100 -17,234 -18,298 l -3,115 36,0 c 57,0 138,28 154,53 8,12 17,38 20,57 8,48 74,142 226,325 94,112 120,154 120,192 0,18 -5,33 -10,33 -28,0 -84,-33 -151,-90 -69,-59 -67,-56 41,56 246,256 272,289 290,354 15,56 5,73 -39,66 -20,-3 -46,-9 -58,-12 -47,-13 -22,29 78,128 59,60 104,97 109,92 5,-5 14,-38 19,-74 z m -259,-175 c -7,-9 -15,-13 -17,-11 -7,7 7,26 19,26 6,0 6,-6 -2,-15 z"
       id="path18"
       inkscape:connector-curvature="0" />
    <path
       d="m 8862,14753 c -54,-291 -169,-537 -357,-761 -120,-143 -100,-153 46,-23 221,199 339,457 356,784 5,98 4,117 -8,117 -11,0 -21,-32 -37,-117 z"
       id="path20"
       inkscape:connector-curvature="0" />
    <path
       d="m 8147,14723 c -33,-38 -42,-103 -42,-318 0,-190 3,-231 35,-433 21,-135 38,-221 45,-219 28,10 28,165 -1,522 -8,99 -15,244 -15,323 0,78 -2,142 -3,142 -2,0 -10,-8 -19,-17 z"
       id="path22"
       inkscape:connector-curvature="0" />
    <path
       d="m 8958,14520 c -9,-19 -30,-67 -47,-107 -69,-161 -154,-277 -357,-490 -79,-83 -144,-154 -144,-157 0,-32 185,100 296,209 138,137 229,303 264,482 16,79 10,111 -12,63 z"
       id="path24"
       inkscape:connector-curvature="0" />
    <path
       d="m 8683,14525 c -6,-11 -28,-60 -48,-110 -71,-172 -175,-358 -251,-452 -74,-91 17,-43 113,59 94,100 154,213 187,354 20,81 19,183 -1,149 z"
       id="path26"
       inkscape:connector-curvature="0" />
    <path
       d="m 8008,14424 c -8,-19 -12,-87 -12,-204 1,-155 4,-187 26,-275 35,-135 46,-161 60,-147 9,9 7,76 -6,269 -23,343 -39,425 -68,357 z"
       id="path28"
       inkscape:connector-curvature="0" />
    <path
       d="m 8324,14259 c 7,-195 12,-232 30,-226 40,13 48,286 10,362 -10,21 -25,41 -33,43 -12,4 -13,-23 -7,-179 z"
       id="path30"
       inkscape:connector-curvature="0" />
    <path
       d="m 990,15017 c 0,-8 29,-48 65,-89 l 65,-76 -35,-6 c -19,-4 -35,-11 -35,-16 0,-18 205,-70 276,-70 46,0 38,11 -45,64 -36,24 -113,80 -170,125 -105,82 -121,91 -121,68 z"
       id="path32"
       inkscape:connector-curvature="0" />
    <path
       d="m 1002,14778 c 3,-7 67,-44 144,-83 151,-76 211,-112 234,-141 14,-16 13,-17 -5,-10 -36,15 -65,19 -65,8 0,-5 17,-25 39,-45 81,-73 388,-231 369,-189 -89,195 -167,270 -392,378 -147,70 -336,118 -324,82 z"
       id="path34"
       inkscape:connector-curvature="0" />
    <path
       d="m 2230,14430 c 0,-32 87,-64 775,-286 330,-107 609,-198 620,-204 11,-5 44,-19 73,-30 163,-62 429,-212 642,-361 120,-84 404,-249 428,-249 43,0 -19,50 -178,143 -58,34 -175,112 -260,172 -85,61 -193,134 -240,164 -91,57 -299,164 -390,200 -30,12 -334,106 -675,210 -341,104 -656,203 -700,220 -87,34 -95,36 -95,21 z"
       id="path36"
       inkscape:connector-curvature="0" />
    <path
       d="m 1970,14209 c 0,-45 234,-319 607,-711 67,-70 124,-138 128,-150 15,-54 28,-67 77,-77 62,-14 82,-24 221,-116 220,-145 532,-282 872,-385 94,-28 204,-63 245,-77 88,-31 246,-104 275,-128 l 20,-17 -20,7 c -51,17 -270,75 -283,75 -38,0 6,-30 109,-72 177,-74 280,-120 276,-124 -2,-2 -43,10 -92,26 -99,33 -160,40 -135,16 8,-8 62,-36 120,-62 105,-47 202,-103 214,-123 5,-7 -4,-11 -23,-11 -17,0 -31,-3 -31,-7 0,-5 48,-33 107,-63 58,-30 150,-83 205,-116 65,-41 122,-68 164,-78 98,-25 111,-5 26,38 -70,36 -203,178 -243,261 l -10,20 15,-20 c 9,-11 35,-44 57,-74 57,-73 189,-168 189,-136 0,3 -37,56 -83,117 -46,62 -127,181 -180,264 -103,162 -123,186 -136,165 -8,-12 -73,117 -192,388 -76,171 -112,231 -140,231 -26,0 -25,-36 6,-140 13,-47 21,-88 17,-92 -4,-4 -57,20 -117,54 -162,90 -430,218 -595,283 -80,32 -176,73 -215,93 -38,19 -117,56 -175,81 -102,45 -611,303 -606,308 7,8 876,-381 1226,-547 357,-170 378,-180 392,-180 25,0 -28,40 -162,120 -192,116 -443,236 -720,345 -221,87 -310,124 -400,163 -78,34 -83,37 -55,42 43,8 20,18 -80,36 -47,8 -124,28 -170,45 -133,47 -232,95 -511,247 -16,9 -160,78 -186,90 -5,2 -8,-2 -8,-9 z m 800,-562 c 41,-28 104,-71 140,-97 86,-62 421,-229 760,-379 371,-163 489,-231 526,-303 23,-44 12,-62 -31,-54 -130,25 -412,129 -593,220 -236,118 -376,214 -606,415 -66,57 -173,146 -238,198 -65,53 -118,97 -118,99 0,5 65,-35 160,-99 z"
       id="path38"
       inkscape:connector-curvature="0" />
    <path
       d="m 3580,13900 c -8,-5 -12,-11 -10,-13 3,-2 103,-54 222,-115 196,-101 311,-166 539,-306 42,-25 81,-46 88,-46 52,0 -99,124 -298,244 -161,98 -472,246 -514,246 -6,0 -19,-4 -27,-10 z"
       id="path40"
       inkscape:connector-curvature="0" />
    <path
       d="m 8912,13375 c -135,-67 -250,-160 -228,-182 19,-20 187,69 290,154 106,86 79,98 -62,28 z"
       id="path42"
       inkscape:connector-curvature="0" />
    <path
       d="m 8749,13166 c -42,-23 -97,-57 -122,-74 -28,-20 -47,-28 -49,-20 -6,18 -28,-1 -28,-25 0,-12 -9,-28 -19,-34 -45,-28 -107,-209 -94,-273 8,-43 23,-33 43,28 32,98 103,188 244,310 102,88 125,111 126,125 0,15 -28,5 -101,-37 z"
       id="path44"
       inkscape:connector-curvature="0" />
    <path
       d="m 7625,13023 c -30,-141 -51,-197 -115,-302 -71,-117 -66,-147 13,-68 78,78 151,251 145,344 -2,36 -7,49 -20,51 -12,2 -19,-5 -23,-25 z"
       id="path46"
       inkscape:connector-curvature="0" />
    <path
       d="m 4535,13018 c 11,-40 123,-260 181,-358 58,-96 187,-273 218,-299 9,-8 19,-11 22,-8 9,9 -190,350 -339,580 -66,102 -96,133 -82,85 z"
       id="path48"
       inkscape:connector-curvature="0" />
    <path
       d="m 7150,12482 c 0,-41 106,-133 205,-178 74,-34 155,-44 155,-20 0,9 -8,19 -17,22 -51,16 -147,65 -223,115 -88,57 -120,74 -120,61 z"
       id="path50"
       inkscape:connector-curvature="0" />
    <path
       d="m 5730,12445 c -7,-21 -23,-60 -35,-85 -27,-54 -42,-145 -26,-155 7,-4 16,6 22,25 10,28 12,29 24,13 13,-17 14,-16 24,11 16,40 24,165 13,201 l -9,30 -13,-40 z"
       id="path52"
       inkscape:connector-curvature="0" />
    <path
       d="m 7157,12364 c -10,-10 13,-57 50,-102 35,-43 116,-92 129,-79 10,10 -44,84 -95,129 -52,45 -76,60 -84,52 z"
       id="path54"
       inkscape:connector-curvature="0" />
    <path
       d="m 8352,12215 c -53,-112 -130,-178 -147,-125 -3,11 -11,20 -16,20 -13,0 -11,-34 2,-47 17,-17 3,-31 -72,-68 -38,-20 -69,-38 -69,-41 0,-8 86,5 150,23 124,34 194,125 188,244 l -3,64 -33,-70 z"
       id="path56"
       inkscape:connector-curvature="0" />
    <path
       d="m 8312,12227 c -18,-21 -33,-67 -22,-67 10,0 50,58 50,73 0,11 -17,8 -28,-6 z"
       id="path58"
       inkscape:connector-curvature="0" />
    <path
       d="m 5597,12171 c -6,-46 5,-107 18,-104 23,5 23,143 0,143 -7,0 -15,-17 -18,-39 z"
       id="path60"
       inkscape:connector-curvature="0" />
    <path
       d="m 5563,12135 c -30,-74 -54,-235 -35,-235 6,0 15,15 21,33 15,48 34,179 29,207 -3,25 -3,25 -15,-5 z"
       id="path62"
       inkscape:connector-curvature="0" />
    <path
       d="m 6795,12090 c -26,-10 -42,-29 -47,-55 -3,-16 -14,-21 -62,-27 -59,-8 -119,-33 -191,-82 -21,-14 -49,-26 -62,-26 -40,0 -59,-17 -98,-85 -20,-36 -47,-72 -60,-81 -55,-36 -89,-161 -106,-394 l -11,-155 -88,-90 c -116,-120 -169,-215 -139,-251 19,-23 39,-16 46,16 10,53 110,150 154,150 8,0 6,-7 -4,-18 -21,-23 -22,-42 -2,-42 20,0 83,57 101,92 23,44 41,166 49,323 10,207 20,266 47,290 13,11 38,43 56,72 21,33 42,53 60,58 14,3 51,22 82,41 61,37 138,66 226,84 79,16 86,23 78,77 -3,23 -3,43 1,43 14,0 53,-25 126,-82 76,-58 109,-71 109,-43 0,52 179,-52 284,-164 52,-56 55,-76 25,-147 -11,-28 -10,-34 4,-49 9,-9 17,-28 17,-43 0,-57 63,-121 122,-123 l 23,0 -22,-9 c -34,-14 -28,-27 15,-34 66,-10 132,18 132,56 0,18 -4,19 -36,14 -19,-4 -41,-9 -47,-11 -7,-3 -24,22 -39,58 -21,48 -28,82 -30,153 -4,79 -9,101 -37,158 -63,128 -187,219 -332,244 -36,7 -109,30 -161,52 -94,39 -142,47 -183,30 z"
       id="path64"
       inkscape:connector-curvature="0" />
    <path
       d="m 7845,12070 c -48,-38 -121,-60 -203,-60 -64,0 -65,0 -47,-20 29,-32 99,-54 153,-46 104,14 194,83 177,136 -9,28 -36,25 -80,-10 z"
       id="path66"
       inkscape:connector-curvature="0" />
    <path
       d="m 5480,12041 c -28,-54 -68,-285 -51,-296 18,-11 39,59 65,220 13,84 8,115 -14,76 z"
       id="path68"
       inkscape:connector-curvature="0" />
    <path
       d="m 5406,11951 c -35,-56 -77,-335 -48,-317 17,10 40,95 52,191 5,50 13,100 16,113 6,21 -9,31 -20,13 z"
       id="path70"
       inkscape:connector-curvature="0" />
    <path
       d="m 7687,11923 c -11,-18 15,-53 56,-77 46,-27 177,-49 177,-30 0,9 -202,114 -220,114 -5,0 -11,-3 -13,-7 z"
       id="path72"
       inkscape:connector-curvature="0" />
    <path
       d="m 7590,11883 c 0,-6 13,-28 30,-51 56,-78 274,-202 354,-202 73,0 48,21 -177,144 -87,47 -169,93 -182,102 -14,9 -25,12 -25,7 z"
       id="path74"
       inkscape:connector-curvature="0" />
    <path
       d="m 7704,11689 c -26,-43 289,-199 401,-199 88,0 52,25 -185,125 -183,77 -208,86 -216,74 z"
       id="path76"
       inkscape:connector-curvature="0" />
    <path
       d="m 7870,11502 c 0,-6 37,-32 83,-58 75,-43 237,-159 237,-169 0,-3 -11,0 -25,5 -44,17 -29,-11 53,-94 42,-43 69,-76 60,-73 -9,3 -34,9 -55,13 l -38,7 43,-47 c 43,-47 102,-133 102,-149 0,-5 -16,0 -36,12 -80,48 -72,19 24,-82 43,-45 89,-98 103,-117 22,-32 19,-31 -50,23 -114,89 -119,79 -25,-48 36,-50 75,-108 86,-130 19,-39 17,-37 -51,29 -74,74 -100,81 -62,18 38,-63 104,-202 99,-208 -3,-2 -20,18 -37,45 -70,109 -78,87 -25,-67 43,-125 42,-160 -3,-80 -40,70 -58,84 -49,37 12,-63 19,-227 11,-266 l -8,-38 -7,30 c -4,17 -8,48 -9,70 -2,48 -17,77 -29,57 -5,-7 -14,-50 -21,-95 -14,-98 -59,-226 -72,-206 -5,8 -9,34 -9,59 0,71 -14,77 -35,17 -43,-122 -117,-259 -131,-244 -2,2 3,26 11,53 17,58 19,74 5,74 -26,0 -224,-373 -218,-412 3,-24 12,-16 122,110 36,41 46,48 46,32 0,-32 26,-24 56,18 38,51 76,92 86,92 4,0 8,-9 8,-20 0,-35 17,-22 83,63 36,45 72,89 81,96 15,12 15,10 0,-24 -18,-43 -14,-51 15,-35 13,6 47,63 82,133 l 60,122 -5,-58 c -5,-60 0,-87 15,-87 14,0 37,93 50,201 12,102 21,110 33,29 7,-50 21,-78 33,-67 9,9 8,202 -1,279 l -7,53 33,-65 c 18,-36 38,-64 43,-63 17,4 17,99 1,131 -24,47 -66,163 -57,158 5,-3 14,-20 21,-38 17,-43 15,-41 39,-29 l 20,11 -21,48 c -12,26 -52,102 -91,170 -67,119 -80,154 -42,112 20,-22 45,-27 45,-7 0,6 -21,43 -45,81 -25,38 -45,73 -45,78 0,5 20,-7 44,-26 107,-88 58,4 -88,168 -68,76 -78,91 -68,107 15,24 -2,40 -89,85 -38,19 -69,36 -69,38 0,2 23,1 50,-2 116,-11 12,50 -180,106 -129,38 -180,48 -180,34 z"
       id="path78"
       inkscape:connector-curvature="0" />
    <path
       d="m 7200,11401 c 0,-11 64,-106 145,-216 42,-57 63,-76 90,-84 76,-21 102,14 61,84 -14,24 -26,51 -26,60 0,10 -27,28 -74,49 -41,19 -94,53 -119,75 -41,38 -77,53 -77,32 z"
       id="path80"
       inkscape:connector-curvature="0" />
    <path
       d="m 7517,11035 c -66,-25 -94,-51 -112,-108 -46,-140 -112,-222 -267,-330 -86,-59 -120,-97 -88,-97 23,0 129,46 177,76 71,45 192,171 232,241 96,170 120,216 115,224 -7,11 -10,11 -57,-6 z"
       id="path82"
       inkscape:connector-curvature="0" />
    <path
       d="m 6294,10390 c -59,-13 -76,-40 -25,-40 43,0 78,-16 124,-55 64,-55 90,-39 47,30 -34,55 -84,77 -146,65 z"
       id="path84"
       inkscape:connector-curvature="0" />
    <path
       d="m 4965,9829 c 4,-19 3,-34 -4,-38 -5,-4 -13,-33 -17,-65 -9,-78 8,-68 31,18 17,64 15,116 -6,116 -7,0 -8,-12 -4,-31 z"
       id="path86"
       inkscape:connector-curvature="0" />
    <path
       d="m 6177,9733 c -7,-7 105,-231 133,-265 62,-77 8,93 -60,190 -52,74 -63,85 -73,75 z"
       id="path88"
       inkscape:connector-curvature="0" />
    <path
       d="m 7807,9670 c -40,-47 -154,-222 -162,-247 -5,-17 -2,-23 9,-23 25,0 81,55 126,124 69,107 90,222 27,146 z"
       id="path90"
       inkscape:connector-curvature="0" />
    <path
       d="m 6220,9506 c 0,-29 45,-178 66,-218 18,-34 34,-36 34,-5 0,62 -68,247 -91,247 -5,0 -9,-11 -9,-24 z"
       id="path92"
       inkscape:connector-curvature="0" />
    <path
       d="m 6913,9384 c -17,-26 -32,-154 -19,-154 11,0 53,101 60,143 6,29 4,37 -8,37 -9,0 -23,-12 -33,-26 z"
       id="path94"
       inkscape:connector-curvature="0" />
    <path
       d="m 6825,9349 c -11,-33 -7,-106 6,-131 l 12,-22 14,28 c 8,15 15,53 16,84 2,52 0,57 -20,60 -15,2 -23,-4 -28,-19 z"
       id="path96"
       inkscape:connector-curvature="0" />
    <path
       d="m 6225,9328 c -6,-16 11,-243 21,-284 3,-13 10,-24 15,-24 12,0 11,213 0,264 -11,46 -28,66 -36,44 z"
       id="path98"
       inkscape:connector-curvature="0" />
    <path
       d="m 6764,9308 c -15,-48 5,-166 26,-153 4,2 10,24 13,47 10,83 -20,166 -39,106 z"
       id="path100"
       inkscape:connector-curvature="0" />
    <path
       d="m 6193,9083 c -10,-36 -10,-259 0,-269 12,-13 15,-2 27,91 17,133 -3,263 -27,178 z"
       id="path102"
       inkscape:connector-curvature="0" />
    <path
       d="m 6123,8753 c 6,-64 5,-66 -6,-29 -7,22 -18,41 -26,44 -12,4 -13,-10 -9,-75 9,-123 47,-174 49,-65 1,31 4,45 6,30 5,-30 27,-38 37,-12 12,30 5,89 -14,132 -29,65 -44,55 -37,-25 z"
       id="path104"
       inkscape:connector-curvature="0" />
    <path
       d="m 9079,8546 c -50,-38 -185,-191 -211,-239 -25,-45 -101,-287 -93,-295 7,-8 15,2 129,153 147,194 236,342 236,390 0,33 -8,32 -61,-9 z"
       id="path106"
       inkscape:connector-curvature="0" />
    <path
       d="m 9090,8344 c -30,-42 -97,-130 -149,-196 -51,-66 -104,-144 -117,-173 -23,-49 -24,-63 -22,-197 3,-132 4,-140 17,-110 29,70 100,210 140,275 101,165 226,433 215,461 -11,29 -29,17 -84,-60 z"
       id="path108"
       inkscape:connector-curvature="0" />
    <path
       d="m 9164,8207 c -11,-17 -42,-66 -67,-107 -25,-41 -66,-99 -92,-129 -85,-100 -131,-217 -141,-361 -6,-80 9,-297 22,-309 10,-10 22,23 44,118 39,178 71,276 132,411 33,74 78,176 99,226 55,129 57,235 3,151 z"
       id="path110"
       inkscape:connector-curvature="0" />
    <path
       d="m 6758,8180 c -10,-23 -68,-234 -68,-248 0,-48 48,40 70,129 12,46 10,146 -2,119 z"
       id="path112"
       inkscape:connector-curvature="0" />
    <path
       d="m 6578,7963 c -9,-16 -57,-75 -108,-133 -101,-117 -118,-140 -98,-140 30,0 248,255 248,291 0,19 -27,8 -42,-18 z"
       id="path114"
       inkscape:connector-curvature="0" />
    <path
       d="m 9149,7938 c -139,-191 -187,-381 -177,-698 5,-156 20,-232 38,-199 7,13 200,914 200,934 0,3 -7,5 -15,5 -8,0 -29,-19 -46,-42 z"
       id="path116"
       inkscape:connector-curvature="0" />
    <path
       d="m 6366,7820 c -43,-33 -118,-82 -167,-111 -49,-28 -89,-55 -89,-60 0,-47 274,103 325,179 48,71 32,69 -69,-8 z"
       id="path118"
       inkscape:connector-curvature="0" />
    <path
       d="m 9236,7723 c -68,-103 -127,-354 -127,-541 0,-120 19,-272 48,-374 12,-46 20,-58 36,-58 19,0 19,4 13,70 -4,51 0,109 19,222 24,149 40,329 52,591 7,140 1,153 -41,90 z"
       id="path120"
       inkscape:connector-curvature="0" />
    <path
       d="m 9356,7550 c -9,-29 -30,-122 -47,-204 -27,-132 -30,-165 -26,-261 4,-98 9,-121 44,-211 47,-122 88,-194 110,-194 13,0 14,7 9,38 -3,20 -9,91 -11,157 -6,128 -3,129 35,23 34,-93 156,-268 178,-254 14,8 9,37 -28,172 -16,56 -42,184 -59,285 -36,215 -48,262 -64,257 -11,-4 -46,-100 -63,-173 l -7,-30 -9,30 c -9,27 -18,199 -18,331 0,27 -6,59 -14,69 -13,18 -15,15 -30,-35 z"
       id="path122"
       inkscape:connector-curvature="0" />
    <path
       d="m 9594,7114 c -21,-115 25,-264 109,-348 43,-43 118,-78 134,-62 12,11 -11,57 -65,131 -46,63 -72,120 -126,268 -21,56 -42,61 -52,11 z"
       id="path124"
       inkscape:connector-curvature="0" />
    <path
       d="m 10710,7034 c -48,-32 -103,-90 -160,-166 -31,-43 -60,-75 -64,-71 -3,3 -6,21 -6,40 0,35 -14,44 -24,17 -3,-9 -42,-74 -86,-145 -108,-174 -107,-204 5,-129 33,22 68,40 78,40 10,0 56,36 101,79 68,65 87,78 108,74 15,-3 43,4 68,17 23,12 44,19 46,17 3,-2 0,-17 -6,-32 -17,-44 0,-50 64,-26 31,12 71,21 88,21 l 31,0 -23,-26 c -33,-34 -16,-44 74,-44 88,0 137,-15 184,-56 l 37,-33 -62,-1 c -48,0 -63,-3 -63,-15 0,-8 16,-18 38,-24 20,-6 62,-17 92,-25 35,-10 71,-29 95,-50 l 40,-35 -35,9 c -44,12 -90,13 -90,1 0,-11 50,-54 124,-106 31,-22 75,-66 99,-99 74,-103 117,-156 127,-156 23,0 11,52 -40,180 -20,51 -20,53 -2,37 23,-21 42,-22 42,-2 0,28 -49,112 -100,174 l -51,61 41,-16 c 22,-9 43,-14 47,-11 8,9 -33,62 -80,102 -23,20 -78,53 -122,74 -44,20 -96,45 -115,54 -32,16 -33,17 -6,12 15,-3 41,-9 57,-12 23,-4 29,-2 29,11 0,36 -129,91 -265,112 -121,19 -120,19 -101,46 41,59 0,75 -96,38 -29,-11 -63,-20 -76,-20 l -22,0 25,40 c 14,22 25,44 25,50 0,16 -43,12 -70,-6 z"
       id="path126"
       inkscape:connector-curvature="0" />
    <path
       d="m 9736,6981 c -17,-27 34,-132 85,-175 29,-25 79,-36 79,-17 0,13 -133,194 -147,198 -6,2 -14,0 -17,-6 z"
       id="path128"
       inkscape:connector-curvature="0" />
    <path
       d="m 6517,4723 c -4,-3 -7,-19 -7,-35 0,-22 -5,-28 -21,-28 -18,0 -19,-2 -9,-15 28,-33 75,-9 60,31 -5,13 -7,31 -4,39 6,15 -7,21 -19,8 z"
       id="path130"
       inkscape:connector-curvature="0" />
    <path
       d="m 6375,4156 c -9,-14 -13,-30 -9,-37 5,-8 9,-7 16,5 5,9 16,16 24,16 9,0 14,7 12,17 -5,27 -25,26 -43,-1 z"
       id="path132"
       inkscape:connector-curvature="0" />
    <path
       d="m 11945,2025 c -22,-19 -44,-35 -50,-35 -5,0 -26,-28 -45,-62 -19,-34 -54,-82 -77,-108 -23,-26 -51,-71 -62,-101 -12,-30 -44,-94 -72,-144 -119,-210 -143,-275 -105,-283 23,-5 81,50 153,146 81,110 307,491 322,545 24,83 1,98 -64,42 z"
       id="path134"
       inkscape:connector-curvature="0" />
    <path
       d="m 12065,1929 c -122,-118 -184,-200 -221,-292 -18,-45 -48,-100 -66,-122 -97,-114 -178,-275 -139,-275 6,0 38,21 72,48 98,73 231,261 360,507 76,144 90,178 79,195 -6,10 -27,-4 -85,-61 z"
       id="path136"
       inkscape:connector-curvature="0" />
    <path
       d="m 12165,1781 c -8,-17 -32,-42 -53,-55 -71,-46 -139,-134 -154,-199 -5,-23 -21,-57 -36,-76 l -26,-35 48,34 c 136,98 209,166 237,220 34,67 42,133 17,138 -11,2 -23,-8 -33,-27 z"
       id="path138"
       inkscape:connector-curvature="0" />
    <path
       d="m 7144,1423 c -26,-42 -105,-149 -176,-237 -71,-90 -146,-196 -170,-241 -23,-44 -57,-105 -75,-135 -38,-64 -45,-120 -14,-120 27,0 132,99 201,190 56,73 157,236 197,315 54,106 115,305 94,305 -5,0 -30,-35 -57,-77 z"
       id="path140"
       inkscape:connector-curvature="0" />
    <path
       d="m 7294,1328 c -12,-12 -33,-46 -47,-73 -32,-65 -101,-156 -191,-253 -134,-144 -221,-260 -289,-383 -79,-141 -24,-145 111,-8 152,154 331,424 403,607 44,113 48,149 13,110 z"
       id="path142"
       inkscape:connector-curvature="0" />
    <path
       d="M 7352,1098 C 7329,1063 7249,968 7174,885 6966,656 6840,479 6840,417 c 0,-61 83,-17 205,108 171,174 355,472 367,594 5,54 -14,47 -60,-21 z"
       id="path144"
       inkscape:connector-curvature="0" />
    <path
       d="M 7477,984 C 7464,962 7386,871 7304,780 7111,566 6860,250 6860,221 c 0,-32 146,51 238,134 168,153 458,613 414,657 -7,7 -18,-2 -35,-28 z"
       id="path146"
       inkscape:connector-curvature="0" />
    <path
       d="M 7521,742 C 7488,698 7388,585 7297,489 7094,273 7072,248 7027,181 c -45,-66 -48,-91 -9,-91 43,0 89,34 213,159 198,199 326,391 363,544 11,46 -10,31 -73,-51 z"
       id="path148"
       inkscape:connector-curvature="0" />
    <path
       d="M 7651,588 C 7600,519 7495,416 7350,292 7215,176 7070,36 7070,21 c 0,-11 52,-21 111,-21 44,0 54,5 122,60 41,32 101,88 134,123 62,66 191,267 239,370 34,76 20,96 -25,35 z"
       id="path150"
       inkscape:connector-curvature="0" />
    <path
       d="M 7719,468 C 7695,439 7609,345 7528,260 7448,175 7363,81 7340,53 l -42,-53 96,0 95,0 41,61 c 23,33 73,104 112,157 74,102 131,198 149,251 9,27 9,35 -2,42 -21,13 -23,12 -70,-43 z"
       id="path152"
       inkscape:connector-curvature="0" />
    <path
       d="M 8030,375 C 8018,360 7959,267 7848,86 7822,42 7802,5 7804,2 c 3,-2 41,-1 85,3 l 80,7 15,69 c 9,38 32,113 51,166 19,54 35,108 35,121 0,25 -22,29 -40,7 z"
       id="path154"
       inkscape:connector-curvature="0" />
    <path
       d="M 7764,268 C 7709,211 7639,136 7610,100 7580,64 7550,27 7541,18 7528,1 7533,0 7632,0 l 105,0 13,48 c 14,48 44,111 105,217 36,61 45,105 22,105 -7,0 -58,-46 -113,-102 z"
       id="path156"
       inkscape:connector-curvature="0" />
  </g>
</svg>
