<?xml version="1.0" encoding="UTF-8" standalone="no"?>
<!-- Created with Inkscape (http://www.inkscape.org/) -->

<svg
   xmlns:dc="http://purl.org/dc/elements/1.1/"
   xmlns:cc="http://creativecommons.org/ns#"
   xmlns:rdf="http://www.w3.org/1999/02/22-rdf-syntax-ns#"
   xmlns:svg="http://www.w3.org/2000/svg"
   xmlns="http://www.w3.org/2000/svg"
   xmlns:sodipodi="http://sodipodi.sourceforge.net/DTD/sodipodi-0.dtd"
   xmlns:inkscape="http://www.inkscape.org/namespaces/inkscape"
   version="1.1"
   width="238.11"
   height="160.84"
   id="svg3760"
   inkscape:version="0.48.5 r10040"
   sodipodi:docname="logo_stampa_breve.svg">
  <sodipodi:namedview
     pagecolor="#ffffff"
     bordercolor="#666666"
     borderopacity="1"
     objecttolerance="10"
     gridtolerance="10"
     guidetolerance="10"
     inkscape:pageopacity="0"
     inkscape:pageshadow="2"
     inkscape:window-width="1440"
     inkscape:window-height="834"
     id="namedview51"
     showgrid="false"
     fit-margin-top="0"
     fit-margin-left="0"
     fit-margin-right="0"
     fit-margin-bottom="0"
     inkscape:zoom="2"
     inkscape:cx="40.305371"
     inkscape:cy="109.71523"
     inkscape:window-x="0"
     inkscape:window-y="27"
     inkscape:window-maximized="1"
     inkscape:current-layer="svg3760"
     units="px" />
  <defs
     id="defs3762" />
  <metadata
     id="metadata3765">
    <rdf:RDF>
      <cc:Work
         rdf:about="">
        <dc:format>image/svg+xml</dc:format>
        <dc:type
           rdf:resource="http://purl.org/dc/dcmitype/StillImage" />
        <dc:title></dc:title>
      </cc:Work>
    </rdf:RDF>
  </metadata>
  <rect
     style="fill:#000000;fill-opacity:1;stroke:none"
     id="rect2998"
     width="238.11"
     height="160.84"
     x="0"
     y="0" />
  <g
     id="g3107"
     transform="translate(-23.101503,5.9136705)"
     inkscape:export-filename="/home/maria/Sviluppo/mjg/Design/Grafiche marketing/logo_stampa_breve.png"
     inkscape:export-xdpi="377.88892"
     inkscape:export-ydpi="377.88892">
    <g
       id="g3048">
      <path
         style="font-size:141.13322449px;font-style:normal;font-variant:normal;font-weight:normal;font-stretch:normal;text-indent:0;text-align:start;text-decoration:none;line-height:125%;letter-spacing:0px;word-spacing:0px;text-transform:none;direction:ltr;block-progression:tb;writing-mode:lr-tb;text-anchor:start;baseline-shift:baseline;color:#000000;fill:#ffffff;fill-opacity:1;fill-rule:nonzero;stroke:none;stroke-width:11.66298103;marker:none;visibility:visible;display:inline;overflow:visible;enable-background:accumulate;font-family:Krinkes Regular PERSONAL USE;-inkscape-font-specification:Krinkes Regular PERSONAL USE"
         d="m 184.75168,-5.8671194 -1.49056,3.3466467 -3.3383,7.4721623 -3.73149,8.4470454 8.88831,0.03448 4.03328,0.0049 c -1.16636,3.240937 -2.50231,6.814801 -4.09892,11.078365 -1.76884,4.723163 -3.69865,9.727044 -5.78725,15.0243 l -0.022,0.06655 0.004,0.03145 c -1.98659,5.311719 -3.87333,10.283663 -5.64979,14.911322 l -0.0259,0.0352 0.004,0.03145 c -0.14848,0.401311 -0.24018,0.646314 -0.38532,1.037724 -0.15684,-0.67606 -0.27285,-1.350829 -0.52478,-2.008777 -1.74942,-4.568368 -6.72662,-7.615183 -11.30227,-7.679021 l -0.0299,0.0037 -0.0637,-0.02396 -0.0299,0.0037 c 0.003,-4.6e-5 -0.0518,0.0075 -0.0597,0.0075 -0.004,-8e-6 -0.0236,0.0037 -0.0299,0.0037 -0.0303,-2.37e-4 -0.0592,0.01146 -0.0895,0.01122 l -0.0299,0.0037 -0.0299,0.0037 c -4.47419,0.04711 -8.78202,1.840877 -12.23935,4.917866 -3.42292,3.022021 -5.95022,7.120888 -7.77519,11.986169 l -0.0259,0.0352 0.004,0.03145 c -1.39121,3.830695 -2.07637,7.790589 -1.89507,11.727602 0.17967,3.79076 1.1833,7.477357 2.92738,10.771832 l 0.0496,0.153365 0.10526,0.114463 c 1.94494,3.245292 4.66258,5.936653 7.89754,7.850621 l 0.0637,0.02396 0.0338,0.02771 c 3.56349,2.021186 7.65489,2.940812 12.09002,3.080008 l 0.0934,0.02023 0.0597,-0.0075 0.66855,0.01191 c 7.81108,0.01072 14.89542,-2.039611 20.64397,-6.32282 5.82177,-4.337862 10.18623,-10.973303 13.39567,-19.393416 l 0.0181,-0.09801 0.0479,-0.101752 c 0.30624,-0.884645 0.91782,-2.692776 1.82134,-5.303121 l 0.0299,-0.0037 c 1.05284,-2.845672 2.24539,-6.153155 3.60995,-9.899972 1.3613,-3.738003 2.8314,-7.737001 4.40259,-12.042023 l -0.004,-0.03145 0.0259,-0.0352 c 1.5735,-4.428842 3.0962,-8.72073 4.56486,-12.924117 1.45813,-4.173867 2.80235,-8.063675 4.05392,-11.679133 0.008,-0.02059 0.0149,-0.04611 0.022,-0.06655 0.79551,-2.184751 1.31438,-3.654598 1.93286,-5.380941 l 3.58157,0.02965 3.48807,0.0095 1.49846,-3.283808 3.49147,-7.4594489 3.96243,-8.5398379 -9.0674,-0.011843 -36.26967,-0.048088 -3.51792,-0.00572 z m 3.59012,5.90123353 36.23982,0.05183131 -3.45769,7.48713396 -7.46166,-0.021872 c -0.83729,2.3797642 -1.9428,5.4519696 -3.30462,9.1914386 -1.25529,3.626457 -2.61506,7.521409 -4.07984,11.714301 -1.46501,4.192931 -2.96485,8.50094 -4.53501,12.920373 -1.57162,4.306207 -3.03682,8.333978 -4.39864,12.073447 -1.36192,3.739604 -2.5697,7.004168 -3.61784,9.837125 -0.94138,2.719787 -1.57738,4.564943 -1.89119,5.471461 -2.9371,7.705628 -6.76989,13.282917 -11.47824,16.791155 -4.70847,3.508253 -10.50927,5.256949 -17.4132,5.247461 l -0.63474,0.0158 c -3.77681,-0.118533 -6.9749,-0.927894 -9.57977,-2.405353 -2.49699,-1.477361 -4.45039,-3.390924 -5.87853,-5.773876 -1.32137,-2.496002 -2.0686,-5.232919 -2.20833,-8.180991 -0.14098,-3.061327 0.37361,-6.178391 1.52596,-9.351406 1.57268,-4.192676 3.64986,-7.419878 6.21431,-9.683949 2.67106,-2.377237 5.62474,-3.573138 8.86099,-3.568678 3.12825,0.0042 5.19609,1.337812 6.1952,3.946838 0.99901,2.609049 0.8047,5.699748 -0.55889,9.325888 -1.46856,3.85288 -3.42484,6.931185 -5.8814,9.195383 -2.34869,2.264301 -4.97151,3.556375 -7.88044,3.892547 0.45111,1.814644 1.3853,3.300711 2.80002,4.43639 1.41336,1.022318 3.18907,1.528866 5.34661,1.531823 l 0.81779,-0.0069 c 2.80221,-0.222864 4.93914,-1.352371 6.42728,-3.391161 1.59603,-2.038563 2.85417,-4.178697 3.80061,-6.444969 0.20959,-0.566588 0.91361,-2.494077 2.06469,-5.780466 1.25886,-3.286158 2.70528,-7.187581 4.38228,-11.720317 1.78351,-4.645998 3.67984,-9.65193 5.67177,-14.977904 2.09983,-5.325756 4.05268,-10.36653 5.83512,-15.126067 1.78226,-4.759253 3.2819,-8.897185 4.53836,-12.410126 1.36434,-3.512701 2.27619,-5.765377 2.69671,-6.7852965 l -12.46594,-0.0327 3.30844,-7.46841861 z"
         id="path3748-9-1"
         inkscape:connector-curvature="0" />
      <path
         inkscape:connector-curvature="0"
         style="font-size:141.13322449px;font-style:normal;font-variant:normal;font-weight:normal;font-stretch:normal;text-indent:0;text-align:start;text-decoration:none;line-height:125%;letter-spacing:0px;word-spacing:0px;text-transform:none;direction:ltr;block-progression:tb;writing-mode:lr-tb;text-anchor:start;baseline-shift:baseline;color:#000000;fill:#ffffff;fill-opacity:1;fill-rule:nonzero;stroke:none;stroke-width:11.66298103;marker:none;visibility:visible;display:inline;overflow:visible;enable-background:accumulate;font-family:Krinkes Regular PERSONAL USE;-inkscape-font-specification:Krinkes Regular PERSONAL USE"
         d="m 150.90099,-5.5485133 c -1.22008,-0.153146 -2.44803,-0.223589 -3.70708,-0.226441 -1.28902,-0.0029 -2.5939,0.04669 -3.95035,0.185848 l -0.0298,-0.0044 -0.0298,-0.0044 c -1.19988,0.137071 -2.34064,0.377589 -3.41051,0.649569 l 0.005,-0.03138 c -0.0485,0.01119 -0.0803,0.03395 -0.1283,0.04511 -1.00623,0.234179 -1.91869,0.468992 -2.74646,0.683449 l -2.6228,0.669673 -1.16647,2.548953 -3.3547,7.2840635 -3.84376,8.3323408 4.49275,0.05418 -21.97785,28.610611 1.01545,-20.91349 0.005,-0.03138 c 0.37187,-8.335279 -0.77506,-15.366498 -4.78533,-20.5523068 -0.0176,-0.023179 -0.0326,-0.048347 -0.0503,-0.071439 -4.00394,-5.2421542 -10.480267,-7.5781575 -17.643464,-7.5949495 -1.366203,-0.003 -2.629039,0.06617 -3.831288,0.203401 l -0.06415,0.0226 -0.02976,-0.0044 c -0.966196,0.124527 -2.013193,0.313321 -3.128778,0.595073 l 0.0046,-0.03138 c -0.04583,0.01056 -0.08275,0.03451 -0.128292,0.04511 -0.978494,0.226583 -1.91078,0.4393583 -2.810615,0.7060043 l -3.722515,1.115744 -0.412663,4.03655989 -0.744233,7.31681551 -0.669806,6.3994696 6.136931,0.0405 0.515217,0.01194 -25.997127,63.710237 -0.03905,0.05827 -0.0046,0.03138 c -1.383218,3.555262 -1.81478,7.604823 -0.465147,11.199277 l 0.06153,0.201135 0.09134,0.205531 c 1.518132,3.305811 4.870047,5.7175 8.215122,6.364947 0.0096,0.0021 0.02018,0.0024 0.02981,0.0044 0.06804,0.01306 0.13576,0.05024 0.20372,0.06208 l 0.0046,-0.03136 c 1.474098,0.287078 3.067743,0.298535 4.64619,0.04478 l -0.0092,0.06262 c 0.207002,-0.02123 0.362051,-0.08334 0.563456,-0.108991 1.080951,-0.137657 2.123472,-0.316288 3.030245,-0.545581 0.02819,-0.0071 0.06606,-0.01078 0.09392,-0.0182 0.02193,-0.0049 0.04221,-0.01703 0.06415,-0.02259 1.141704,-0.269595 2.274805,-0.610012 3.37664,-1.038686 l 2.126055,-0.806929 1.012514,-2.123497 3.163787,-6.607966 1.98141,-4.157398 c 1.452145,2.762842 3.754702,5.220753 6.855241,6.100436 l 0.05953,0.0088 0.02513,0.03575 c 3.437976,0.914635 6.957417,-0.04477 9.926683,-1.737567 3.115997,-1.776477 5.838427,-4.452727 8.464287,-7.907208 0.0148,-0.01943 0.0242,-0.03873 0.039,-0.05827 1.33396,-1.712235 3.2328,-4.184528 5.75016,-7.443065 0.90251,-1.168286 2.03233,-2.595498 3.00003,-3.847161 l -0.24119,0.604658 -0.039,0.05827 0.0298,0.0044 c -1.63546,3.944579 -2.6819,7.673271 -2.88575,11.32256 -0.19629,3.513418 0.32651,6.951317 1.87901,9.944336 1.43921,2.775234 3.74396,5.056415 6.46779,6.45945 l -0.005,0.03136 c 0.0454,0.02408 0.0987,0.02941 0.1442,0.0533 2.77883,1.4463 5.91213,2.109072 9.14557,2.116633 3.26398,0.0076 6.53048,-0.640866 9.70243,-1.866664 0.0213,-0.0079 0.0429,-0.0146 0.0642,-0.02258 2.19962,-0.826771 9.52039,-3.050379 11.51126,-4.31891 -1.08115,-1.360622 -1.90622,-2.943255 -2.4513,-4.618859 -0.14455,-0.444297 -2.1789,-0.970037 -2.28355,-1.425047 -2.05638,1.496388 -7.60127,3.944507 -9.97537,4.833456 -2.60547,1.016008 -5.20493,1.511692 -7.79448,1.507737 -2.58964,-0.0041 -4.84072,-0.518721 -6.76706,-1.54188 -1.82026,-0.909632 -3.19671,-2.284547 -4.13962,-4.099513 -0.94302,-1.814993 -1.33693,-4.081097 -1.18681,-6.801243 0.14997,-2.720033 0.95447,-5.832182 2.41153,-9.343773 l 15.82214,-39.249511 c -3.19237,4.075638 -6.51644,8.380039 -9.93151,12.908673 -3.41341,4.415299 -6.64086,8.671275 -9.72523,12.74702 -3.08271,3.962421 -5.91026,7.572285 -8.4428,10.855383 -2.53269,3.283311 -4.46342,5.771788 -5.784517,7.470012 -2.31345,3.056841 -4.554057,5.222617 -6.731313,6.466127 -2.177353,1.243381 -4.11227,1.64507 -5.831621,1.188921 -1.61149,-0.455826 -2.8931,-1.770755 -3.830694,-3.925923 -0.93774,-2.155057 -1.325006,-5.105615 -1.159064,-8.845852 0.01752,-1.133432 0.11671,-3.112992 0.268502,-5.946461 0.151797,-2.833431 0.292244,-6.069082 0.456398,-9.696012 0.163967,-3.626837 0.323365,-7.42026 0.492807,-11.387264 0.169308,-3.9669 0.337164,-7.712602 0.499529,-11.226216 L 66.045621,74.964684 c -1.347529,3.398468 -1.588378,5.762949 -0.746281,7.124446 0.951784,1.248265 3.145701,1.428268 6.612624,0.526772 l -3.163787,6.607968 c -0.868508,0.338755 -1.799597,0.646197 -2.774184,0.871435 -0.866688,0.225317 -1.850971,0.384504 -2.931717,0.496083 -1.08258,0.225136 -2.148733,0.233176 -3.22421,0.0048 -2.044733,-0.343512 -3.488721,-1.447475 -4.323859,-3.262375 -0.725451,-1.928122 -0.588557,-4.182474 0.422982,-6.787982 L 82.332608,15.648886 c 0.785215,-1.925649 1.206338,-3.455637 1.223986,-4.589173 C 82.394216,9.4711811 80.50918,8.6641655 77.919533,8.6600832 L 76.309737,8.6468212 77.04935,1.361336 c 0.758697,-0.2254303 1.652697,-0.47566621 2.627414,-0.70100241 0.866671,-0.2251932 1.730163,-0.3695636 2.595081,-0.4816922 0.972866,-0.111784 2.030593,-0.1676847 3.217543,-0.1658438 6.150278,0.00957 10.617042,1.82841551 13.366285,5.45983551 2.750907,3.5180775 3.958097,9.0742049 3.624657,16.6679149 l -1.9082,38.932076 38.81571,-50.616515 c -0.8457,-1.1347446 -2.29181,-1.6932282 -4.34185,-1.6964958 l -1.60979,-0.013262 3.35932,-7.3153932 c 0.86667,-0.2252034 1.76713,-0.4267938 2.74185,-0.65211961 0.86655,-0.225221 1.81,-0.4061214 2.7829,-0.5180232 1.08074,-0.1115822 2.21365,-0.1725731 3.40073,-0.170846 1.53754,0.00242 2.93002,0.1306712 4.17407,0.3593118 3.73219,0.68591581 6.1252,2.37523791 7.21602,5.09726481 1.56397,3.5162464 0.77578,9.0599642 -2.3635,16.6493522 l -19.67928,49.116393 c -0.89838,2.265634 -0.81754,3.91217 0.24572,4.933901 1.06491,0.908529 2.50318,1.201564 4.34289,0.864366 0.80809,-0.18671 1.62981,-0.515199 2.47655,-0.91531 0.44168,-2.25866 1.18084,-4.52588 2.15182,-6.757168 l 0.0344,-0.02699 c 0.18682,-0.419944 0.38224,-0.817529 0.57631,-1.227482 -0.36103,0.387806 -0.71836,0.736812 -1.09819,1.054506 -0.0165,0.01375 -0.0224,0.04463 -0.039,0.05827 -0.22844,0.173351 -0.41805,0.237435 -0.6348,0.386574 l 18.15151,-45.148205 0.009,-0.06266 c 3.36038,-8.12224 5.03973,-14.9879708 2.36924,-21.2260707 -0.006,-0.013899 -0.0195,-0.02193 -0.0251,-0.035771 -0.0228,-0.053044 -0.0129,-0.112495 -0.0365,-0.1654302 l -0.0344,0.026991 c -1.93204,-4.6091301 -6.40583,-7.5196051 -11.2284,-8.4097527 -0.0394,-0.0068 -0.0797,-0.01074 -0.11905,-0.01755 l -0.0893,-0.01317 c -0.4048,-0.07064 -0.81356,-0.129145 -1.2203,-0.179913 z M 72.407582,63.57849 c 0.154785,0.07803 0.276624,0.116685 0.512646,0.235636 0.119579,0.06025 0.182583,0.08848 0.254022,0.133428 l -0.0046,0.03138 c -0.06735,-0.02755 -0.134273,-0.05545 -0.199106,-0.09338 -0.19595,-0.115041 -0.381614,-0.175303 -0.562935,-0.307072 z"
         id="path4249-9-4"
         sodipodi:nodetypes="cccccccccccccccccccccccccccccccccccccccccccccccccccccccccscccccccsccccsccccccccccccccscccccscccccccccccccccccccsccccccccccscccccccccccccccccccccccccccccc" />
    </g>
    <g
       transform="translate(-31.525916,-26.5)"
       id="g3074">
      <g
         transform="matrix(0.93763195,0,0,0.98698095,-1184.0626,-663.4886)"
         id="g3774"
         style="fill:#ffffff;fill-opacity:1;stroke:none">
        <g
           id="g3776"
           style="font-size:40px;font-style:normal;font-variant:normal;font-weight:normal;font-stretch:normal;line-height:125%;letter-spacing:0px;word-spacing:0px;fill:#ffffff;stroke:none;font-family:Krinkes Regular PERSONAL USE;-inkscape-font-specification:Krinkes Regular PERSONAL USE">
          <path
             d="m 1421.5825,822.2886 c -0.2134,0.56001 -0.4667,1.22667 -0.76,2 -0.2667,0.77334 -0.5601,1.54667 -0.88,2.32 -0.2934,0.77334 -0.5734,1.49334 -0.84,2.16 -0.2401,0.64 -0.4267,1.12 -0.56,1.44 -0.7467,1.81333 -1.6401,3.13333 -2.68,3.96 -1.0401,0.82666 -2.3067,1.24 -3.8,1.24 -0.2667,0 -0.52,-0.0133 -0.76,-0.04 -0.2134,-0.0267 -0.4,-0.0667 -0.56,-0.12 -0.2134,-0.0533 -0.4,-0.10667 -0.56,-0.16 l 0.6,-1.76 0.4,0 c 0.5866,0 1.0933,-0.16 1.52,-0.48 0.4266,-0.32 0.7466,-0.76 0.96,-1.32 l 0.64,-1.64 c -0.4001,0.21333 -0.8534,0.38667 -1.36,0.52 -0.48,0.13333 -1.0134,0.2 -1.6,0.2 -0.8267,0 -1.56,-0.22667 -2.2,-0.68 -0.64,-0.48 -1.1334,-1.16 -1.48,-2.04 -0.32,-0.88 -0.4667,-1.94666 -0.44,-3.2 0.053,-1.27999 0.36,-2.71999 0.92,-4.32 1.2,-3.51999 2.8533,-6.25332 4.96,-8.2 2.1066,-1.97331 4.4933,-2.95998 7.16,-2.96 0.9599,2e-5 1.7333,0.20002 2.32,0.6 0.5866,0.37335 1.0133,0.86669 1.28,1.48 0.2666,0.61335 0.3599,1.30669 0.28,2.08 -0.08,0.74668 -0.3067,1.48002 -0.68,2.2 -0.3734,0.66668 -0.7467,1.22668 -1.12,1.68 -0.3734,0.42668 -0.7334,0.77335 -1.08,1.04 -0.3467,0.24001 -0.6667,0.41335 -0.96,0.52 -0.2934,0.10668 -0.5334,0.16001 -0.72,0.16 -0.7734,10e-6 -1.2801,-0.30665 -1.52,-0.92 -0.2134,-0.61332 -0.1601,-1.34665 0.16,-2.2 0.3733,-0.98665 0.8933,-1.74665 1.56,-2.28 0.6666,-0.53332 1.3999,-0.79998 2.2,-0.8 0.2399,2e-5 0.4133,0.0134 0.52,0.04 0.08,-0.18665 0.1066,-0.38665 0.08,-0.6 -0.027,-0.21331 -0.1201,-0.41331 -0.28,-0.6 -0.1334,-0.18665 -0.3601,-0.33331 -0.68,-0.44 -0.3201,-0.13331 -0.7334,-0.19998 -1.24,-0.2 -0.9067,2e-5 -1.7467,0.24002 -2.52,0.72 -0.7734,0.45335 -1.4801,1.08002 -2.12,1.88 -0.6134,0.77335 -1.1734,1.66668 -1.68,2.68 -0.4801,1.01335 -0.8934,2.06668 -1.24,3.16 -0.4267,1.25334 -0.76,2.42668 -1,3.52 -0.2134,1.06667 -0.32,2.00001 -0.32,2.8 0,0.8 0.093,1.45334 0.28,1.96 0.2133,0.48 0.5466,0.76 1,0.84 0.3466,0.0533 0.6799,-0.0133 1,-0.2 0.3466,-0.21333 0.6666,-0.50666 0.96,-0.88 0.3199,-0.37333 0.6266,-0.81333 0.92,-1.32 0.2933,-0.50666 0.5599,-1.03999 0.8,-1.6 0.1333,-0.34666 0.2533,-0.66666 0.36,-0.96 0.1333,-0.31999 0.2533,-0.58666 0.36,-0.8 0.1066,-0.26666 0.1999,-0.50666 0.28,-0.72 l 0.32,-0.8 0.32,-0.72 5.48,0 -0.72,1.76 -1.28,0"
             id="path3778"
             style="fill:#ffffff;stroke:none"
             inkscape:connector-curvature="0" />
          <path
             d="m 1433.4781,814.5286 c 1.04,2e-5 1.8266,0.37335 2.36,1.12 0.08,-0.18665 0.1333,-0.34665 0.16,-0.48 0.053,-0.15998 0.1066,-0.26665 0.16,-0.32 l 4.4,0 c -0.08,0.24002 -0.24,0.65335 -0.48,1.24 -0.24,0.58668 -0.52,1.26668 -0.84,2.04 -0.32,0.74668 -0.6534,1.54668 -1,2.4 -0.3467,0.82668 -0.68,1.61334 -1,2.36 -0.2934,0.74667 -0.56,1.40001 -0.8,1.96 -0.2134,0.53334 -0.3467,0.88001 -0.4,1.04 -0.2134,0.50667 -0.1867,0.86667 0.08,1.08 0.2666,0.21334 0.6266,0.28 1.08,0.2 0.4533,-0.08 0.9466,-0.32 1.48,-0.72 0.56,-0.39999 1.0133,-0.95999 1.36,-1.68 l 0.68,1.12 c -0.2667,0.64 -0.64,1.24 -1.12,1.8 -0.4534,0.53334 -0.9734,1 -1.56,1.4 -0.56,0.4 -1.1734,0.72 -1.84,0.96 -0.64,0.24 -1.28,0.36 -1.92,0.36 -0.8267,0 -1.5067,-0.17333 -2.04,-0.52 -0.5067,-0.34667 -0.8267,-0.86666 -0.96,-1.56 -0.7734,0.64 -1.56,1.14667 -2.36,1.52 -0.7734,0.37333 -1.52,0.56 -2.24,0.56 -0.9067,0 -1.6534,-0.2 -2.24,-0.6 -0.56,-0.42666 -0.96,-1 -1.2,-1.72 -0.24,-0.72 -0.3067,-1.56 -0.2,-2.52 0.08,-0.98666 0.36,-2.02666 0.84,-3.12 1.1466,-2.71999 2.5733,-4.71999 4.28,-6 1.7066,-1.27998 3.48,-1.91998 5.32,-1.92 m 1.68,2.68 c -0.24,-0.37332 -0.6267,-0.55999 -1.16,-0.56 -0.5067,10e-6 -0.9867,0.10668 -1.44,0.32 -0.4267,0.18668 -0.8667,0.50668 -1.32,0.96 -0.4267,0.42668 -0.8667,1.00001 -1.32,1.72 -0.4534,0.72001 -0.9334,1.60001 -1.44,2.64 -0.4,0.77334 -0.72,1.50667 -0.96,2.2 -0.2134,0.66667 -0.3334,1.25334 -0.36,1.76 -0.027,0.50667 0.053,0.90667 0.24,1.2 0.2133,0.29334 0.5466,0.44 1,0.44 0.4533,0 0.9466,-0.13333 1.48,-0.4 0.5333,-0.26666 1.0666,-0.64 1.6,-1.12 0.08,-0.34666 0.2,-0.69333 0.36,-1.04 l 3.32,-8.12"
             id="path3780"
             style="fill:#ffffff;stroke:none"
             inkscape:connector-curvature="0" />
          <path
             d="m 1445.9931,811.6086 c 0.7733,2e-5 1.28,0.30669 1.52,0.92 0.24,0.58668 0.1866,1.30668 -0.16,2.16 -0.24,0.64002 -0.5334,1.17335 -0.88,1.6 l 3.52,0 c -0.08,0.24001 -0.2267,0.61335 -0.44,1.12 -0.2134,0.50668 -0.4534,1.09335 -0.72,1.76 -0.2667,0.66668 -0.56,1.36001 -0.88,2.08 -0.2934,0.72001 -0.5734,1.40001 -0.84,2.04 -0.2667,0.64001 -0.5067,1.20001 -0.72,1.68 -0.1867,0.45334 -0.3067,0.76001 -0.36,0.92 -0.2134,0.50667 -0.1867,0.86667 0.08,1.08 0.2666,0.21334 0.6266,0.28 1.08,0.2 0.48,-0.08 0.9866,-0.32 1.52,-0.72 0.5333,-0.39999 0.9733,-0.95999 1.32,-1.68 l 0.68,1.12 c -0.2667,0.64 -0.64,1.24 -1.12,1.8 -0.4534,0.53334 -0.9734,1 -1.56,1.4 -0.56,0.4 -1.1734,0.72 -1.84,0.96 -0.64,0.24 -1.28,0.36 -1.92,0.36 -0.64,0 -1.2,-0.10667 -1.68,-0.32 -0.4534,-0.21333 -0.8,-0.53333 -1.04,-0.96 -0.2134,-0.42666 -0.3067,-0.96 -0.28,-1.6 0.027,-0.64 0.2133,-1.37333 0.56,-2.2 l 3.28,-7.92 c -0.48,0.24001 -0.9867,0.36001 -1.52,0.36 -0.7467,10e-6 -1.24,-0.29332 -1.48,-0.88 -0.24,-0.61332 -0.1734,-1.34665 0.2,-2.2 0.3733,-0.98665 0.88,-1.74665 1.52,-2.28 0.6666,-0.53331 1.3866,-0.79998 2.16,-0.8"
             id="path3782"
             style="fill:#ffffff;stroke:none"
             inkscape:connector-curvature="0" />
          <path
             d="m 1460.3531,814.5286 c 1.04,2e-5 1.8266,0.37335 2.36,1.12 0.08,-0.18665 0.1333,-0.34665 0.16,-0.48 0.053,-0.15998 0.1066,-0.26665 0.16,-0.32 l 4.4,0 c -0.08,0.24002 -0.24,0.65335 -0.48,1.24 -0.24,0.58668 -0.52,1.26668 -0.84,2.04 -0.32,0.74668 -0.6534,1.54668 -1,2.4 -0.3467,0.82668 -0.68,1.61334 -1,2.36 -0.2934,0.74667 -0.56,1.40001 -0.8,1.96 -0.2134,0.53334 -0.3467,0.88001 -0.4,1.04 -0.2134,0.50667 -0.1867,0.86667 0.08,1.08 0.2666,0.21334 0.6266,0.28 1.08,0.2 0.4533,-0.08 0.9466,-0.32 1.48,-0.72 0.56,-0.39999 1.0133,-0.95999 1.36,-1.68 l 0.68,1.12 c -0.2667,0.64 -0.64,1.24 -1.12,1.8 -0.4534,0.53334 -0.9734,1 -1.56,1.4 -0.56,0.4 -1.1734,0.72 -1.84,0.96 -0.64,0.24 -1.28,0.36 -1.92,0.36 -0.8267,0 -1.5067,-0.17333 -2.04,-0.52 -0.5067,-0.34667 -0.8267,-0.86666 -0.96,-1.56 -0.7734,0.64 -1.56,1.14667 -2.36,1.52 -0.7734,0.37333 -1.52,0.56 -2.24,0.56 -0.9067,0 -1.6534,-0.2 -2.24,-0.6 -0.56,-0.42666 -0.96,-1 -1.2,-1.72 -0.24,-0.72 -0.3067,-1.56 -0.2,-2.52 0.08,-0.98666 0.36,-2.02666 0.84,-3.12 1.1466,-2.71999 2.5733,-4.71999 4.28,-6 1.7066,-1.27998 3.48,-1.91998 5.32,-1.92 m 1.68,2.68 c -0.24,-0.37332 -0.6267,-0.55999 -1.16,-0.56 -0.5067,10e-6 -0.9867,0.10668 -1.44,0.32 -0.4267,0.18668 -0.8667,0.50668 -1.32,0.96 -0.4267,0.42668 -0.8667,1.00001 -1.32,1.72 -0.4534,0.72001 -0.9334,1.60001 -1.44,2.64 -0.4,0.77334 -0.72,1.50667 -0.96,2.2 -0.2134,0.66667 -0.3334,1.25334 -0.36,1.76 -0.027,0.50667 0.053,0.90667 0.24,1.2 0.2133,0.29334 0.5466,0.44 1,0.44 0.4533,0 0.9466,-0.13333 1.48,-0.4 0.5333,-0.26666 1.0666,-0.64 1.6,-1.12 0.08,-0.34666 0.2,-0.69333 0.36,-1.04 l 3.32,-8.12"
             id="path3784"
             style="fill:#ffffff;stroke:none"
             inkscape:connector-curvature="0" />
          <path
             d="m 1484.2281,814.8486 c -0.2134,0.50668 -0.4534,1.09335 -0.72,1.76 -0.2667,0.66668 -0.56,1.38668 -0.88,2.16 -0.32,0.74668 -0.64,1.53334 -0.96,2.36 -0.32,0.80001 -0.64,1.58668 -0.96,2.36 -0.7467,1.81334 -1.52,3.70667 -2.32,5.68 -1.0134,2.58667 -2.36,4.56 -4.04,5.92 -1.68,1.35999 -3.5467,2.03999 -5.6,2.04 -0.8534,-10e-6 -1.5334,-0.20001 -2.04,-0.6 -0.5067,-0.4 -0.8534,-0.90667 -1.04,-1.52 -0.2134,-0.61334 -0.2534,-1.29334 -0.12,-2.04 0.1066,-0.74667 0.36,-1.48 0.76,-2.2 0.3733,-0.61333 0.8,-1.14667 1.28,-1.6 -0.56,-0.72 -0.84,-1.65333 -0.84,-2.8 0,-1.17333 0.2933,-2.47999 0.88,-3.92 1.1733,-2.71999 2.6133,-4.71999 4.32,-6 1.7066,-1.27998 3.48,-1.91998 5.32,-1.92 0.9866,2e-5 1.7466,0.34668 2.28,1.04 l 0.28,-0.72 4.4,0 m -12,13.04 c 0.4,0 0.8266,-0.10666 1.28,-0.32 0.48,-0.24 0.96,-0.54666 1.44,-0.92 l 3.92,-9.52 c -0.2667,-0.31999 -0.64,-0.47999 -1.12,-0.48 -0.48,10e-6 -0.9467,0.10668 -1.4,0.32 -0.4267,0.18668 -0.8667,0.50668 -1.32,0.96 -0.4267,0.42668 -0.8667,1.00001 -1.32,1.72 -0.4534,0.72001 -0.9334,1.60001 -1.44,2.64 -0.4,0.77334 -0.72,1.50667 -0.96,2.2 -0.2134,0.66667 -0.3334,1.25334 -0.36,1.76 -0.027,0.50667 0.053,0.90667 0.24,1.2 0.2133,0.29334 0.56,0.44 1.04,0.44 m -1.76,2.52 c -0.32,0 -0.6134,-0.0267 -0.88,-0.08 -0.2667,-0.0533 -0.52,-0.12 -0.76,-0.2 -0.3734,0.26667 -0.72,0.65333 -1.04,1.16 -0.32,0.50667 -0.5734,1.14667 -0.76,1.92 -0.1334,0.66666 -0.04,1.18666 0.28,1.56 0.3466,0.4 0.7866,0.6 1.32,0.6 0.5066,0 1.0133,-0.18667 1.52,-0.56 0.5066,-0.34667 0.9866,-0.81334 1.44,-1.4 0.48,-0.58667 0.9066,-1.25333 1.28,-2 0.4,-0.72 0.7333,-1.44 1,-2.16 -0.5867,0.37333 -1.1734,0.66667 -1.76,0.88 -0.56,0.18667 -1.1067,0.28 -1.64,0.28"
             id="path3786"
             style="fill:#ffffff;stroke:none"
             inkscape:connector-curvature="0" />
          <path
             d="m 1490.4475,828.1686 c 0.5599,0 1.1333,-0.0933 1.72,-0.28 0.6133,-0.18666 1.1866,-0.42666 1.72,-0.72 0.5599,-0.32 1.0666,-0.68 1.52,-1.08 0.4533,-0.42666 0.8266,-0.86666 1.12,-1.32 l 0.68,1.12 c -0.6667,1.41334 -1.8134,2.52 -3.44,3.32 -1.6267,0.8 -3.5201,1.2 -5.68,1.2 -1.12,0 -2.08,-0.2 -2.88,-0.6 -0.7734,-0.42666 -1.3734,-1 -1.8,-1.72 -0.4267,-0.72 -0.6534,-1.56 -0.68,-2.52 -0.027,-0.98666 0.1733,-2.02666 0.6,-3.12 1.0133,-2.58666 2.36,-4.54665 4.04,-5.88 1.7066,-1.35998 3.5866,-2.03998 5.64,-2.04 1.0933,2e-5 1.9199,0.29335 2.48,0.88 0.5599,0.56002 0.8666,1.25335 0.92,2.08 0.08,0.80001 -0.093,1.66668 -0.52,2.6 -0.4001,0.90668 -1.0267,1.72001 -1.88,2.44 -1.2001,0.98667 -2.5867,1.48001 -4.16,1.48 l -2.56,0 c -0.3467,1.20001 -0.2267,2.2 0.36,3 0.6133,0.77334 1.5466,1.16 2.8,1.16 m 1.56,-11.84 c -0.2667,0.10668 -0.5867,0.34668 -0.96,0.72 -0.3467,0.37335 -0.7067,0.84001 -1.08,1.4 -0.3734,0.56001 -0.7601,1.18668 -1.16,1.88 -0.3734,0.69334 -0.7067,1.41334 -1,2.16 l 1.4,0 c 0.6133,10e-6 1.1333,-0.18666 1.56,-0.56 0.4266,-0.37332 0.8266,-0.94666 1.2,-1.72 0.3199,-0.58666 0.5733,-1.14665 0.76,-1.68 0.1866,-0.53332 0.2933,-0.98665 0.32,-1.36 0.027,-0.37332 -0.04,-0.63999 -0.2,-0.8 -0.1601,-0.18665 -0.4401,-0.19998 -0.84,-0.04"
             id="path3788"
             style="fill:#ffffff;stroke:none"
             inkscape:connector-curvature="0" />
        </g>
        <g
           transform="scale(-1,1)"
           id="g3790"
           style="font-size:40px;font-style:normal;font-variant:normal;font-weight:normal;font-stretch:normal;line-height:125%;letter-spacing:0px;word-spacing:0px;fill:#ffffff;stroke:none;font-family:Krinkes Regular PERSONAL USE;-inkscape-font-specification:Krinkes Regular PERSONAL USE">
          <path
             d="m -1425.7478,847.74001 c -3.3867,-0.18668 -6.7067,-0.33334 -9.96,-0.44 -3.28,-0.10668 -6.4267,-0.12001 -9.44,-0.04 -3.0133,0.08 -5.8667,0.27999 -8.56,0.6 -2.72,0.31999 -5.2267,0.81332 -7.52,1.48 -2.32,0.69332 -4.4,1.58665 -6.24,2.68 -1.8667,1.09332 -3.44,2.43998 -4.72,4.04 -0.4267,-1.09335 -1.1866,-2.12002 -2.28,-3.08 -1.0933,-0.93335 -2.4666,-1.66668 -4.12,-2.2 -1.68,-0.50668 -3.6,-0.74668 -5.76,-0.72 -2.16,0.0533 -4.52,0.49332 -7.08,1.32 1.7067,-2.05335 3.5467,-3.90668 5.52,-5.56 1.9467,-1.65334 4.0667,-3.08001 6.36,-4.28 2.2934,-1.2 4.7734,-2.14667 7.44,-2.84 2.64,-0.69334 5.4933,-1.10667 8.56,-1.24 3.3867,-0.13333 6.5067,-0.10667 9.36,0.08 2.8533,0.21333 5.56,0.50666 8.12,0.88 2.5333,0.37333 4.9733,0.78666 7.32,1.24 2.3466,0.48 4.7066,0.90666 7.08,1.28 2.3466,0.39999 4.76,0.70666 7.24,0.92 2.4533,0.23999 5.0933,0.31999 7.92,0.24 2.24,-0.0533 4.24,-0.36001 6,-0.92 1.76,-0.53334 3.2666,-1.22667 4.52,-2.08 1.2799,-0.85334 2.2933,-1.81333 3.04,-2.88 0.7733,-1.06667 1.2799,-2.12 1.52,-3.16 0.2666,-1.06666 0.2533,-2.06666 -0.04,-3 -0.2667,-0.95999 -0.8001,-1.77333 -1.6,-2.44 -1.0667,-0.85332 -2.1601,-1.10666 -3.28,-0.76 -1.12,0.32001 -2.04,1.24001 -2.76,2.76 l -0.64,-1.12 c 0.4266,-0.87999 0.9333,-1.57332 1.52,-2.08 0.6133,-0.50666 1.2533,-0.83999 1.92,-1 0.6666,-0.15999 1.3333,-0.15999 2,0 0.6666,0.13334 1.2933,0.38668 1.88,0.76 1.2799,0.88001 2.2133,2.06667 2.8,3.56 0.6133,1.46667 0.7999,3.04 0.56,4.72 -0.2401,1.68 -0.9334,3.36 -2.08,5.04 -1.1201,1.70666 -2.7601,3.21333 -4.92,4.52 -2.1334,1.30666 -4.8267,2.31999 -8.08,3.04 -3.2534,0.71999 -7.12,0.94665 -11.6,0.68"
             id="path3792"
             style="fill:#ffffff;stroke:none"
             inkscape:connector-curvature="0" />
        </g>
      </g>
      <rect
         style="fill:#ffffff;fill-opacity:1;stroke:none"
         id="rect3052"
         width="57.16526"
         height="7.6494951"
         x="54.627419"
         y="154.48085" />
      <rect
         y="154.48085"
         x="235.6274"
         height="7.6494951"
         width="57.16526"
         id="rect3072"
         style="fill:#ffffff;fill-opacity:1;stroke:none" />
    </g>
  </g>
</svg>
