<?xml version="1.0" encoding="UTF-8" standalone="no"?>
<!-- Created with Inkscape (http://www.inkscape.org/) -->

<svg
   xmlns:dc="http://purl.org/dc/elements/1.1/"
   xmlns:cc="http://creativecommons.org/ns#"
   xmlns:rdf="http://www.w3.org/1999/02/22-rdf-syntax-ns#"
   xmlns:svg="http://www.w3.org/2000/svg"
   xmlns="http://www.w3.org/2000/svg"
   xmlns:sodipodi="http://sodipodi.sourceforge.net/DTD/sodipodi-0.dtd"
   xmlns:inkscape="http://www.inkscape.org/namespaces/inkscape"
   width="744.09448819"
   height="1052.3622047"
   id="svg2"
   version="1.1"
   inkscape:version="0.48.5 r10040"
   sodipodi:docname="Nuovo documento 1">
  <defs
     id="defs4" />
  <sodipodi:namedview
     id="base"
     pagecolor="#ffffff"
     bordercolor="#666666"
     borderopacity="1.0"
     inkscape:pageopacity="0.0"
     inkscape:pageshadow="2"
     inkscape:zoom="0.49497475"
     inkscape:cx="1020.181"
     inkscape:cy="903.50013"
     inkscape:document-units="px"
     inkscape:current-layer="layer1"
     showgrid="false"
     inkscape:window-width="1440"
     inkscape:window-height="834"
     inkscape:window-x="0"
     inkscape:window-y="27"
     inkscape:window-maximized="1" />
  <metadata
     id="metadata7">
    <rdf:RDF>
      <cc:Work
         rdf:about="">
        <dc:format>image/svg+xml</dc:format>
        <dc:type
           rdf:resource="http://purl.org/dc/dcmitype/StillImage" />
        <dc:title></dc:title>
      </cc:Work>
    </rdf:RDF>
  </metadata>
  <g
     inkscape:label="Livello 1"
     inkscape:groupmode="layer"
     id="layer1">
    <g
       id="g8948"
       transform="translate(492.48418,200.21467)" />
    <g
       id="g8950"
       transform="translate(492.48418,200.21467)" />
    <g
       id="g8952"
       transform="translate(492.48418,200.21467)" />
    <g
       id="g8954"
       transform="translate(492.48418,200.21467)" />
    <g
       id="g8956"
       transform="translate(492.48418,200.21467)" />
    <g
       id="g8958"
       transform="translate(492.48418,200.21467)" />
    <g
       id="g8960"
       transform="translate(492.48418,200.21467)" />
    <g
       id="g8962"
       transform="translate(492.48418,200.21467)" />
    <g
       id="g8964"
       transform="translate(492.48418,200.21467)" />
    <g
       id="g8966"
       transform="translate(492.48418,200.21467)" />
    <g
       id="g8968"
       transform="translate(492.48418,200.21467)" />
    <g
       id="g8970"
       transform="translate(492.48418,200.21467)" />
    <g
       id="g8972"
       transform="translate(492.48418,200.21467)" />
    <g
       id="g8974"
       transform="translate(492.48418,200.21467)" />
    <g
       id="g8976"
       transform="translate(492.48418,200.21467)" />
    <g
       id="g9219"
       transform="matrix(0.1673177,0,0,0.1673177,590.30146,223.70218)" />
    <g
       id="g9221"
       transform="matrix(0.1673177,0,0,0.1673177,590.30146,223.70218)" />
    <g
       id="g9223"
       transform="matrix(0.1673177,0,0,0.1673177,590.30146,223.70218)" />
    <g
       id="g9225"
       transform="matrix(0.1673177,0,0,0.1673177,590.30146,223.70218)" />
    <g
       id="g9227"
       transform="matrix(0.1673177,0,0,0.1673177,590.30146,223.70218)" />
    <g
       id="g9229"
       transform="matrix(0.1673177,0,0,0.1673177,590.30146,223.70218)" />
    <g
       id="g9231"
       transform="matrix(0.1673177,0,0,0.1673177,590.30146,223.70218)" />
    <g
       id="g9233"
       transform="matrix(0.1673177,0,0,0.1673177,590.30146,223.70218)" />
    <g
       id="g9235"
       transform="matrix(0.1673177,0,0,0.1673177,590.30146,223.70218)" />
    <g
       id="g9237"
       transform="matrix(0.1673177,0,0,0.1673177,590.30146,223.70218)" />
    <g
       id="g9239"
       transform="matrix(0.1673177,0,0,0.1673177,590.30146,223.70218)" />
    <g
       id="g9241"
       transform="matrix(0.1673177,0,0,0.1673177,590.30146,223.70218)" />
    <g
       id="g9243"
       transform="matrix(0.1673177,0,0,0.1673177,590.30146,223.70218)" />
    <g
       id="g9245"
       transform="matrix(0.1673177,0,0,0.1673177,590.30146,223.70218)" />
    <g
       id="g9247"
       transform="matrix(0.1673177,0,0,0.1673177,590.30146,223.70218)" />
    <g
       id="g13388"
       inkscape:export-filename="/home/maria/Scrivania/officina/final template/offerta-pneumatici.png"
       inkscape:export-xdpi="246.5394"
       inkscape:export-ydpi="246.5394">
      <path
         transform="matrix(0.04189987,0,0,0.04189987,542.22963,229.13486)"
         d="m 362.85715,339.14789 a 96.785713,96.785713 0 1 1 -193.57142,0 96.785713,96.785713 0 1 1 193.57142,0 z"
         sodipodi:ry="96.785713"
         sodipodi:rx="96.785713"
         sodipodi:cy="339.14789"
         sodipodi:cx="266.07144"
         id="path2998"
         style="fill:none;stroke:#d6ff2e;stroke-width:35.30841827;stroke-miterlimit:4;stroke-opacity:1;stroke-dasharray:none"
         sodipodi:type="arc" />
      <g
         style="fill:#d6ff2e;fill-opacity:1"
         transform="matrix(0.01611386,0.01611386,-0.01611386,0.01611386,584.56472,195.90841)"
         id="g3793">
        <g
           style="fill:#d6ff2e;fill-opacity:1"
           id="g3790">
          <rect
             y="437.61508"
             x="298.19904"
             height="372.31046"
             width="53.429436"
             id="rect3780"
             style="fill:#d6ff2e;fill-opacity:1;stroke:none"
             ry="20.286146" />
        </g>
        <rect
           y="-511.06897"
           x="597.0556"
           height="372.31046"
           width="53.429436"
           id="rect3788"
           style="fill:#d6ff2e;fill-opacity:1;stroke:none"
           ry="20.286146"
           transform="matrix(0,1,-1,0,0,0)" />
      </g>
      <path
         transform="matrix(0.0161085,0,0,0.0161085,558.66023,177.48206)"
         d="m 503.05598,626.07782 a 200.01021,200.01021 0 1 1 -400.02041,0 200.01021,200.01021 0 1 1 400.02041,0 z"
         sodipodi:ry="200.01021"
         sodipodi:rx="200.01021"
         sodipodi:cy="626.07782"
         sodipodi:cx="303.04578"
         id="path3814"
         style="fill:#d6ff2e;fill-opacity:1;stroke:none"
         sodipodi:type="arc" />
      <path
         transform="matrix(0.0161085,0,0,0.0161085,544.36708,288.18042)"
         d="m 503.05598,626.07782 a 200.01021,200.01021 0 1 1 -400.02041,0 200.01021,200.01021 0 1 1 400.02041,0 z"
         sodipodi:ry="200.01021"
         sodipodi:rx="200.01021"
         sodipodi:cy="626.07782"
         sodipodi:cx="303.04578"
         id="path3818"
         style="fill:#d6ff2e;fill-opacity:1;stroke:none"
         sodipodi:type="arc" />
      <path
         sodipodi:type="arc"
         style="fill:#d6ff2e;fill-opacity:1;stroke:none"
         id="path3820"
         sodipodi:cx="303.04578"
         sodipodi:cy="626.07782"
         sodipodi:rx="200.01021"
         sodipodi:ry="200.01021"
         d="m 503.05598,626.07782 a 200.01021,200.01021 0 1 1 -400.02041,0 200.01021,200.01021 0 1 1 400.02041,0 z"
         transform="matrix(0.0161085,0,0,0.0161085,683.84789,210.04642)" />
      <g
         style="fill:#d6ff2e;fill-opacity:1"
         id="g3822"
         transform="matrix(0.01611386,0.01611386,-0.01611386,0.01611386,655.21847,180.0121)">
        <g
           style="fill:#d6ff2e;fill-opacity:1"
           id="g3824">
          <rect
             ry="20.286146"
             style="fill:#d6ff2e;fill-opacity:1;stroke:none"
             id="rect3826"
             width="53.429436"
             height="372.31046"
             x="298.19904"
             y="437.61508" />
        </g>
        <rect
           transform="matrix(0,1,-1,0,0,0)"
           ry="20.286146"
           style="fill:#d6ff2e;fill-opacity:1;stroke:none"
           id="rect3828"
           width="53.429436"
           height="372.31046"
           x="597.0556"
           y="-511.06897" />
      </g>
      <path
         transform="matrix(0.04189987,0,0,0.04189987,607.11436,171.09081)"
         d="m 362.85715,339.14789 a 96.785713,96.785713 0 1 1 -193.57142,0 96.785713,96.785713 0 1 1 193.57142,0 z"
         sodipodi:ry="96.785713"
         sodipodi:rx="96.785713"
         sodipodi:cy="339.14789"
         sodipodi:cx="266.07144"
         id="path3830"
         style="fill:none;stroke:#d6ff2e;stroke-width:35.30841827;stroke-miterlimit:4;stroke-opacity:1;stroke-dasharray:none"
         sodipodi:type="arc" />
      <path
         transform="matrix(0.04189987,0,0,0.04189987,658.00812,274.34173)"
         d="m 362.85715,339.14789 a 96.785713,96.785713 0 1 1 -193.57142,0 96.785713,96.785713 0 1 1 193.57142,0 z"
         sodipodi:ry="96.785713"
         sodipodi:rx="96.785713"
         sodipodi:cy="339.14789"
         sodipodi:cx="266.07144"
         id="path3842"
         style="fill:none;stroke:#d6ff2e;stroke-width:35.30841827;stroke-miterlimit:4;stroke-opacity:1;stroke-dasharray:none"
         sodipodi:type="arc" />
      <path
         sodipodi:type="arc"
         style="fill:#d6ff2e;fill-opacity:1;stroke:none"
         id="path3844"
         sodipodi:cx="303.04578"
         sodipodi:cy="626.07782"
         sodipodi:rx="200.01021"
         sodipodi:ry="200.01021"
         d="m 503.05598,626.07782 a 200.01021,200.01021 0 1 1 -400.02041,0 200.01021,200.01021 0 1 1 400.02041,0 z"
         transform="matrix(0.0161085,0,0,0.0161085,697.65773,290.70581)" />
      <rect
         ry="1.7857143"
         y="322.00504"
         x="538.57141"
         height="3.5714285"
         width="50"
         id="rect3870"
         style="fill:#b0b0b0;fill-opacity:1;stroke:none" />
      <rect
         style="fill:#b0b0b0;fill-opacity:1;stroke:none"
         id="rect3872"
         width="9.9999962"
         height="3.5714285"
         x="591.42853"
         y="322.00504"
         ry="1.7857143" />
      <rect
         ry="1.7857143"
         y="322.00504"
         x="603.92853"
         height="3.5714285"
         width="46.785709"
         id="rect3874"
         style="fill:#b0b0b0;fill-opacity:1;stroke:none" />
      <rect
         style="fill:#b0b0b0;fill-opacity:1;stroke:none"
         id="rect3876"
         width="55.35714"
         height="3.5714285"
         x="655.35712"
         y="322.00504"
         ry="1.7857143" />
      <rect
         ry="1.7857143"
         y="322.00504"
         x="530.71423"
         height="3.5714285"
         width="6.071425"
         id="rect3878"
         style="fill:#b0b0b0;fill-opacity:1;stroke:none" />
      <g
         transform="matrix(1.3276423,0,0,1.3276423,-216.26485,-92.139538)"
         id="g12641">
        <g
           id="g9402">
          <path
             id="path9175"
             d="m 651.23686,237.72512 h -33.853 c -2.48919,-0.004 -4.50993,2.01101 -4.51374,4.50019 0,0.004 0,0.009 0,0.0136 v 11.28433 c 0,2.49285 2.02089,4.51373 4.51374,4.51373 h 33.853 c 2.48918,0.004 4.50992,-2.01101 4.51373,-4.50019 0,-0.004 0,-0.009 0,-0.0136 v -11.28434 c 0,-2.49285 -2.02089,-4.51373 -4.51373,-4.51373 z"
             style="fill:#696969"
             inkscape:connector-curvature="0" />
          <path
             id="path9177"
             d="m 651.23686,237.72512 h -11.28434 c 2.49286,0 4.51374,2.02088 4.51374,4.51373 v 11.28434 c 1.3e-4,0.30552 -0.0304,0.61019 -0.0914,0.90951 -0.43176,2.09875 -2.27958,3.60478 -4.42233,3.60422 h 11.28434 c 2.48918,0.004 4.50992,-2.01101 4.51373,-4.50019 0,-0.004 0,-0.009 0,-0.0136 v -11.28434 c 0,-2.49285 -2.02089,-4.51374 -4.51373,-4.51374 z"
             style="fill:#5e5e5f"
             inkscape:connector-curvature="0" />
          <g
             transform="matrix(0.14105416,0,0,0.14105416,590.30146,235.46825)"
             id="g9179">
            <path
               id="path9181"
               d="M 160,80 H 464 V 96 H 160 V 80 z"
               style="fill:#535354"
               inkscape:connector-curvature="0" />
            <path
               id="path9183"
               d="m 160,112 h 304 v 16 H 160 v -16 z"
               style="fill:#535354"
               inkscape:connector-curvature="0" />
            <path
               id="path9185"
               d="M 160,48 H 464 V 64 H 160 V 48 z"
               style="fill:#535354"
               inkscape:connector-curvature="0" />
          </g>
          <path
             id="path9187"
             d="m 651.23686,278.34872 h -33.853 c -2.48919,-0.004 -4.50993,2.01101 -4.51374,4.50018 0,0.004 0,0.009 0,0.0136 v 11.28433 c 0,2.49285 2.02089,4.51373 4.51374,4.51373 h 33.853 c 2.48918,0.004 4.50992,-2.01101 4.51373,-4.50019 0,-0.004 0,-0.009 0,-0.0136 v -11.28433 c 0,-2.49285 -2.02089,-4.51373 -4.51373,-4.51373 z"
             style="fill:#696969"
             inkscape:connector-curvature="0" />
          <path
             id="path9189"
             d="m 651.23686,278.34872 h -11.28434 c 2.49286,0 4.51374,2.02088 4.51374,4.51373 v 11.28433 c 1.3e-4,0.30552 -0.0304,0.6102 -0.0914,0.90952 -0.43176,2.09875 -2.27958,3.60478 -4.42233,3.60422 h 11.28434 c 2.48918,0.004 4.50992,-2.01101 4.51373,-4.50019 0,-0.004 0,-0.009 0,-0.0136 v -11.28432 c 0,-2.49286 -2.02089,-4.51374 -4.51373,-4.51374 z"
             style="fill:#5e5e5f"
             inkscape:connector-curvature="0" />
          <g
             transform="matrix(0.14105416,0,0,0.14105416,590.30146,235.46825)"
             id="g9191">
            <path
               id="path9193"
               d="m 160,368 h 304 v 16 H 160 v -16 z"
               style="fill:#535354"
               inkscape:connector-curvature="0" />
            <path
               id="path9195"
               d="m 160,400 h 304 v 16 H 160 v -16 z"
               style="fill:#535354"
               inkscape:connector-curvature="0" />
            <path
               id="path9197"
               d="m 160,336 h 304 v 16 H 160 v -16 z"
               style="fill:#535354"
               inkscape:connector-curvature="0" />
          </g>
          <path
             id="path9199"
             d="m 646.72312,258.03692 h -33.853 c -2.48917,-0.004 -4.50992,2.01101 -4.51372,4.50019 0,0.004 0,0.009 0,0.0136 v 11.28432 c 0,2.49286 2.02088,4.51374 4.51372,4.51374 h 33.853 c 2.48919,0.004 4.50993,-2.01101 4.51374,-4.50019 0,-0.004 0,-0.009 0,-0.0136 v -11.28433 c 0,-2.49285 -2.02088,-4.51374 -4.51374,-4.51374 z"
             style="fill:#5e5e5f"
             inkscape:connector-curvature="0" />
          <path
             id="path9201"
             d="m 646.72312,258.03692 h -11.28433 c 2.49285,0 4.51373,2.02088 4.51373,4.51373 v 11.28433 c 1.5e-4,0.30552 -0.0304,0.6102 -0.0914,0.90952 -0.43177,2.09875 -2.27957,3.60478 -4.42233,3.60422 h 11.28433 c 2.48919,0.004 4.50993,-2.01101 4.51374,-4.50019 0,-0.004 0,-0.009 0,-0.0136 v -11.28432 c 0,-2.49286 -2.02088,-4.51374 -4.51374,-4.51374 z"
             style="fill:#585859"
             inkscape:connector-curvature="0" />
          <g
             transform="matrix(0.14105416,0,0,0.14105416,590.30146,235.46825)"
             id="g9203">
            <path
               id="path9205"
               d="m 128,224 h 304 v 16 H 128 v -16 z"
               style="fill:#535354"
               inkscape:connector-curvature="0" />
            <path
               id="path9207"
               d="m 128,256 h 304 v 16 H 128 v -16 z"
               style="fill:#535354"
               inkscape:connector-curvature="0" />
            <path
               id="path9209"
               d="m 128,192 h 304 v 16 H 128 v -16 z"
               style="fill:#535354"
               inkscape:connector-curvature="0" />
          </g>
          <circle
             transform="matrix(0.14105416,0,0,0.14105416,590.30146,235.46825)"
             id="circle9211"
             r="120"
             cy="288"
             cx="160"
             style="fill:#4398d1"
             sodipodi:cx="160"
             sodipodi:cy="288"
             sodipodi:rx="120"
             sodipodi:ry="120"
             d="M 280,288 C 280,354.27417 226.27417,408 160,408 93.72583,408 40,354.27417 40,288 40,221.72583 93.72583,168 160,168 c 66.27417,0 120,53.72583 120,120 z" />
          <path
             id="path9213"
             d="m 612.87012,253.52319 c -12.46438,0 -22.56866,10.10427 -22.56866,22.56866 0,12.46439 10.10428,22.56867 22.56866,22.56867 12.4644,0 22.56867,-10.10428 22.56867,-22.56867 0,-12.46439 -10.10427,-22.56866 -22.56867,-22.56866 z m 0,39.49516 c -9.34822,0 -16.92649,-7.57828 -16.92649,-16.9265 0,-9.34823 7.57827,-16.9265 16.92649,-16.9265 9.34823,0 16.92651,7.57827 16.92651,16.9265 0,9.34822 -7.57828,16.9265 -16.92651,16.9265 z"
             style="fill:#737373"
             inkscape:connector-curvature="0" />
          <path
             id="path9215"
             d="m 619.64072,276.09185 9.2746,-5.35441 c -0.18394,-0.54165 -0.38818,-1.07427 -0.62064,-1.59222 l -0.0203,-0.0395 c -0.14217,-0.31258 -0.30919,-0.61048 -0.47055,-0.9129 -0.0993,-0.18732 -0.18506,-0.38254 -0.29113,-0.56422 l -0.0158,-0.026 c -0.28211,-0.48453 -0.58636,-0.95282 -0.9129,-1.40491 -0.33021,-0.45743 -0.6827,-0.8971 -1.05735,-1.31913 l -9.2712,5.34539 v -10.72012 h -0.0406 c -0.53375,-0.1072 -1.0754,-0.19184 -1.62721,-0.24712 -1.14211,-0.11581 -2.29283,-0.11581 -3.43495,0 -0.53713,0.0541 -1.0641,0.13766 -1.5798,0.24035 -0.0293,0.0316 -0.0553,0.0677 -0.0835,0.10156 v 10.62533 l -9.26556,-5.3499 -0.0304,0.0327 c -0.36336,0.41188 -0.70866,0.83956 -1.03139,1.28528 -0.32654,0.45138 -0.6308,0.91968 -0.91291,1.40491 l -0.0158,0.026 c -0.27845,0.47973 -0.53262,0.97314 -0.7617,1.47825 l -0.0203,0.0395 c -0.23246,0.51752 -0.43967,1.04788 -0.62177,1.59109 l 9.27008,5.36006 -9.27685,5.35554 c 0.18126,0.5432 0.38889,1.07314 0.6229,1.58996 l 0.0203,0.0395 c 0.2302,0.50624 0.4841,0.99909 0.7617,1.47825 l 0.0158,0.026 c 0.28211,0.48452 0.58637,0.95282 0.91291,1.4049 0.33034,0.45729 0.68368,0.89752 1.05846,1.31914 l 9.27008,-5.34539 v 10.72012 l 0.0406,0.006 c 0.53375,0.1072 1.0754,0.19183 1.6272,0.24712 1.14212,0.11581 2.29284,0.11581 3.43495,0 0.55181,-0.0553 1.09346,-0.13992 1.62721,-0.24712 l 0.0406,-0.006 v -10.72012 l 9.26895,5.35103 c 0.37478,-0.42161 0.72812,-0.86184 1.05847,-1.31914 0.32654,-0.45137 0.63079,-0.91967 0.9129,-1.4049 l 0.0158,-0.026 c 0.10607,-0.18281 0.19183,-0.37803 0.29113,-0.56422 0.16136,-0.30242 0.32838,-0.59919 0.47055,-0.9129 l 0.0203,-0.0395 c 0.23246,-0.51682 0.44009,-1.04676 0.62289,-1.58996 l -9.27572,-5.36231 z m -9.02746,0 c 0,-1.2465 1.01037,-2.25687 2.25686,-2.25687 1.2465,0 2.25688,1.01037 2.25688,2.25687 0,1.24649 -1.01038,2.25687 -2.25688,2.25687 -1.24649,0 -2.25686,-1.01038 -2.25686,-2.25687 z"
             style="fill:#87ced9"
             inkscape:connector-curvature="0" />
          <path
             id="path9217"
             d="m 628.91532,270.73744 c -0.18394,-0.54165 -0.38818,-1.07427 -0.62064,-1.59222 l -0.0203,-0.0395 c -0.14217,-0.31258 -0.30919,-0.61048 -0.47055,-0.9129 -0.0993,-0.18732 -0.18506,-0.38254 -0.29113,-0.56422 l -0.0158,-0.026 c -0.0304,-0.0519 -0.0677,-0.0993 -0.0982,-0.15122 l -10.70545,6.27071 c 1.31956,2.10467 0.68313,4.88061 -1.42155,6.20018 -2.10466,1.31955 -4.88061,0.68312 -6.20017,-1.42155 -0.0486,-0.0775 -0.0948,-0.15643 -0.13851,-0.23669 l -10.72012,6.27409 0.0124,0.0237 0.0158,0.026 c 0.2821,0.48451 0.58636,0.95282 0.9129,1.40489 0.33035,0.4573 0.68369,0.89753 1.05847,1.31914 l 9.27234,-5.35216 v 10.72012 l 0.0406,0.006 c 0.53374,0.1072 1.07539,0.19183 1.6272,0.24713 1.14211,0.1158 2.29283,0.1158 3.43495,0 0.55181,-0.0553 1.09345,-0.13993 1.6272,-0.24713 l 0.0406,-0.006 v -10.72012 l 9.26895,5.35103 c 0.37477,-0.4216 0.72811,-0.86184 1.05847,-1.31914 0.32654,-0.45137 0.63079,-0.91967 0.9129,-1.40489 l 0.0158,-0.026 c 0.10607,-0.1828 0.19183,-0.37802 0.29113,-0.56421 0.16137,-0.30243 0.32838,-0.5992 0.47056,-0.91291 l 0.0203,-0.0395 c 0.23245,-0.51682 0.44008,-1.04675 0.62289,-1.58995 l -9.27572,-5.36232 9.2746,-5.35441 z"
             style="fill:#71c4d1"
             inkscape:connector-curvature="0" />
        </g>
        <g
           id="g9321"
           transform="matrix(0.73223903,0.41776641,-0.41776641,0.73223903,267.50752,-207.19236)">
          <g
             id="g9391"
             transform="matrix(0.97634824,-0.21620387,0.21620387,0.97634824,-29.735587,154.87631)">
            <g
               id="Bow"
               transform="translate(625.06671,192.63852)">
              <g
                 id="g8939">
                <path
                   inkscape:connector-curvature="0"
                   style="fill:#ed7161"
                   d="m 40,30 c -3.287,0 -10.178,2.531 -12,4 -1.822,-1.469 -8.713,-4 -12,-4 -6,0 -6,4 -6,6 0,2 0,6 6,6 3.287,0 10.178,-2.531 12,-4 1.822,1.469 8.713,4 12,4 6,0 6,-4 6,-6 0,-2 0,-6 -6,-6 z m -24,8 c -2,0 -2,-2 -2,-2 0,0 0,-2 2,-2 3.313,0 8,2 8,2 0,0 -4.687,2 -8,2 z m 24,0 c -3.314,0 -8,-2 -8,-2 0,0 4.686,-2 8,-2 2,0 2,2 2,2 0,0 0,2 -2,2 z"
                   id="path8941" />
              </g>
            </g>
            <g
               id="Bands"
               transform="matrix(1,0,0,-1,626.3294,264.46721)">
              <g
                 id="g8934">
                <polygon
                   style="fill:#ed7161"
                   points="32,36 53.828,14.172 49.828,10.172 28,32 16.172,20.172 12.172,24.172 24,36 10.172,49.828 14.172,53.828 28,40 39.828,51.828 43.828,47.828 "
                   id="polygon8936" />
              </g>
            </g>
            <g
               id="Knot"
               transform="translate(626.32939,192.63853)">
              <g
                 id="g8944">
                <path
                   inkscape:connector-curvature="0"
                   style="fill:#ba594c"
                   d="m 30,32 h -4 c -1.105,0 -2,0.895 -2,2 v 4 c 0,1.104 0.895,2 2,2 h 4 c 1.105,0 2,-0.896 2,-2 v -4 c 0,-1.105 -0.895,-2 -2,-2 z"
                   id="path8946" />
              </g>
            </g>
          </g>
        </g>
      </g>
      <g
         transform="matrix(0.01611386,0.01611386,-0.01611386,0.01611386,714.81747,251.73293)"
         id="g13096"
         style="fill:#d6ff2e;fill-opacity:1">
        <g
           id="g13098"
           style="fill:#d6ff2e;fill-opacity:1">
          <rect
             y="437.61508"
             x="298.19904"
             height="372.31046"
             width="53.429436"
             id="rect13100"
             style="fill:#d6ff2e;fill-opacity:1;stroke:none"
             ry="20.286146" />
        </g>
        <rect
           y="-511.06897"
           x="597.0556"
           height="372.31046"
           width="53.429436"
           id="rect13102"
           style="fill:#d6ff2e;fill-opacity:1;stroke:none"
           ry="20.286146"
           transform="matrix(0,1,-1,0,0,0)" />
      </g>
    </g>
  </g>
</svg>
