<?xml version="1.0" encoding="UTF-8" standalone="no"?>
<!-- Created with Inkscape (http://www.inkscape.org/) -->

<svg
   xmlns:dc="http://purl.org/dc/elements/1.1/"
   xmlns:cc="http://creativecommons.org/ns#"
   xmlns:rdf="http://www.w3.org/1999/02/22-rdf-syntax-ns#"
   xmlns:svg="http://www.w3.org/2000/svg"
   xmlns="http://www.w3.org/2000/svg"
   xmlns:sodipodi="http://sodipodi.sourceforge.net/DTD/sodipodi-0.dtd"
   xmlns:inkscape="http://www.inkscape.org/namespaces/inkscape"
   version="1.1"
   width="354.33069"
   height="177.16534"
   id="svg3760"
   inkscape:version="0.48.5 r10040"
   sodipodi:docname="disegno.svg">
  <sodipodi:namedview
     pagecolor="#ffffff"
     bordercolor="#666666"
     borderopacity="1"
     objecttolerance="10"
     gridtolerance="10"
     guidetolerance="10"
     inkscape:pageopacity="0"
     inkscape:pageshadow="2"
     inkscape:window-width="1440"
     inkscape:window-height="834"
     id="namedview51"
     showgrid="false"
     fit-margin-top="0"
     fit-margin-left="0"
     fit-margin-right="0"
     fit-margin-bottom="0"
     inkscape:zoom="2"
     inkscape:cx="123.07056"
     inkscape:cy="116.96664"
     inkscape:window-x="0"
     inkscape:window-y="27"
     inkscape:window-maximized="1"
     inkscape:current-layer="svg3760"
     units="cm" />
  <defs
     id="defs3762" />
  <metadata
     id="metadata3765">
    <rdf:RDF>
      <cc:Work
         rdf:about="">
        <dc:format>image/svg+xml</dc:format>
        <dc:type
           rdf:resource="http://purl.org/dc/dcmitype/StillImage" />
        <dc:title />
      </cc:Work>
    </rdf:RDF>
  </metadata>
  <g
     id="g4521"
     transform="matrix(0.96272577,0,0,1.0133955,6.6419602,6.3819166)">
    <g
       transform="translate(120.62627,-490.88022)"
       id="g4465">
      <path
         style="font-size:78.40734863px;font-style:normal;font-variant:normal;font-weight:normal;font-stretch:normal;text-indent:0;text-align:start;text-decoration:none;line-height:125%;letter-spacing:0px;word-spacing:0px;text-transform:none;direction:ltr;block-progression:tb;writing-mode:lr-tb;text-anchor:start;baseline-shift:baseline;color:#000000;fill:#ffffff;fill-opacity:1;fill-rule:nonzero;stroke:none;stroke-width:11.66298103;marker:none;visibility:visible;display:inline;overflow:visible;enable-background:accumulate;font-family:Krinkes Regular PERSONAL USE;-inkscape-font-specification:Krinkes Regular PERSONAL USE"
         d="m 174.46854,551.72766 c -4.21015,0.15128 -8.4092,1.40639 -12.34375,3.5625 -5.53532,3.03348 -10.12764,7.99006 -14.03125,14.46875 -0.0123,0.0204 -0.0189,0.0421 -0.0313,0.0625 -1.69128,2.73438 -2.90816,5.55931 -3.59375,8.46875 l -0.0313,0 c -0.0161,0.0623 -0.0155,0.12521 -0.0313,0.1875 -0.68643,2.73969 -0.92763,5.5184 -0.4375,8.21875 0.49744,2.74041 1.80159,5.39515 3.78125,7.40625 l 0.125,0.0937 0.0937,0.125 c 2.25425,2.06081 5.15106,3.17252 8.09375,3.59375 2.63759,0.37747 5.31037,0.0557 7.875,-0.75 0.0221,-0.007 0.0405,-0.0245 0.0625,-0.0313 0.53914,-0.16501 1.06098,-0.39492 1.59375,-0.59375 0.15028,0.15781 0.21436,0.38391 0.375,0.53125 l 0.0313,0.0313 0.0625,0.0625 c 2.15312,1.88299 4.81534,2.8612 7.53125,3.25 2.16853,0.31038 4.40964,0.1818 6.5625,-0.28125 l 0,0.0313 c 0.0324,-0.007 0.0615,-0.0244 0.0937,-0.0313 0.34333,-0.0723 0.69114,-0.16292 1.03125,-0.25 l 0.78125,-4.78125 0.30006,-1.52583 -0.23675,0.094 -0.67305,0.17066 -1.04651,0.26113 c -0.46291,0.13288 -0.92589,0.2447 -1.40625,0.34375 -1.55715,0.34258 -3.08485,0.399 -4.5625,0.1875 -1.90889,-0.27328 -3.41438,-0.89826 -4.53125,-1.875 -1.05534,-0.96794 -1.64004,-2.26126 -1.71875,-3.90625 -1.99719,1.2221 -3.96684,2.12106 -5.9375,2.71875 -1.90912,0.60637 -3.7125,0.80041 -5.375,0.5625 -2.09363,-0.29969 -3.74629,-1.00744 -4.96875,-2.125 -1.15199,-1.1703 -1.87133,-2.63324 -2.1875,-4.375 -0.31616,-1.7419 -0.18858,-3.69352 0.375,-5.875 0.51097,-2.25183 1.49899,-4.57164 2.96875,-6.9375 3.54678,-5.90159 7.47989,-10.046 11.84375,-12.4375 3.2729,-1.79355 6.51065,-2.73749 9.71875,-2.84375 1.06937,-0.0354 2.15658,0.0355 3.21875,0.1875 2.40133,0.34384 4.07774,1.44344 5.0625,3.34375 0.24639,-0.40447 0.42555,-0.73213 0.53125,-1.03125 0.17592,-0.35175 0.32794,-0.58193 0.46875,-0.6875 l 10.1875,1.4375 c -0.264,0.52767 -0.78328,1.44344 -1.53125,2.71875 -0.74821,1.2753 -1.63052,2.75761 -2.625,4.4375 -0.98567,1.61822 -2.01119,3.33168 -3.09375,5.1875 -1.07375,1.79415 -2.10808,3.50664 -3.09375,5.125 -0.92413,1.62704 -1.76072,3.03636 -2.5,4.25 -0.66894,1.16102 -1.07395,1.92939 -1.25,2.28125 -0.66,1.09938 -0.73278,1.95051 -0.1875,2.53125 0.0909,0.0968 0.20651,0.17059 0.3125,0.25 3.16885,-5.3538 5.97792,-10.36264 8.65625,-14.78125 1.45846,-2.40295 2.87339,-4.74212 4.25,-7.03125 l 0.0313,-0.0313 0.0313,-0.0313 c 1.44676,-2.33854 2.70473,-4.43019 3.8125,-6.25 l 0.0625,-0.0625 0.0313,-0.0625 c 0.72906,-1.12909 1.16114,-1.87367 1.6875,-2.71875 l -5.625,-0.90625 0.59375,-0.875 -8.90625,-1.25 -2.18745,-0.31235 c -1.25676,-0.62362 -2.57173,-1.12141 -3.90625,-1.3125 -1.39679,-0.19995 -2.78411,-0.26917 -4.1875,-0.21875 z m 2.34375,10.96875 c -0.6463,0.0322 -1.27774,0.15083 -1.90625,0.34375 -1.04687,0.28997 -2.1784,0.88435 -3.375,1.78125 -1.12626,0.84418 -2.30896,2.0186 -3.59375,3.53125 -1.28479,1.51266 -2.70507,3.39113 -4.21875,5.625 -1.17933,1.65346 -2.15405,3.25968 -2.9375,4.78125 -0.71297,1.46884 -1.17726,2.77648 -1.40625,3.9375 -0.22911,1.16116 -0.17787,2.10483 0.15625,2.84375 0.39555,0.74787 1.10951,1.19392 2.15625,1.34375 1.04676,0.14986 2.24282,0.005 3.5625,-0.4375 1.31957,-0.43948 2.67237,-1.13036 4.0625,-2.0625 0.29937,-0.77393 0.67217,-1.53361 1.15625,-2.28125 l 10.375,-17.65625 c -0.43077,-0.94128 -1.26851,-1.47998 -2.5,-1.65625 -0.29249,-0.0419 -0.58581,-0.0838 -0.875,-0.0937 -0.21689,-0.007 -0.44081,-0.0107 -0.65625,0 z"
         id="path3750-3-7"
         inkscape:connector-curvature="0"
         sodipodi:nodetypes="sccccccccccccccccccccccccccccccccccccccsccccccccccccccccccccccccccsccssccccscccccscc" />
      <path
         style="font-size:78.40734863px;font-style:normal;font-variant:normal;font-weight:normal;font-stretch:normal;text-indent:0;text-align:start;text-decoration:none;line-height:125%;letter-spacing:0px;word-spacing:0px;text-transform:none;direction:ltr;block-progression:tb;writing-mode:lr-tb;text-anchor:start;baseline-shift:baseline;color:#000000;fill:#ffffff;fill-opacity:1;fill-rule:nonzero;stroke:none;stroke-width:11.66298103;marker:none;visibility:visible;display:inline;overflow:visible;enable-background:accumulate;font-family:Krinkes Regular PERSONAL USE;-inkscape-font-specification:Krinkes Regular PERSONAL USE"
         d="m 83.952774,534.22753 c -2.68017,0.082 -5.31499,1.01521 -7.5,2.5 l -0.0625,0.0313 -0.0625,0.0313 c -2.49294,1.76814 -4.32869,4.2638 -5.6875,7.0625 l -0.0313,-0.0313 c -0.0303,0.0568 -0.0327,0.13012 -0.0625,0.1875 -0.0164,0.0344 -0.0463,0.0593 -0.0625,0.0937 l 0.0313,0 c -1.39538,2.72661 -2.16846,6.02278 -1.1875,9.25 l 0,0.0313 0.0313,0.0625 c 0.57408,1.78938 1.94989,3.32909 3.59375,4.46875 l -5.4375,10.65625 0.0313,0 c -1.17719,2.28932 -2.02147,4.54532 -2.3125,6.96875 -0.26174,2.17939 -0.14387,4.4551 0.75,6.65625 l 0.0625,0.15625 0.0313,0.125 c 0.9664,2.0821 2.68391,3.90789 4.65625,5.03125 l 0.0625,0.0313 0.0625,0.0313 c 1.92356,1.04115 4.02204,1.55218 6.15625,1.71875 2.19232,0.17093 4.40548,-0.0509 6.53125,-0.65625 0.0227,-0.006 0.0399,-0.0249 0.0625,-0.0313 2.02718,-0.56232 3.95686,-1.3688 5.75,-2.4375 0.0254,-0.0146 0.0371,-0.0478 0.0625,-0.0625 0.007,-0.004 0.0241,0.004 0.0313,0 1.52789,-0.88544 2.95304,-1.93266 4.25,-3.125 -0.4954,-0.78727 -0.95123,-1.59155 -1.34375,-2.4375 l -0.0937,-0.125 -0.0313,-0.15625 c -0.57306,-1.43697 -0.9958,-2.91955 -1.28125,-4.4375 -0.53106,0.76078 -1.11991,1.49417 -1.8125,2.1875 -1.14909,1.15992 -2.47068,2.14267 -3.90625,2.96875 -1.37344,0.83085 -2.84436,1.46637 -4.4375,1.90625 -1.53113,0.44452 -3.04272,0.61366 -4.53125,0.5 -1.48852,-0.11378 -2.76535,-0.44986 -3.84375,-1.03125 -1.01651,-0.57675 -1.76751,-1.37129 -2.25,-2.40625 -0.42036,-1.0302 -0.55067,-2.29748 -0.375,-3.78125 0.17567,-1.48376 0.73443,-3.17021 1.6875,-5.03125 l 9.0625,-17.8125 c -1.15898,0.47297 -2.38462,0.65723 -3.625,0.5625 -1.73667,-0.13259 -2.82721,-0.90538 -3.28125,-2.3125 -0.44929,-1.46913 -0.14485,-3.17535 0.875,-5.09375 1.04352,-2.22857 2.35423,-3.90441 3.9375,-5.03125 1.43961,-0.98181 2.94303,-1.48237 4.5,-1.5 0.22242,-0.003 0.43143,0.0141 0.65625,0.0313 1.79868,0.13747 2.92572,0.93724 3.375,2.40625 0.45393,1.40712 0.20784,3.07695 -0.75,5 -0.67184,1.44592 -1.46172,2.6318 -2.34375,3.5625 l 8.1875,0.625 c -0.22875,0.54402 -0.6326,1.39072 -1.21875,2.53125 -0.58615,1.14052 -1.26139,2.46559 -2,3.96875 -0.73861,1.50317 -1.53422,3.06973 -2.40625,4.6875 -0.81014,1.62254 -1.57865,3.15259 -2.3125,4.59375 -0.73397,1.44115 -1.38736,2.70273 -1.96875,3.78125 -0.51475,1.02127 -0.84754,1.69986 -1,2.0625 -0.58615,1.14052 -0.58111,1.98771 0,2.53125 0.58234,0.54355 1.40011,0.76181 2.46875,0.65625 1.13053,-0.10093 2.34482,-0.57064 3.65625,-1.40625 1.25679,-0.80079 2.3391,-1.98413 3.25,-3.5 -0.004,-0.70859 0.004,-1.41434 0.0625,-2.125 0.32194,-3.87705 1.53985,-7.67012 3.46875,-11.25 l 0,-0.0313 0.0313,-0.0313 c 1.78541,-3.22955 3.89986,-6.01654 6.374996,-8.28125 l 1.375,-3.25 -7.781246,-0.59375 c 0.21452,-1.2289 0.21269,-2.50263 0,-3.78125 -0.0744,-0.44727 -0.1114,-0.8965 -0.25,-1.34375 -0.009,-0.0307 -0.0215,-0.0632 -0.0313,-0.0937 l -0.0313,0 c -1.11087,-3.44138 -5.11344,-6.1717 -8.40625,-6.4375 2e-4,2e-5 -0.0798,10e-4 -0.0937,0 0.1,0.007 -0.12762,0.004 -0.15625,0 -0.38325,-0.0232 -0.77337,-0.043 -1.15625,-0.0313 z"
         id="path3746-0-9"
         inkscape:connector-curvature="0"
         sodipodi:nodetypes="sccccccccccccccscccccccccccccccccccccccsccccccscccccssccccccsccccccccsccccccs" />
      <path
         style="font-size:78.40734863px;font-style:normal;font-variant:normal;font-weight:normal;font-stretch:normal;text-indent:0;text-align:start;text-decoration:none;line-height:125%;letter-spacing:0px;word-spacing:0px;text-transform:none;direction:ltr;block-progression:tb;writing-mode:lr-tb;text-anchor:start;baseline-shift:baseline;color:#000000;fill:#ffffff;fill-opacity:1;fill-rule:nonzero;stroke:none;stroke-width:11.66298103;marker:none;visibility:visible;display:inline;overflow:visible;enable-background:accumulate;font-family:Krinkes Regular PERSONAL USE;-inkscape-font-specification:Krinkes Regular PERSONAL USE"
         d="m 47.234064,524.94642 -10.500003,2.625 -11.0625,2.78125 -3.09375,0.75 -0.71875,2.15625 -0.71875,0.0313 -3.4375,0.1875 -1.5,3.125 -2.34375,4.90625 -4.2499999,8.875 5.3124999,-0.3125 -0.0313,1.3125 -0.0937,2.21875 -5.0624999,15.8125 -0.28125,0.3437 c -0.8622,2.42545 -1.59631,4.43436 -1.5625,6.875 0.0315,2.27559 0.54094,4.65919 1.875,6.75 1.2345999,1.93513 3.1770199,3.49266 5.2812499,4.34375 l 0.0625,0.0313 0.0625,0.0313 c 2.04398,0.77519 4.20665,1.02468 6.34375,0.90625 2.19548,-0.12198 4.349,-0.6802 6.375,-1.5625 0.0122,-0.005 0.0191,-0.0258 0.0313,-0.0313 0.008,-0.004 0.0229,0.004 0.0313,0 1.74646,-0.74661 3.37053,-1.71055 4.875,-2.84375 -1.54704,-1.36181 -2.79381,-3.07101 -3.65625,-4.9375 -1.25125,1.00554 -2.63538,1.85285 -4.15625,2.5 -1.45864,0.64347 -2.94709,1.00902 -4.4375,1.09375 -1.4904,0.0849 -2.79143,-0.0981 -3.9375,-0.53125 -1.08395,-0.43681 -1.94711,-1.13188 -2.5625,-2.09375 -0.61527,-0.96189 -0.94626,-2.19352 -0.96875,-3.6875 -0.0231,-1.49399 0.33327,-3.21652 1.03125,-5.1875 l 9.625,-27.65625 -5.28125,0.28125 2.3125,-4.875 4.65625,-0.2813 0.96875,-2.84375 11.0625,-2.78125 -1.78125,5.0625 8.406253,-0.5 -2.343753,4.90625 -7.65625,0.4375 -10.03125,28.96875 c -0.4299,1.20817 -0.30543,2.0697 0.34375,2.53125 0.6493,0.46154 1.48609,0.5588 2.53125,0.3125 0.29748,-0.0671 0.60362,-0.16015 0.90625,-0.28125 -0.19698,-1.51709 -0.21017,-3.0628 -0.0625,-4.625 l -0.0313,0 c 0.004,-0.0523 0.0272,-0.10396 0.0313,-0.15625 0.23232,-2.96707 0.97416,-5.92163 2.1875,-8.875 l 0.0313,-0.0313 0,-0.0313 c 2.75273,-6.54272 6.46655,-11.90586 11.3125,-15.75 2.605213,-2.07364 5.501043,-3.60215 8.562503,-4.59375 l 0.125,-0.28125 4.25,-8.90625 -9.5,0.53125 z"
         id="path3742-2-8"
         inkscape:connector-curvature="0"
         sodipodi:nodetypes="cccccccccccccccscccccccccccccccccccccccccccccccccccccccccc" />
      <path
         style="font-size:78.40734863px;font-style:normal;font-variant:normal;font-weight:normal;font-stretch:normal;text-indent:0;text-align:start;text-decoration:none;line-height:125%;letter-spacing:0px;word-spacing:0px;text-transform:none;direction:ltr;block-progression:tb;writing-mode:lr-tb;text-anchor:start;baseline-shift:baseline;color:#000000;fill:#ffffff;fill-opacity:1;fill-rule:nonzero;stroke:none;stroke-width:11.66298103;marker:none;visibility:visible;display:inline;overflow:visible;enable-background:accumulate;font-family:Krinkes Regular PERSONAL USE;-inkscape-font-specification:Krinkes Regular PERSONAL USE"
         d="m 1.125,541.40625 c -0.37496997,0.0125 -0.7513,0.027 -1.125,0.0625 -6.12009,0.58178 -11.78773,3.32439 -16.21875,7.75 -4.38378,4.36391 -7.46789,10.12729 -9.46875,16.9375 l -0.03125,0.0313 c -0.87148,3.06191 -1.28573,6.09804 -1.1875,9.0625 2.5e-4,0.021 -3e-4,0.0415 0,0.0625 0.001,0.0411 -0.002,0.084 0,0.125 l 0.03125,0 c 0.0014,0.0722 -0.0021,0.14663 0,0.21875 1.502045,-0.77611 3.028919,-1.91682 4.5625,-3.4375 1.009606,-1.06577 1.894346,-2.2677 2.65625,-3.625 0.0742,-0.29252 0.134101,-0.57836 0.21875,-0.875 1.79832,-6.10506 4.45843,-10.91697 8,-14.4375 3.5976101,-3.58823 7.79467,-5.60681 12.625,-6.0625 0.55735,-0.0526 1.10826,-0.0762 1.625,-0.0625 1.5502,0.0412 2.90891,0.36208 4.09375,1 1.63581,0.78299 2.8798401,1.98602 3.71875,3.59375 0.83891,1.60785 1.31975,3.5402 1.40625,5.78125 0.0864,2.24104 -0.24867,4.68001 -1,7.3125 -0.84009,3.01582 -1.98107,5.74431 -3.375,8.1875 -1.39975,2.3812 -3.01401,4.45286 -4.84375,6.25 -1.76787,1.7912 -3.72747997,3.23528 -5.875,4.3125 -2.09149,1.00953 -4.30301,1.62174 -6.65625,1.84375 -2.29125,0.21619 -4.20743,-0.0554 -5.78125,-0.84375 -1.57978,-0.85068 -2.81734,-2.07977 -3.65625,-3.6875 -0.260773,-0.49976 -0.476019,-1.03233 -0.65625,-1.59375 -1.150226,1.49922 -2.411022,2.93177 -3.8125,4.28125 -0.28661,0.28854 -0.609212,0.53749 -0.90625,0.8125 1.346981,2.24485 3.317758,4.1347 5.625,5.375 l 0.0625,0.0625 0.09375,0.0313 c 2.77987,1.3911 5.86237,1.72973 8.9375,1.4375 3.01507,-0.2866 5.94535,-1.09545 8.65625,-2.40625 l 0.0625,-0.0313 0.03125,0 c 2.70511,-1.35945 5.17385,-3.18655 7.34375,-5.375 0.0104,-0.0105 0.02075,-0.0205 0.03125,-0.0313 0.0105,-0.0103 0.02075,-0.0208 0.03125,-0.0313 2.1901,-2.16552 4.09854,-4.64573 5.71875,-7.40625 l 0,-0.0313 0.03125,-0.0313 c 1.64275,-2.88412 2.92457,-6.06717 3.875,-9.46875 0.006,-0.0226 0.02495,-0.0399 0.03125,-0.0625 0.87268,-3.08723 1.30305,-6.13756 1.1875,-9.09375 -0.11447,-2.91339 -0.74603,-5.73102 -2.0625,-8.25 C 13.7862,546.53258 11.58433,544.4249 9,543.125 l 0.03125,-0.0313 c -0.0412,-0.0221 -0.0837,-0.0408 -0.125,-0.0625 -0.0414,-0.0203 -0.0834,-0.0426 -0.125,-0.0625 L 8.75,543 c -2.36583,-1.20425 -5.00018,-1.68119 -7.625,-1.59375 z m -0.84375,9.90625 c -0.74313,0.0704 -1.5533,0.57618 -2.40625,1.46875 -0.85306,0.8928 -1.70028,2.04419 -2.5625,3.5 -0.8063,1.3881 -1.5785,2.99097 -2.34375,4.8125 -0.76537,1.82166 -1.43796,3.72898 -2,5.71875 -0.56787,1.92802 -1.01193,3.78178 -1.34375,5.5625 -0.33765,1.71874 -0.53006,3.25031 -0.53125,4.5625 0.0608,1.30637 0.30189,2.34915 0.6875,3.125 0.3796601,0.71386 0.94437,1.03883 1.6875,0.96875 0.74312,-0.0704 1.51559,-0.51876 2.3125,-1.34375 0.85294,-0.89268 1.66257,-2.0494 2.46875,-3.4375 0.80619,-1.38798 1.6038,-2.95908 2.375,-4.71875 0.73127003,-1.74038 1.35527,-3.53751 1.90625,-5.375 l -0.9375,-0.28125 0.96875,0.25 c 0.0218,-0.073 0.0409,-0.14557 0.0625,-0.21875 0.56204,-1.98989 0.98005,-3.85011 1.25,-5.625 0.33182,-1.78073 0.49882,-3.34406 0.5,-4.65625 -0.003,-1.37407 -0.17638,-2.43708 -0.5,-3.21875 -0.32374,-0.78168 -0.85062,-1.16383 -1.59375,-1.09375 z"
         id="path3740-1-3"
         inkscape:connector-curvature="0"
         sodipodi:nodetypes="cccccccccccccccccccccccccscccccccccccccccccccccccccccccccccccccccccccccc" />
      <path
         style="font-size:78.40734863px;font-style:normal;font-variant:normal;font-weight:normal;font-stretch:normal;text-indent:0;text-align:start;text-decoration:none;line-height:125%;letter-spacing:0px;word-spacing:0px;text-transform:none;direction:ltr;block-progression:tb;writing-mode:lr-tb;text-anchor:start;baseline-shift:baseline;color:#000000;fill:#ffffff;fill-opacity:1;fill-rule:nonzero;stroke:none;stroke-width:11.66298103;marker:none;visibility:visible;display:inline;overflow:visible;enable-background:accumulate;font-family:Krinkes Regular PERSONAL USE;-inkscape-font-specification:Krinkes Regular PERSONAL USE"
         d="m 56.786774,539.35264 c -5.73329,0.15337 -11.21887,2.21865 -15.812503,5.875 -4.84595,3.84414 -8.55978,9.20728 -11.3125,15.75 l 0,0.0313 -0.0313,0.0313 c -1.21335,2.95337 -1.95519,5.90793 -2.1875,8.875 -0.004,0.0523 -0.0275,0.1039 -0.0313,0.15625 l 0.0313,0 c -0.27314,2.88952 -0.0293,5.74588 1,8.40625 1.04372,2.69822 2.93099,5.13182 5.3125,6.78125 l 0.0625,0.0313 0.0625,0.0625 c 2.60519,1.69326 5.66082,2.38273 8.750003,2.4375 3.02808,0.0537 6.03403,-0.43936 8.875,-1.4375 l 0.0313,0 0.0313,-0.0313 c 2.84106,-1.04723 5.50401,-2.56829 7.90625,-4.5 0.0228,-0.0183 0.0398,-0.0441 0.0625,-0.0625 2.41957,-1.90596 4.61142,-4.15758 6.53125,-6.71875 l 0,-0.0313 0.0313,-0.0313 c 1.96387,-2.69197 3.60842,-5.68031 4.9375,-8.96875 0.004,-0.009 -0.004,-0.0222 0,-0.0313 1.22204,-2.9813 2.00126,-5.94216 2.21875,-8.90625 0.21336,-2.90771 -0.0683,-5.78643 -1.09375,-8.4375 -1.0407,-2.68972 -3.02191,-5.04304 -5.4375,-6.625 l 0,-0.0313 c -0.0274,-0.019 -0.0663,-0.0125 -0.0937,-0.0313 -0.0492,-0.0317 -0.0754,-0.094 -0.125,-0.125 l -0.0313,0.0313 c -2.53327,-1.67511 -5.52221,-2.44651 -8.53125,-2.5 -0.38417,-0.007 -0.77403,-0.0102 -1.15625,0 z m 0.40625,5.78125 c 2.2389,0.0362 4.08569,0.57473 5.5625,1.59375 1.53975,0.95797 2.65538,2.27856 3.3125,3.96875 0.65724,1.69019 0.87906,3.66925 0.71875,5.90625 -0.16031,2.23699 -0.7452,4.62223 -1.78125,7.15625 -1.16635,2.90518 -2.56473,5.47481 -4.21875,7.75 -1.65295,2.21306 -3.48386,4.13366 -5.5,5.71875 -1.95402,1.58617 -4.05956,2.79021 -6.3125,3.625 -2.18976,0.77361 -4.48037,1.13172 -6.84375,1.09375 -2.301143,-0.0373 -4.178613,-0.51185 -5.656253,-1.46875 -1.47669,-1.01902 -2.56163,-2.40356 -3.21875,-4.09375 -0.65723,-1.69018 -0.8788,-3.63908 -0.65625,-5.875 0.16126,-2.29923 0.77646,-4.71599 1.8125,-7.25 2.45814,-5.87046 5.6244,-10.35866 9.531253,-13.46875 3.97015,-3.17113 8.39877,-4.7341 13.25,-4.65625 z m -1.375,4 c -0.74626,-0.0117 -1.58542,0.39388 -2.53125,1.1875 -0.94595,0.7935 -1.95175,1.86654 -2.96875,3.21875 -0.95393,1.29117 -1.88292,2.80477 -2.84375,4.53125 -0.96095,1.72647 -1.84778,3.52158 -2.625,5.4375 -0.77625,1.85392 -1.41209,3.67275 -1.9375,5.40625 -0.52457,1.67126 -0.85458,3.13337 -1.000003,4.4375 -0.0832,1.30498 0.0149,2.374 0.312503,3.1875 0.29893,0.75138 0.81613,1.14423 1.5625,1.15625 0.74626,0.0117 1.55486,-0.3613 2.4375,-1.09375 0.94595,-0.7935 1.88994,-1.83384 2.84375,-3.125 0.95392,-1.29104 1.91512,-2.77326 2.875,-4.4375 0.96083,-1.72647 1.84874,-3.52108 2.625,-5.375 0.77733,-1.91604 1.38034,-3.7343 1.84375,-5.46875 0.5254,-1.73349 0.85457,-3.25836 1,-4.5625 0.14626,-1.36626 0.11038,-2.43745 -0.125,-3.25 -0.23586,-0.81254 -0.72237,-1.23798 -1.46875,-1.25 z"
         id="path3744-7-6"
         inkscape:connector-curvature="0" />
      <path
         style="font-size:141.13322449px;font-style:normal;font-variant:normal;font-weight:normal;font-stretch:normal;text-indent:0;text-align:start;text-decoration:none;line-height:125%;letter-spacing:0px;word-spacing:0px;text-transform:none;direction:ltr;block-progression:tb;writing-mode:lr-tb;text-anchor:start;baseline-shift:baseline;color:#000000;fill:#ffffff;fill-opacity:1;fill-rule:nonzero;stroke:none;stroke-width:11.66298103;marker:none;visibility:visible;display:inline;overflow:visible;enable-background:accumulate;font-family:Krinkes Regular PERSONAL USE;-inkscape-font-specification:Krinkes Regular PERSONAL USE"
         d="m 147.76532,496.10264 -1.96875,3.09375 -4.40625,6.90625 -4.9375,7.8125 9.15625,1.125 4.15625,0.5 c -1.62094,3.03005 -3.4597,6.36526 -5.65625,10.34375 -2.43344,4.40735 -5.06906,9.0698 -7.90625,14 l -0.0313,0.0625 0,0.0313 c -2.73394,4.95688 -5.32104,9.59335 -7.75,13.90625 l -0.0313,0.0313 0,0.0313 c -0.20489,0.37471 -0.33106,0.60333 -0.53125,0.96875 -0.0743,-0.6812 -0.10663,-1.35612 -0.28125,-2.03125 -1.21265,-4.68774 -5.94863,-8.28198 -10.65625,-8.90625 l -0.0313,0 -0.0625,-0.0313 -0.0313,0 c 0.003,3.3e-4 -0.0543,10e-4 -0.0625,0 -0.004,-5e-4 -0.0248,7.6e-4 -0.0313,0 -0.0312,-0.004 -0.0625,0.004 -0.0937,0 l -0.0313,0 -0.0313,0 c -4.6174,-0.50318 -9.28906,0.72424 -13.25,3.3125 -3.918376,2.53866 -7.052836,6.24164 -9.562496,10.78125 l -0.0313,0.0313 0,0.0313 c -1.9289,3.57988 -3.14681,7.37295 -3.46875,11.25 -0.30472,3.73364 0.25323,7.46646 1.625,10.90625 l 0.0313,0.15625 0.0937,0.125 c 1.58514,3.41629 4.03825,6.38509 7.125,8.65625 l 0.0625,0.0313 0.0313,0.0313 c 3.411496,2.41647 7.509436,3.8192 12.062496,4.5 l 0.0937,0.0313 0.0625,0 0.6875,0.0937 c 8.04907,0.96949 15.61549,-0.16826 22.09375,-3.65625 6.56079,-3.53251 11.91653,-9.49353 16.3125,-17.34375 l 0.0313,-0.0937 0.0625,-0.0937 c 0.42995,-0.82857 1.29395,-2.52385 2.5625,-4.96875 l 0.0313,0 c 1.45286,-2.65698 3.1094,-5.74897 5,-9.25 1.88609,-3.4928 3.91805,-7.22779 6.09375,-11.25 l 0,-0.0313 0.0313,-0.0313 c 2.19408,-4.14316 4.3181,-8.15846 6.375,-12.09375 2.04222,-3.90767 3.93033,-7.55121 5.6875,-10.9375 0.01,-0.0192 0.0213,-0.0433 0.0313,-0.0625 1.10224,-2.04145 1.82696,-3.41689 2.6875,-5.03125 l 3.6875,0.46875 3.59375,0.4375 1.96875,-3.03125 4.5625,-6.875 5.1875,-7.875 -9.34375,-1.125 -37.375,-4.5 -3.625,-0.4375 z m 2.9375,6.21875 37.34375,4.5 -4.53125,6.90625 -7.6875,-0.9375 c -1.1705,2.22726 -2.70692,5.09958 -4.59375,8.59375 -1.76243,3.3966 -3.66722,7.04326 -5.71875,10.96875 -2.05178,3.9255 -4.15433,7.95939 -6.34375,12.09375 -2.1763,4.02331 -4.20692,7.78708 -6.09375,11.28125 -1.88695,3.49429 -3.55363,6.54239 -5,9.1875 -1.32173,2.54741 -2.21567,4.27594 -2.65625,5.125 -4.02295,7.18409 -8.69397,12.17434 -14,15.03125 -5.30615,2.85691 -11.51073,3.8569 -18.625,3 l -0.65625,-0.0625 c -3.87723,-0.57974 -7.06874,-1.76484 -9.5625,-3.53125 -2.38259,-1.75306 -4.148556,-3.86648 -5.312496,-6.375 -1.0393,-2.6061 -1.45573,-5.3776 -1.21875,-8.28125 0.25033,-3.0147 1.18352,-6.00348 2.78125,-8.96875 2.162706,-3.91202 4.720616,-6.8168 7.656246,-8.71875 3.06015,-1.99965 6.2589,-2.80794 9.59375,-2.40625 3.22357,0.38822 5.18244,1.9478 5.875,4.625 0.69244,2.67721 0.0928,5.6795 -1.78125,9.0625 -2.01148,3.59211 -4.42555,6.36594 -7.25,8.28125 -2.71329,1.92866 -5.58348,2.87174 -8.625,2.84375 0.23042,1.83213 1.00119,3.40185 2.3125,4.6875 1.32455,1.17449 3.08922,1.88846 5.3125,2.15625 l 0.84375,0.0937 c 2.91689,0.12582 5.26528,-0.71774 7.0625,-2.53125 1.90839,-1.80004 3.48168,-3.74101 4.75,-5.84375 0.28923,-0.52902 1.26392,-2.32982 2.875,-5.40625 1.72213,-3.06297 3.71707,-6.70533 6.03125,-10.9375 2.43858,-4.33 5.03997,-8.99857 7.78125,-13.96875 2.85245,-4.95672 5.51658,-9.65246 7.96875,-14.09375 2.45193,-4.44104 4.53229,-8.30844 6.28125,-11.59375 1.86012,-3.27183 3.09103,-5.36551 3.65625,-6.3125 l -12.84375,-1.5625 4.375,-6.90625 z"
         id="path3748-9-1"
         inkscape:connector-curvature="0" />
      <path
         inkscape:connector-curvature="0"
         style="font-size:141.13322449px;font-style:normal;font-variant:normal;font-weight:normal;font-stretch:normal;text-indent:0;text-align:start;text-decoration:none;line-height:125%;letter-spacing:0px;word-spacing:0px;text-transform:none;direction:ltr;block-progression:tb;writing-mode:lr-tb;text-anchor:start;baseline-shift:baseline;color:#000000;fill:#ffffff;fill-opacity:1;fill-rule:nonzero;stroke:none;stroke-width:11.66298103;marker:none;visibility:visible;display:inline;overflow:visible;enable-background:accumulate;font-family:Krinkes Regular PERSONAL USE;-inkscape-font-specification:Krinkes Regular PERSONAL USE"
         d="m -28.9375,493.8125 c -1.276966,0.0261 -2.549505,0.13407 -3.84375,0.3125 -1.325049,0.18266 -2.658437,0.41892 -4.03125,0.75 l -0.03125,0 -0.03125,0 c -1.212231,0.30651 -2.348045,0.7055 -3.40625,1.125 l 0,-0.0313 c -0.04808,0.0179 -0.07737,0.0447 -0.125,0.0625 -0.998547,0.37344 -1.900612,0.734 -2.71875,1.0625 l -2.59375,1.03125 -0.8125,2.65625 -2.34375,7.59375 -2.6875,8.6875 4.625,-0.59375 -18.25,31.09375 -2.125,-20.5625 0,-0.0313 c -0.880734,-8.19066 -3.124585,-14.88966 -8.03125,-19.375 -0.02155,-0.0201 -0.04086,-0.0425 -0.0625,-0.0625 -4.908694,-4.54126 -11.91774,-5.8896 -19.28125,-4.875 -1.40437,0.19375 -2.6916,0.44299 -3.90625,0.75 l -0.0625,0.0313 -0.03125,0 c -0.974,0.26063 -2.0213,0.59563 -3.125,1.03125 l 0,-0.0313 c -0.0455,0.0169 -0.0798,0.0456 -0.125,0.0625 -0.97118,0.36203 -1.89697,0.70393 -2.78125,1.09375 l -3.65625,1.625 0.1875,4 0.34375,7.25 0.28125,6.34375 6.3125,-0.84375 0.53125,-0.0625 -17.0625,65.9375 -0.0313,0.0625 0,0.0313 c -0.88277,3.66983 -0.71272,7.68525 1.21875,11 l 0.0937,0.1875 0.125,0.1875 c 2.06089,3.00873 5.87073,4.88065 9.40625,5.03125 0.0102,6.2e-4 0.0211,-5.9e-4 0.0313,0 0.0719,0.003 0.14712,0.0295 0.21875,0.0313 l 0,-0.0313 c 1.55829,0.0681 3.19767,-0.1501 4.78125,-0.625 l 0,0.0625 c 0.2095,-0.0505 0.35942,-0.13347 0.5625,-0.1875 1.08994,-0.28997 2.13418,-0.6144 3.03125,-0.96875 0.0279,-0.011 0.06625,-0.02 0.09375,-0.0313 0.0218,-0.008 0.0408,-0.0227 0.0625,-0.0313 1.13238,-0.42752 2.24519,-0.92293 3.3125,-1.5 l 2.0625,-1.09375 0.71875,-2.21875 2.25,-6.90625 1.40625,-4.34375 c 1.91082,2.48816 4.649333,4.55624 7.96875,4.96875 l 0.0625,0 0.03125,0.0313 c 3.671466,0.39807 7.14272,-1.04508 9.9375,-3.125 2.932884,-2.18273 5.325015,-5.1872 7.5,-8.9375 0.01225,-0.0211 0.01902,-0.0413 0.03125,-0.0625 1.111366,-1.86353 2.688071,-4.55035 4.78125,-8.09375 0.750421,-1.27041 1.695213,-2.82631 2.5,-4.1875 l -0.15625,0.625 -0.03125,0.0625 0.03125,0 c -1.082983,4.0862 -1.593409,7.87687 -1.25,11.46875 0.330597,3.45815 1.388684,6.73908 3.4375,9.4375 1.899404,2.50212 4.613397,4.39735 7.625,5.375 l 0,0.0313 c 0.05028,0.017 0.105845,0.0145 0.15625,0.0313 3.074682,1.01196 6.394901,1.20801 9.71875,0.75 3.355244,-0.46238 6.613688,-1.56556 9.6875,-3.21875 0.0207,-0.0108 0.04182,-0.0204 0.0625,-0.0313 2.135091,-1.12371 5.740102,-2.47508 7.59375,-4 -1.31714,-1.17267 -2.40476,-2.59893 -3.21875,-4.15625 -0.215852,-0.41293 -2.386023,-0.63337 -2.5625,-1.0625 -1.886449,1.75679 -3.632538,3.07173 -5.9375,4.28125 -2.523485,1.36686 -5.119609,2.2249 -7.78125,2.59375 -2.661756,0.36874 -5.05296,0.19033 -7.1875,-0.53125 -2.00833,-0.62602 -3.63109,-1.77014 -4.875,-3.40625 -1.24403,-1.63612 -1.99215,-3.79166 -2.25,-6.46875 -0.25798,-2.67696 0.09726,-5.83092 1.0625,-9.46875 l 10.3125,-40.59375 c -2.66304,4.43823 -5.42674,9.11874 -8.25,14.03125 -2.83871,4.80163 -5.51046,9.42096 -8.0625,13.84375 -2.56749,4.31192 -4.9262,8.24294 -7.03125,11.8125 -2.10518,3.56979 -3.7122,6.277 -4.8125,8.125 -1.91419,3.31715 -3.88853,5.75393 -5.9375,7.28125 -2.04909,1.52721 -3.97657,2.19784 -5.8125,2 -1.72504,-0.21305 -3.241252,-1.31226 -4.53125,-3.28125 -1.29013,-1.96886 -2.13511,-4.79354 -2.53125,-8.46875 -0.15372,-1.10901 -0.3517,-3.05579 -0.625,-5.84375 -0.2733,-2.78796 -0.61919,-5.96691 -1,-9.53125 -0.38093,-3.56422 -0.79185,-7.29041 -1.21875,-11.1875 -0.42702,-3.89697 -0.82202,-7.57779 -1.1875,-11.03125 l -11.75,46.0625 c -0.86985,3.51163 -0.75912,5.85457 0.3125,7.0625 1.16718,1.0816 3.44894,0.94156 6.875,-0.4375 l -2.25,6.90625 c -0.841163,0.4557 -1.75138,0.88985 -2.71875,1.25 -0.85648,0.34471 -1.84382,0.64178 -2.9375,0.90625 -1.07836,0.3756 -2.17273,0.5369 -3.3125,0.46875 -2.15323,-0.0411 -3.80434,-0.91094 -4.9375,-2.5625 -1.0376,-1.77787 -1.23847,-3.99834 -0.59375,-6.6875 L -96.1875,524.375 c 0.51515,-1.99289 0.7161,-3.54712 0.5625,-4.65625 -1.43514,-1.38347 -3.494487,-1.89999 -6.15625,-1.53125 l -1.65625,0.21875 -0.34375,-7.21875 c 0.74549,-0.32927 1.62626,-0.70223 2.59375,-1.0625 0.85648,-0.34458 1.72194,-0.6098 2.59375,-0.84375 0.98279,-0.24915 2.06125,-0.45596 3.28125,-0.625 6.32153,-0.87586 11.18718,0.25685 14.5625,3.40625 3.35987,3.03851 5.44217,8.28881 6.25,15.75 l 3.9375,38.28125 32.21875,-55 c -1.04097,-0.98605 -2.61162,-1.32312 -4.71875,-1.03125 l -1.65625,0.21875 2.34375,-7.625 c 0.85649,-0.34459 1.75126,-0.67099 2.71875,-1.03125 0.856363,-0.34459 1.798444,-0.65698 2.78125,-0.90625 1.093683,-0.26448 2.248629,-0.48708 3.46875,-0.65625 1.580353,-0.21893 3.030702,-0.29415 4.34375,-0.25 3.939143,0.13244 6.654172,1.43718 8.1875,3.9375 2.13987,3.20756 2.16982,8.73294 0.09375,16.59375 L -33.5625,571.125 c -0.579935,2.34108 -0.247401,3.93684 1,4.78125 1.231959,0.73366 2.754339,0.81272 4.59375,0.21875 0.802118,-0.29858 1.596761,-0.73753 2.40625,-1.25 0.111687,-2.26854 0.527753,-4.58825 1.1875,-6.90625 l 0.03125,-0.0313 c 0.128347,-0.43685 0.268931,-0.85311 0.40625,-1.28125 -0.31225,0.43055 -0.626564,0.82269 -0.96875,1.1875 -0.01485,0.0158 -0.01635,0.0468 -0.03125,0.0625 -0.208479,0.20211 -0.39361,0.29196 -0.59375,0.46875 l 11.8125,-46.6875 0,-0.0625 c 2.22255,-8.41282 2.90807,-15.35705 -0.78125,-21.0625 -0.008,-0.0127 -0.02335,-0.0186 -0.03125,-0.0313 -0.0315,-0.0485 -0.0303,-0.10796 -0.0625,-0.15625 l -0.03125,0.0313 c -2.68367,-4.22149 -7.721924,-6.41887 -12.8125,-6.59375 -0.04152,-0.001 -0.08351,10e-4 -0.125,0 l -0.09375,0 c -0.426687,-0.0107 -0.855595,-0.009 -1.28125,0 z m -70.1875,78.78125 c 0.17088,0.0539 0.30194,0.0741 0.5625,0.15625 0.132007,0.0416 0.201028,0.0601 0.28125,0.0937 l 0,0.0313 c -0.07339,-0.0172 -0.14638,-0.0348 -0.21875,-0.0625 -0.21879,-0.0841 -0.41871,-0.11621 -0.625,-0.21875 z"
         id="path4249-9-4" />
      <path
         style="font-size:78.40734863px;font-style:normal;font-variant:normal;font-weight:normal;font-stretch:normal;text-indent:0;text-align:start;text-decoration:none;line-height:125%;letter-spacing:0px;word-spacing:0px;text-transform:none;direction:ltr;block-progression:tb;writing-mode:lr-tb;text-anchor:start;baseline-shift:baseline;color:#000000;fill:#ffffff;fill-opacity:1;fill-rule:nonzero;stroke:none;stroke-width:11.66298103;marker:none;visibility:visible;display:inline;overflow:visible;enable-background:accumulate;font-family:Krinkes Regular PERSONAL USE;-inkscape-font-specification:Krinkes Regular PERSONAL USE"
         d="m 201.39657,541.99173 -1.8125,2.59375 -2.59375,3.625 -5.375,7.625 5.625,0.90625 c -0.52637,0.84508 -0.95844,1.58966 -1.6875,2.71875 l -0.0313,0.0625 -0.0625,0.0625 c -1.10776,1.81981 -2.36574,3.91146 -3.8125,6.25 l -0.0313,0.0313 -0.0313,0.0313 c -1.37661,2.28914 -2.79154,4.6283 -4.25,7.03125 -3.11085,5.13216 -6.72349,11.03693 -10.59375,17.34375 0.53174,0.4211 1.23763,0.62362 2.15625,0.59375 1.07317,-0.0354 2.29241,-0.40884 3.65625,-1.15625 0.69999,-0.36272 1.362,-0.81701 1.96875,-1.375 0.008,-0.0126 0.0235,-0.0186 0.0313,-0.0313 2.6131,-4.2573 5.33973,-8.70656 7.5625,-12.375 1.46206,-2.40952 2.90061,-4.76571 4.28125,-7.0625 1.45206,-2.3481 2.72689,-4.44583 3.84375,-6.28125 1.17829,-1.8253 2.12224,-3.32041 2.8125,-4.46875 0.69037,-1.14834 1.07483,-1.76216 1.15625,-1.875 0.75168,-1.13834 0.9988,-2.10956 0.75,-2.90625 -0.23904,-0.85788 -1.05652,-1.39589 -2.46875,-1.625 l -0.9375,-0.15625 2.5625,-3.65625 c 0.50113,0.0181 1.05244,0.002 1.625,-0.0313 0.51113,-0.0426 1.06245,-0.0287 1.625,0 0.56256,0.0287 1.16834,0.0786 1.84375,0.1875 3.49974,0.56761 5.51157,1.89476 6.0625,3.9375 0.55093,2.04286 -0.36367,4.97752 -2.75,8.8125 l -3.1875,5.15625 c 1.56148,-0.69198 3.1019,-1.17536 4.59375,-1.4375 1.50173,-0.32356 2.89799,-0.39662 4.1875,-0.1875 2.08751,0.33849 3.68248,1.12098 4.8125,2.3125 1.20143,1.14009 1.93494,2.56508 2.21875,4.3125 0.28369,1.74742 0.13543,3.7044 -0.46875,5.875 -0.54264,2.18049 -1.58027,4.44303 -3.09375,6.78125 -3.6558,5.83455 -7.6763,9.94113 -12.09375,12.3125 -4.40757,2.30995 -8.69986,3.14586 -12.875,2.46875 -2.33321,-0.37837 -4.04306,-1.52945 -5.125,-3.40625 -0.41649,0.62565 -0.67995,1.07681 -0.78125,1.3125 -0.0913,0.17426 -0.1687,0.32465 -0.25,0.4375 l -9.46875,-1.5625 c -0.13499,0.0743 -0.26894,0.14752 -0.40625,0.21875 l -0.90625,5.5 10.03125,1.625 2.5,0.40625 c 1.18095,0.57639 2.3957,1.04537 3.65625,1.25 5.52951,0.8977 11.24511,-0.262 16.53125,-3.03125 l 0.0313,-0.0313 c 5.56134,-2.98415 10.23147,-7.89 14.25,-14.28125 0.0119,-0.019 0.0152,-0.0473 0.0313,-0.0625 1.73812,-2.6953 3.04675,-5.45227 3.78125,-8.3125 0.0138,-0.0539 0.049,-0.10225 0.0625,-0.15625 l -0.0313,0 c 0.74289,-2.73472 1.03498,-5.49876 0.59375,-8.21875 -0.44339,-2.73343 -1.7925,-5.38717 -3.78125,-7.375 l 0.0313,-0.0313 c -0.0367,-0.0387 -0.0879,-0.0558 -0.125,-0.0937 -0.0373,-0.0363 -0.0561,-0.0892 -0.0937,-0.125 l -0.0313,0.0313 c -1.88138,-1.879 -4.30055,-2.99016 -6.8125,-3.5625 1.11357,-2.6603 1.63868,-5.37207 0.8125,-8.4375 -0.66154,-2.45462 -2.40047,-4.60211 -4.375,-5.875 -1.97453,-1.27289 -4.10341,-1.91245 -6.375,-2.28125 -0.84779,-0.13716 -1.67982,-0.23941 -2.5,-0.28125 -0.75512,-0.0385 -1.5134,0.008 -2.25,0.0625 l 0,-0.0313 c -0.40955,0.0238 -0.76567,0.0418 -1.0625,0.0313 l -3.15625,-0.125 z m 11,27.4375 c -0.82455,-0.0154 -1.70663,0.15058 -2.65625,0.46875 -1.19474,0.37344 -2.50904,0.96792 -3.90625,1.8125 -1.02557,1.66114 -2.08063,3.38225 -3.1875,5.15625 -1.04557,1.78387 -2.11188,3.56976 -3.21875,5.34375 -1.03545,1.72245 -2.06818,3.40136 -3.09375,5.0625 -1.0157,1.59973 -1.91582,3.05131 -2.6875,4.3125 0.42319,0.88787 1.24079,1.42588 2.46875,1.625 2.33321,0.37837 4.60039,-0.249 6.8125,-1.84375 2.27341,-1.58475 4.96257,-4.52554 8.0625,-8.875 1.1483,-1.64115 2.09362,-3.23325 2.84375,-4.75 0.81143,-1.50676 1.34308,-2.84333 1.59375,-4 0.25055,-1.15666 0.22618,-2.0986 -0.0937,-2.84375 -0.32022,-0.74503 -1.01976,-1.19576 -2.125,-1.375 -0.26095,-0.0423 -0.53765,-0.0887 -0.8125,-0.0937 z"
         id="path3752-6-06"
         inkscape:connector-curvature="0" />
    </g>
    <g
       transform="translate(-3.4298703e-5,0)"
       id="g4501">
      <g
         transform="matrix(0.97393461,0,0,0.97393461,-1231.8884,-674.44292)"
         id="g3774"
         style="fill:#ffffff;fill-opacity:1;stroke:none">
        <g
           id="g3776"
           style="font-size:40px;font-style:normal;font-variant:normal;font-weight:normal;font-stretch:normal;line-height:125%;letter-spacing:0px;word-spacing:0px;fill:#ffffff;stroke:none;font-family:Krinkes Regular PERSONAL USE;-inkscape-font-specification:Krinkes Regular PERSONAL USE">
          <path
             d="m 1421.5825,822.2886 c -0.2134,0.56001 -0.4667,1.22667 -0.76,2 -0.2667,0.77334 -0.5601,1.54667 -0.88,2.32 -0.2934,0.77334 -0.5734,1.49334 -0.84,2.16 -0.2401,0.64 -0.4267,1.12 -0.56,1.44 -0.7467,1.81333 -1.6401,3.13333 -2.68,3.96 -1.0401,0.82666 -2.3067,1.24 -3.8,1.24 -0.2667,0 -0.52,-0.0133 -0.76,-0.04 -0.2134,-0.0267 -0.4,-0.0667 -0.56,-0.12 -0.2134,-0.0533 -0.4,-0.10667 -0.56,-0.16 l 0.6,-1.76 0.4,0 c 0.5866,0 1.0933,-0.16 1.52,-0.48 0.4266,-0.32 0.7466,-0.76 0.96,-1.32 l 0.64,-1.64 c -0.4001,0.21333 -0.8534,0.38667 -1.36,0.52 -0.48,0.13333 -1.0134,0.2 -1.6,0.2 -0.8267,0 -1.56,-0.22667 -2.2,-0.68 -0.64,-0.48 -1.1334,-1.16 -1.48,-2.04 -0.32,-0.88 -0.4667,-1.94666 -0.44,-3.2 0.053,-1.27999 0.36,-2.71999 0.92,-4.32 1.2,-3.51999 2.8533,-6.25332 4.96,-8.2 2.1066,-1.97331 4.4933,-2.95998 7.16,-2.96 0.9599,2e-5 1.7333,0.20002 2.32,0.6 0.5866,0.37335 1.0133,0.86669 1.28,1.48 0.2666,0.61335 0.3599,1.30669 0.28,2.08 -0.08,0.74668 -0.3067,1.48002 -0.68,2.2 -0.3734,0.66668 -0.7467,1.22668 -1.12,1.68 -0.3734,0.42668 -0.7334,0.77335 -1.08,1.04 -0.3467,0.24001 -0.6667,0.41335 -0.96,0.52 -0.2934,0.10668 -0.5334,0.16001 -0.72,0.16 -0.7734,10e-6 -1.2801,-0.30665 -1.52,-0.92 -0.2134,-0.61332 -0.1601,-1.34665 0.16,-2.2 0.3733,-0.98665 0.8933,-1.74665 1.56,-2.28 0.6666,-0.53332 1.3999,-0.79998 2.2,-0.8 0.2399,2e-5 0.4133,0.0134 0.52,0.04 0.08,-0.18665 0.1066,-0.38665 0.08,-0.6 -0.027,-0.21331 -0.1201,-0.41331 -0.28,-0.6 -0.1334,-0.18665 -0.3601,-0.33331 -0.68,-0.44 -0.3201,-0.13331 -0.7334,-0.19998 -1.24,-0.2 -0.9067,2e-5 -1.7467,0.24002 -2.52,0.72 -0.7734,0.45335 -1.4801,1.08002 -2.12,1.88 -0.6134,0.77335 -1.1734,1.66668 -1.68,2.68 -0.4801,1.01335 -0.8934,2.06668 -1.24,3.16 -0.4267,1.25334 -0.76,2.42668 -1,3.52 -0.2134,1.06667 -0.32,2.00001 -0.32,2.8 0,0.8 0.093,1.45334 0.28,1.96 0.2133,0.48 0.5466,0.76 1,0.84 0.3466,0.0533 0.6799,-0.0133 1,-0.2 0.3466,-0.21333 0.6666,-0.50666 0.96,-0.88 0.3199,-0.37333 0.6266,-0.81333 0.92,-1.32 0.2933,-0.50666 0.5599,-1.03999 0.8,-1.6 0.1333,-0.34666 0.2533,-0.66666 0.36,-0.96 0.1333,-0.31999 0.2533,-0.58666 0.36,-0.8 0.1066,-0.26666 0.1999,-0.50666 0.28,-0.72 l 0.32,-0.8 0.32,-0.72 5.48,0 -0.72,1.76 -1.28,0"
             id="path3778"
             style="fill:#ffffff;stroke:none"
             inkscape:connector-curvature="0" />
          <path
             d="m 1433.4781,814.5286 c 1.04,2e-5 1.8266,0.37335 2.36,1.12 0.08,-0.18665 0.1333,-0.34665 0.16,-0.48 0.053,-0.15998 0.1066,-0.26665 0.16,-0.32 l 4.4,0 c -0.08,0.24002 -0.24,0.65335 -0.48,1.24 -0.24,0.58668 -0.52,1.26668 -0.84,2.04 -0.32,0.74668 -0.6534,1.54668 -1,2.4 -0.3467,0.82668 -0.68,1.61334 -1,2.36 -0.2934,0.74667 -0.56,1.40001 -0.8,1.96 -0.2134,0.53334 -0.3467,0.88001 -0.4,1.04 -0.2134,0.50667 -0.1867,0.86667 0.08,1.08 0.2666,0.21334 0.6266,0.28 1.08,0.2 0.4533,-0.08 0.9466,-0.32 1.48,-0.72 0.56,-0.39999 1.0133,-0.95999 1.36,-1.68 l 0.68,1.12 c -0.2667,0.64 -0.64,1.24 -1.12,1.8 -0.4534,0.53334 -0.9734,1 -1.56,1.4 -0.56,0.4 -1.1734,0.72 -1.84,0.96 -0.64,0.24 -1.28,0.36 -1.92,0.36 -0.8267,0 -1.5067,-0.17333 -2.04,-0.52 -0.5067,-0.34667 -0.8267,-0.86666 -0.96,-1.56 -0.7734,0.64 -1.56,1.14667 -2.36,1.52 -0.7734,0.37333 -1.52,0.56 -2.24,0.56 -0.9067,0 -1.6534,-0.2 -2.24,-0.6 -0.56,-0.42666 -0.96,-1 -1.2,-1.72 -0.24,-0.72 -0.3067,-1.56 -0.2,-2.52 0.08,-0.98666 0.36,-2.02666 0.84,-3.12 1.1466,-2.71999 2.5733,-4.71999 4.28,-6 1.7066,-1.27998 3.48,-1.91998 5.32,-1.92 m 1.68,2.68 c -0.24,-0.37332 -0.6267,-0.55999 -1.16,-0.56 -0.5067,10e-6 -0.9867,0.10668 -1.44,0.32 -0.4267,0.18668 -0.8667,0.50668 -1.32,0.96 -0.4267,0.42668 -0.8667,1.00001 -1.32,1.72 -0.4534,0.72001 -0.9334,1.60001 -1.44,2.64 -0.4,0.77334 -0.72,1.50667 -0.96,2.2 -0.2134,0.66667 -0.3334,1.25334 -0.36,1.76 -0.027,0.50667 0.053,0.90667 0.24,1.2 0.2133,0.29334 0.5466,0.44 1,0.44 0.4533,0 0.9466,-0.13333 1.48,-0.4 0.5333,-0.26666 1.0666,-0.64 1.6,-1.12 0.08,-0.34666 0.2,-0.69333 0.36,-1.04 l 3.32,-8.12"
             id="path3780"
             style="fill:#ffffff;stroke:none"
             inkscape:connector-curvature="0" />
          <path
             d="m 1445.9931,811.6086 c 0.7733,2e-5 1.28,0.30669 1.52,0.92 0.24,0.58668 0.1866,1.30668 -0.16,2.16 -0.24,0.64002 -0.5334,1.17335 -0.88,1.6 l 3.52,0 c -0.08,0.24001 -0.2267,0.61335 -0.44,1.12 -0.2134,0.50668 -0.4534,1.09335 -0.72,1.76 -0.2667,0.66668 -0.56,1.36001 -0.88,2.08 -0.2934,0.72001 -0.5734,1.40001 -0.84,2.04 -0.2667,0.64001 -0.5067,1.20001 -0.72,1.68 -0.1867,0.45334 -0.3067,0.76001 -0.36,0.92 -0.2134,0.50667 -0.1867,0.86667 0.08,1.08 0.2666,0.21334 0.6266,0.28 1.08,0.2 0.48,-0.08 0.9866,-0.32 1.52,-0.72 0.5333,-0.39999 0.9733,-0.95999 1.32,-1.68 l 0.68,1.12 c -0.2667,0.64 -0.64,1.24 -1.12,1.8 -0.4534,0.53334 -0.9734,1 -1.56,1.4 -0.56,0.4 -1.1734,0.72 -1.84,0.96 -0.64,0.24 -1.28,0.36 -1.92,0.36 -0.64,0 -1.2,-0.10667 -1.68,-0.32 -0.4534,-0.21333 -0.8,-0.53333 -1.04,-0.96 -0.2134,-0.42666 -0.3067,-0.96 -0.28,-1.6 0.027,-0.64 0.2133,-1.37333 0.56,-2.2 l 3.28,-7.92 c -0.48,0.24001 -0.9867,0.36001 -1.52,0.36 -0.7467,10e-6 -1.24,-0.29332 -1.48,-0.88 -0.24,-0.61332 -0.1734,-1.34665 0.2,-2.2 0.3733,-0.98665 0.88,-1.74665 1.52,-2.28 0.6666,-0.53331 1.3866,-0.79998 2.16,-0.8"
             id="path3782"
             style="fill:#ffffff;stroke:none"
             inkscape:connector-curvature="0" />
          <path
             d="m 1460.3531,814.5286 c 1.04,2e-5 1.8266,0.37335 2.36,1.12 0.08,-0.18665 0.1333,-0.34665 0.16,-0.48 0.053,-0.15998 0.1066,-0.26665 0.16,-0.32 l 4.4,0 c -0.08,0.24002 -0.24,0.65335 -0.48,1.24 -0.24,0.58668 -0.52,1.26668 -0.84,2.04 -0.32,0.74668 -0.6534,1.54668 -1,2.4 -0.3467,0.82668 -0.68,1.61334 -1,2.36 -0.2934,0.74667 -0.56,1.40001 -0.8,1.96 -0.2134,0.53334 -0.3467,0.88001 -0.4,1.04 -0.2134,0.50667 -0.1867,0.86667 0.08,1.08 0.2666,0.21334 0.6266,0.28 1.08,0.2 0.4533,-0.08 0.9466,-0.32 1.48,-0.72 0.56,-0.39999 1.0133,-0.95999 1.36,-1.68 l 0.68,1.12 c -0.2667,0.64 -0.64,1.24 -1.12,1.8 -0.4534,0.53334 -0.9734,1 -1.56,1.4 -0.56,0.4 -1.1734,0.72 -1.84,0.96 -0.64,0.24 -1.28,0.36 -1.92,0.36 -0.8267,0 -1.5067,-0.17333 -2.04,-0.52 -0.5067,-0.34667 -0.8267,-0.86666 -0.96,-1.56 -0.7734,0.64 -1.56,1.14667 -2.36,1.52 -0.7734,0.37333 -1.52,0.56 -2.24,0.56 -0.9067,0 -1.6534,-0.2 -2.24,-0.6 -0.56,-0.42666 -0.96,-1 -1.2,-1.72 -0.24,-0.72 -0.3067,-1.56 -0.2,-2.52 0.08,-0.98666 0.36,-2.02666 0.84,-3.12 1.1466,-2.71999 2.5733,-4.71999 4.28,-6 1.7066,-1.27998 3.48,-1.91998 5.32,-1.92 m 1.68,2.68 c -0.24,-0.37332 -0.6267,-0.55999 -1.16,-0.56 -0.5067,10e-6 -0.9867,0.10668 -1.44,0.32 -0.4267,0.18668 -0.8667,0.50668 -1.32,0.96 -0.4267,0.42668 -0.8667,1.00001 -1.32,1.72 -0.4534,0.72001 -0.9334,1.60001 -1.44,2.64 -0.4,0.77334 -0.72,1.50667 -0.96,2.2 -0.2134,0.66667 -0.3334,1.25334 -0.36,1.76 -0.027,0.50667 0.053,0.90667 0.24,1.2 0.2133,0.29334 0.5466,0.44 1,0.44 0.4533,0 0.9466,-0.13333 1.48,-0.4 0.5333,-0.26666 1.0666,-0.64 1.6,-1.12 0.08,-0.34666 0.2,-0.69333 0.36,-1.04 l 3.32,-8.12"
             id="path3784"
             style="fill:#ffffff;stroke:none"
             inkscape:connector-curvature="0" />
          <path
             d="m 1484.2281,814.8486 c -0.2134,0.50668 -0.4534,1.09335 -0.72,1.76 -0.2667,0.66668 -0.56,1.38668 -0.88,2.16 -0.32,0.74668 -0.64,1.53334 -0.96,2.36 -0.32,0.80001 -0.64,1.58668 -0.96,2.36 -0.7467,1.81334 -1.52,3.70667 -2.32,5.68 -1.0134,2.58667 -2.36,4.56 -4.04,5.92 -1.68,1.35999 -3.5467,2.03999 -5.6,2.04 -0.8534,-10e-6 -1.5334,-0.20001 -2.04,-0.6 -0.5067,-0.4 -0.8534,-0.90667 -1.04,-1.52 -0.2134,-0.61334 -0.2534,-1.29334 -0.12,-2.04 0.1066,-0.74667 0.36,-1.48 0.76,-2.2 0.3733,-0.61333 0.8,-1.14667 1.28,-1.6 -0.56,-0.72 -0.84,-1.65333 -0.84,-2.8 0,-1.17333 0.2933,-2.47999 0.88,-3.92 1.1733,-2.71999 2.6133,-4.71999 4.32,-6 1.7066,-1.27998 3.48,-1.91998 5.32,-1.92 0.9866,2e-5 1.7466,0.34668 2.28,1.04 l 0.28,-0.72 4.4,0 m -12,13.04 c 0.4,0 0.8266,-0.10666 1.28,-0.32 0.48,-0.24 0.96,-0.54666 1.44,-0.92 l 3.92,-9.52 c -0.2667,-0.31999 -0.64,-0.47999 -1.12,-0.48 -0.48,10e-6 -0.9467,0.10668 -1.4,0.32 -0.4267,0.18668 -0.8667,0.50668 -1.32,0.96 -0.4267,0.42668 -0.8667,1.00001 -1.32,1.72 -0.4534,0.72001 -0.9334,1.60001 -1.44,2.64 -0.4,0.77334 -0.72,1.50667 -0.96,2.2 -0.2134,0.66667 -0.3334,1.25334 -0.36,1.76 -0.027,0.50667 0.053,0.90667 0.24,1.2 0.2133,0.29334 0.56,0.44 1.04,0.44 m -1.76,2.52 c -0.32,0 -0.6134,-0.0267 -0.88,-0.08 -0.2667,-0.0533 -0.52,-0.12 -0.76,-0.2 -0.3734,0.26667 -0.72,0.65333 -1.04,1.16 -0.32,0.50667 -0.5734,1.14667 -0.76,1.92 -0.1334,0.66666 -0.04,1.18666 0.28,1.56 0.3466,0.4 0.7866,0.6 1.32,0.6 0.5066,0 1.0133,-0.18667 1.52,-0.56 0.5066,-0.34667 0.9866,-0.81334 1.44,-1.4 0.48,-0.58667 0.9066,-1.25333 1.28,-2 0.4,-0.72 0.7333,-1.44 1,-2.16 -0.5867,0.37333 -1.1734,0.66667 -1.76,0.88 -0.56,0.18667 -1.1067,0.28 -1.64,0.28"
             id="path3786"
             style="fill:#ffffff;stroke:none"
             inkscape:connector-curvature="0" />
          <path
             d="m 1490.4475,828.1686 c 0.5599,0 1.1333,-0.0933 1.72,-0.28 0.6133,-0.18666 1.1866,-0.42666 1.72,-0.72 0.5599,-0.32 1.0666,-0.68 1.52,-1.08 0.4533,-0.42666 0.8266,-0.86666 1.12,-1.32 l 0.68,1.12 c -0.6667,1.41334 -1.8134,2.52 -3.44,3.32 -1.6267,0.8 -3.5201,1.2 -5.68,1.2 -1.12,0 -2.08,-0.2 -2.88,-0.6 -0.7734,-0.42666 -1.3734,-1 -1.8,-1.72 -0.4267,-0.72 -0.6534,-1.56 -0.68,-2.52 -0.027,-0.98666 0.1733,-2.02666 0.6,-3.12 1.0133,-2.58666 2.36,-4.54665 4.04,-5.88 1.7066,-1.35998 3.5866,-2.03998 5.64,-2.04 1.0933,2e-5 1.9199,0.29335 2.48,0.88 0.5599,0.56002 0.8666,1.25335 0.92,2.08 0.08,0.80001 -0.093,1.66668 -0.52,2.6 -0.4001,0.90668 -1.0267,1.72001 -1.88,2.44 -1.2001,0.98667 -2.5867,1.48001 -4.16,1.48 l -2.56,0 c -0.3467,1.20001 -0.2267,2.2 0.36,3 0.6133,0.77334 1.5466,1.16 2.8,1.16 m 1.56,-11.84 c -0.2667,0.10668 -0.5867,0.34668 -0.96,0.72 -0.3467,0.37335 -0.7067,0.84001 -1.08,1.4 -0.3734,0.56001 -0.7601,1.18668 -1.16,1.88 -0.3734,0.69334 -0.7067,1.41334 -1,2.16 l 1.4,0 c 0.6133,10e-6 1.1333,-0.18666 1.56,-0.56 0.4266,-0.37332 0.8266,-0.94666 1.2,-1.72 0.3199,-0.58666 0.5733,-1.14665 0.76,-1.68 0.1866,-0.53332 0.2933,-0.98665 0.32,-1.36 0.027,-0.37332 -0.04,-0.63999 -0.2,-0.8 -0.1601,-0.18665 -0.4401,-0.19998 -0.84,-0.04"
             id="path3788"
             style="fill:#ffffff;stroke:none"
             inkscape:connector-curvature="0" />
        </g>
        <g
           transform="scale(-1,1)"
           id="g3790"
           style="font-size:40px;font-style:normal;font-variant:normal;font-weight:normal;font-stretch:normal;line-height:125%;letter-spacing:0px;word-spacing:0px;fill:#ffffff;stroke:none;font-family:Krinkes Regular PERSONAL USE;-inkscape-font-specification:Krinkes Regular PERSONAL USE">
          <path
             d="m -1425.7478,847.74001 c -3.3867,-0.18668 -6.7067,-0.33334 -9.96,-0.44 -3.28,-0.10668 -6.4267,-0.12001 -9.44,-0.04 -3.0133,0.08 -5.8667,0.27999 -8.56,0.6 -2.72,0.31999 -5.2267,0.81332 -7.52,1.48 -2.32,0.69332 -4.4,1.58665 -6.24,2.68 -1.8667,1.09332 -3.44,2.43998 -4.72,4.04 -0.4267,-1.09335 -1.1866,-2.12002 -2.28,-3.08 -1.0933,-0.93335 -2.4666,-1.66668 -4.12,-2.2 -1.68,-0.50668 -3.6,-0.74668 -5.76,-0.72 -2.16,0.0533 -4.52,0.49332 -7.08,1.32 1.7067,-2.05335 3.5467,-3.90668 5.52,-5.56 1.9467,-1.65334 4.0667,-3.08001 6.36,-4.28 2.2934,-1.2 4.7734,-2.14667 7.44,-2.84 2.64,-0.69334 5.4933,-1.10667 8.56,-1.24 3.3867,-0.13333 6.5067,-0.10667 9.36,0.08 2.8533,0.21333 5.56,0.50666 8.12,0.88 2.5333,0.37333 4.9733,0.78666 7.32,1.24 2.3466,0.48 4.7066,0.90666 7.08,1.28 2.3466,0.39999 4.76,0.70666 7.24,0.92 2.4533,0.23999 5.0933,0.31999 7.92,0.24 2.24,-0.0533 4.24,-0.36001 6,-0.92 1.76,-0.53334 3.2666,-1.22667 4.52,-2.08 1.2799,-0.85334 2.2933,-1.81333 3.04,-2.88 0.7733,-1.06667 1.2799,-2.12 1.52,-3.16 0.2666,-1.06666 0.2533,-2.06666 -0.04,-3 -0.2667,-0.95999 -0.8001,-1.77333 -1.6,-2.44 -1.0667,-0.85332 -2.1601,-1.10666 -3.28,-0.76 -1.12,0.32001 -2.04,1.24001 -2.76,2.76 l -0.64,-1.12 c 0.4266,-0.87999 0.9333,-1.57332 1.52,-2.08 0.6133,-0.50666 1.2533,-0.83999 1.92,-1 0.6666,-0.15999 1.3333,-0.15999 2,0 0.6666,0.13334 1.2933,0.38668 1.88,0.76 1.2799,0.88001 2.2133,2.06667 2.8,3.56 0.6133,1.46667 0.7999,3.04 0.56,4.72 -0.2401,1.68 -0.9334,3.36 -2.08,5.04 -1.1201,1.70666 -2.7601,3.21333 -4.92,4.52 -2.1334,1.30666 -4.8267,2.31999 -8.08,3.04 -3.2534,0.71999 -7.12,0.94665 -11.6,0.68"
             id="path3792"
             style="fill:#ffffff;stroke:none"
             inkscape:connector-curvature="0" />
        </g>
      </g>
      <g
         transform="matrix(1.0209431,0,0,1.0209431,-1595.8677,-1484.0162)"
         id="g3794"
         style="fill:#ffffff;stroke:none">
        <path
           d="m 2009.2456,1490.8206 -54.4004,-18.4478 -46.0372,34.3555 0.7342,-57.4385 -46.9003,-33.1676 54.8541,-17.0512 17.0513,-54.8542 33.1675,46.9003 57.4386,-0.7342 -34.3555,46.0372 z"
           transform="matrix(-0.09224546,0.04594741,-0.04594741,-0.09224546,1876.2849,1630.4597)"
           id="path3796"
           style="fill:#ffffff;fill-opacity:1;stroke:none"
           inkscape:connector-curvature="0" />
        <path
           d="m 2009.2456,1490.8206 -54.4004,-18.4478 -46.0372,34.3555 0.7342,-57.4385 -46.9003,-33.1676 54.8541,-17.0512 17.0513,-54.8542 33.1675,46.9003 57.4386,-0.7342 -34.3555,46.0372 z"
           transform="matrix(-0.09224546,0.04594741,-0.04594741,-0.09224546,1896.7567,1630.4597)"
           id="path3798"
           style="fill:#ffffff;fill-opacity:1;stroke:none"
           inkscape:connector-curvature="0" />
        <path
           d="m 2009.2456,1490.8206 -54.4004,-18.4478 -46.0372,34.3555 0.7342,-57.4385 -46.9003,-33.1676 54.8541,-17.0512 17.0513,-54.8542 33.1675,46.9003 57.4386,-0.7342 -34.3555,46.0372 z"
           transform="matrix(-0.09224546,0.04594741,-0.04594741,-0.09224546,1917.2286,1630.4597)"
           id="path3800"
           style="fill:#ffffff;fill-opacity:1;stroke:none"
           inkscape:connector-curvature="0" />
      </g>
      <g
         transform="matrix(1.0209431,0,0,1.0209431,-1421.8345,-1484.0162)"
         id="g3802"
         style="fill:#ffffff;stroke:none">
        <path
           d="m 2009.2456,1490.8206 -54.4004,-18.4478 -46.0372,34.3555 0.7342,-57.4385 -46.9003,-33.1676 54.8541,-17.0512 17.0513,-54.8542 33.1675,46.9003 57.4386,-0.7342 -34.3555,46.0372 z"
           transform="matrix(-0.09224546,0.04594741,-0.04594741,-0.09224546,1876.2849,1630.4597)"
           id="path3804"
           style="fill:#ffffff;stroke:none"
           inkscape:connector-curvature="0" />
        <path
           d="m 2009.2456,1490.8206 -54.4004,-18.4478 -46.0372,34.3555 0.7342,-57.4385 -46.9003,-33.1676 54.8541,-17.0512 17.0513,-54.8542 33.1675,46.9003 57.4386,-0.7342 -34.3555,46.0372 z"
           transform="matrix(-0.09224546,0.04594741,-0.04594741,-0.09224546,1896.7567,1630.4597)"
           id="path3806"
           style="fill:#ffffff;stroke:none"
           inkscape:connector-curvature="0" />
        <path
           d="m 2009.2456,1490.8206 -54.4004,-18.4478 -46.0372,34.3555 0.7342,-57.4385 -46.9003,-33.1676 54.8541,-17.0512 17.0513,-54.8542 33.1675,46.9003 57.4386,-0.7342 -34.3555,46.0372 z"
           transform="matrix(-0.09224546,0.04594741,-0.04594741,-0.09224546,1917.2286,1630.4597)"
           id="path3808"
           style="fill:#ffffff;stroke:none"
           inkscape:connector-curvature="0" />
      </g>
    </g>
  </g>
</svg>
